<?xml version="1.0" encoding="utf-8" standalone="no"?>
<!DOCTYPE svg PUBLIC "-//W3C//DTD SVG 1.1//EN"
  "http://www.w3.org/Graphics/SVG/1.1/DTD/svg11.dtd">
<svg xmlns:xlink="http://www.w3.org/1999/xlink" width="460.8pt" height="345.6pt" viewBox="0 0 460.8 345.6" xmlns="http://www.w3.org/2000/svg" version="1.1">
 <metadata>
  <rdf:RDF xmlns:dc="http://purl.org/dc/elements/1.1/" xmlns:cc="http://creativecommons.org/ns#" xmlns:rdf="http://www.w3.org/1999/02/22-rdf-syntax-ns#">
   <cc:Work>
    <dc:type rdf:resource="http://purl.org/dc/dcmitype/StillImage"/>
    <dc:date>2024-04-22T18:04:24.448282</dc:date>
    <dc:format>image/svg+xml</dc:format>
    <dc:creator>
     <cc:Agent>
      <dc:title>Matplotlib v3.8.3, https://matplotlib.org/</dc:title>
     </cc:Agent>
    </dc:creator>
   </cc:Work>
  </rdf:RDF>
 </metadata>
 <defs>
  <style type="text/css">*{stroke-linejoin: round; stroke-linecap: butt}</style>
 </defs>
 <g id="figure_1">
  <g id="patch_1">
   <path d="M 0 345.6 
L 460.8 345.6 
L 460.8 0 
L 0 0 
z
" style="fill: #ffffff"/>
  </g>
  <g id="axes_1">
   <g id="patch_2">
    <path d="M 57.6 307.584 
L 414.72 307.584 
L 414.72 41.472 
L 57.6 41.472 
z
" style="fill: #ffffff"/>
   </g>
   <g id="PolyCollection_1">
    <defs>
     <path id="mbf9650bdd0" d="M 73.832727 -77.694615 
L 73.832727 -68.733435 
L 78.910087 -72.660962 
L 87.73061 -105.520874 
L 97.88533 -84.118537 
L 110.893748 -142.760462 
L 121.604384 -91.262882 
L 127.64533 -158.175121 
L 127.64533 -191.586349 
L 127.64533 -191.586349 
L 121.604384 -99.088622 
L 110.893748 -165.584263 
L 97.88533 -89.983027 
L 87.73061 -115.827105 
L 78.910087 -75.861557 
L 73.832727 -77.694615 
z
" style="stroke: #1f77b4; stroke-opacity: 0.2"/>
    </defs>
    <g clip-path="url(#p1168c3e414)">
     <use xlink:href="#mbf9650bdd0" x="0" y="345.6" style="fill: #1f77b4; fill-opacity: 0.2; stroke: #1f77b4; stroke-opacity: 0.2"/>
    </g>
   </g>
   <g id="PolyCollection_2">
    <defs>
     <path id="me0879b2412" d="M 73.832727 -51.987513 
L 73.832727 -50.112 
L 87.73061 -67.330037 
L 110.893748 -88.933004 
L 127.64533 -98.017203 
L 195.355816 -148.806146 
L 263.066301 -175.469379 
L 330.776787 -193.373624 
L 398.487273 -225.159254 
L 398.487273 -292.032 
L 398.487273 -292.032 
L 330.776787 -248.679453 
L 263.066301 -217.638125 
L 195.355816 -180.424059 
L 127.64533 -118.966856 
L 110.893748 -104.665661 
L 87.73061 -73.70707 
L 73.832727 -51.987513 
z
" style="stroke: #ff7f0e; stroke-opacity: 0.2"/>
    </defs>
    <g clip-path="url(#p1168c3e414)">
     <use xlink:href="#me0879b2412" x="0" y="345.6" style="fill: #ff7f0e; fill-opacity: 0.2; stroke: #ff7f0e; stroke-opacity: 0.2"/>
    </g>
   </g>
   <g id="matplotlib.axis_1">
    <g id="xtick_1">
     <g id="line2d_1">
      <defs>
       <path id="mf62fa8fb59" d="M 0 0 
L 0 3.5 
" style="stroke: #000000; stroke-width: 0.8"/>
      </defs>
      <g>
       <use xlink:href="#mf62fa8fb59" x="59.934844" y="307.584" style="stroke: #000000; stroke-width: 0.8"/>
      </g>
     </g>
     <g id="text_1">
      <!-- 0 -->
      <g transform="translate(56.753594 322.182437) scale(0.1 -0.1)">
       <defs>
        <path id="DejaVuSans-30" d="M 2034 4250 
Q 1547 4250 1301 3770 
Q 1056 3291 1056 2328 
Q 1056 1369 1301 889 
Q 1547 409 2034 409 
Q 2525 409 2770 889 
Q 3016 1369 3016 2328 
Q 3016 3291 2770 3770 
Q 2525 4250 2034 4250 
z
M 2034 4750 
Q 2819 4750 3233 4129 
Q 3647 3509 3647 2328 
Q 3647 1150 3233 529 
Q 2819 -91 2034 -91 
Q 1250 -91 836 529 
Q 422 1150 422 2328 
Q 422 3509 836 4129 
Q 1250 4750 2034 4750 
z
" transform="scale(0.015625)"/>
       </defs>
       <use xlink:href="#DejaVuSans-30"/>
      </g>
     </g>
    </g>
    <g id="xtick_2">
     <g id="line2d_2">
      <g>
       <use xlink:href="#mf62fa8fb59" x="106.261121" y="307.584" style="stroke: #000000; stroke-width: 0.8"/>
      </g>
     </g>
     <g id="text_2">
      <!-- 10000 -->
      <g transform="translate(90.354871 322.182437) scale(0.1 -0.1)">
       <defs>
        <path id="DejaVuSans-31" d="M 794 531 
L 1825 531 
L 1825 4091 
L 703 3866 
L 703 4441 
L 1819 4666 
L 2450 4666 
L 2450 531 
L 3481 531 
L 3481 0 
L 794 0 
L 794 531 
z
" transform="scale(0.015625)"/>
       </defs>
       <use xlink:href="#DejaVuSans-31"/>
       <use xlink:href="#DejaVuSans-30" x="63.623047"/>
       <use xlink:href="#DejaVuSans-30" x="127.246094"/>
       <use xlink:href="#DejaVuSans-30" x="190.869141"/>
       <use xlink:href="#DejaVuSans-30" x="254.492188"/>
      </g>
     </g>
    </g>
    <g id="xtick_3">
     <g id="line2d_3">
      <g>
       <use xlink:href="#mf62fa8fb59" x="152.587397" y="307.584" style="stroke: #000000; stroke-width: 0.8"/>
      </g>
     </g>
     <g id="text_3">
      <!-- 20000 -->
      <g transform="translate(136.681147 322.182437) scale(0.1 -0.1)">
       <defs>
        <path id="DejaVuSans-32" d="M 1228 531 
L 3431 531 
L 3431 0 
L 469 0 
L 469 531 
Q 828 903 1448 1529 
Q 2069 2156 2228 2338 
Q 2531 2678 2651 2914 
Q 2772 3150 2772 3378 
Q 2772 3750 2511 3984 
Q 2250 4219 1831 4219 
Q 1534 4219 1204 4116 
Q 875 4013 500 3803 
L 500 4441 
Q 881 4594 1212 4672 
Q 1544 4750 1819 4750 
Q 2544 4750 2975 4387 
Q 3406 4025 3406 3419 
Q 3406 3131 3298 2873 
Q 3191 2616 2906 2266 
Q 2828 2175 2409 1742 
Q 1991 1309 1228 531 
z
" transform="scale(0.015625)"/>
       </defs>
       <use xlink:href="#DejaVuSans-32"/>
       <use xlink:href="#DejaVuSans-30" x="63.623047"/>
       <use xlink:href="#DejaVuSans-30" x="127.246094"/>
       <use xlink:href="#DejaVuSans-30" x="190.869141"/>
       <use xlink:href="#DejaVuSans-30" x="254.492188"/>
      </g>
     </g>
    </g>
    <g id="xtick_4">
     <g id="line2d_4">
      <g>
       <use xlink:href="#mf62fa8fb59" x="198.913674" y="307.584" style="stroke: #000000; stroke-width: 0.8"/>
      </g>
     </g>
     <g id="text_4">
      <!-- 30000 -->
      <g transform="translate(183.007424 322.182437) scale(0.1 -0.1)">
       <defs>
        <path id="DejaVuSans-33" d="M 2597 2516 
Q 3050 2419 3304 2112 
Q 3559 1806 3559 1356 
Q 3559 666 3084 287 
Q 2609 -91 1734 -91 
Q 1441 -91 1130 -33 
Q 819 25 488 141 
L 488 750 
Q 750 597 1062 519 
Q 1375 441 1716 441 
Q 2309 441 2620 675 
Q 2931 909 2931 1356 
Q 2931 1769 2642 2001 
Q 2353 2234 1838 2234 
L 1294 2234 
L 1294 2753 
L 1863 2753 
Q 2328 2753 2575 2939 
Q 2822 3125 2822 3475 
Q 2822 3834 2567 4026 
Q 2313 4219 1838 4219 
Q 1578 4219 1281 4162 
Q 984 4106 628 3988 
L 628 4550 
Q 988 4650 1302 4700 
Q 1616 4750 1894 4750 
Q 2613 4750 3031 4423 
Q 3450 4097 3450 3541 
Q 3450 3153 3228 2886 
Q 3006 2619 2597 2516 
z
" transform="scale(0.015625)"/>
       </defs>
       <use xlink:href="#DejaVuSans-33"/>
       <use xlink:href="#DejaVuSans-30" x="63.623047"/>
       <use xlink:href="#DejaVuSans-30" x="127.246094"/>
       <use xlink:href="#DejaVuSans-30" x="190.869141"/>
       <use xlink:href="#DejaVuSans-30" x="254.492188"/>
      </g>
     </g>
    </g>
    <g id="xtick_5">
     <g id="line2d_5">
      <g>
       <use xlink:href="#mf62fa8fb59" x="245.23995" y="307.584" style="stroke: #000000; stroke-width: 0.8"/>
      </g>
     </g>
     <g id="text_5">
      <!-- 40000 -->
      <g transform="translate(229.3337 322.182437) scale(0.1 -0.1)">
       <defs>
        <path id="DejaVuSans-34" d="M 2419 4116 
L 825 1625 
L 2419 1625 
L 2419 4116 
z
M 2253 4666 
L 3047 4666 
L 3047 1625 
L 3713 1625 
L 3713 1100 
L 3047 1100 
L 3047 0 
L 2419 0 
L 2419 1100 
L 313 1100 
L 313 1709 
L 2253 4666 
z
" transform="scale(0.015625)"/>
       </defs>
       <use xlink:href="#DejaVuSans-34"/>
       <use xlink:href="#DejaVuSans-30" x="63.623047"/>
       <use xlink:href="#DejaVuSans-30" x="127.246094"/>
       <use xlink:href="#DejaVuSans-30" x="190.869141"/>
       <use xlink:href="#DejaVuSans-30" x="254.492188"/>
      </g>
     </g>
    </g>
    <g id="xtick_6">
     <g id="line2d_6">
      <g>
       <use xlink:href="#mf62fa8fb59" x="291.566227" y="307.584" style="stroke: #000000; stroke-width: 0.8"/>
      </g>
     </g>
     <g id="text_6">
      <!-- 50000 -->
      <g transform="translate(275.659977 322.182437) scale(0.1 -0.1)">
       <defs>
        <path id="DejaVuSans-35" d="M 691 4666 
L 3169 4666 
L 3169 4134 
L 1269 4134 
L 1269 2991 
Q 1406 3038 1543 3061 
Q 1681 3084 1819 3084 
Q 2600 3084 3056 2656 
Q 3513 2228 3513 1497 
Q 3513 744 3044 326 
Q 2575 -91 1722 -91 
Q 1428 -91 1123 -41 
Q 819 9 494 109 
L 494 744 
Q 775 591 1075 516 
Q 1375 441 1709 441 
Q 2250 441 2565 725 
Q 2881 1009 2881 1497 
Q 2881 1984 2565 2268 
Q 2250 2553 1709 2553 
Q 1456 2553 1204 2497 
Q 953 2441 691 2322 
L 691 4666 
z
" transform="scale(0.015625)"/>
       </defs>
       <use xlink:href="#DejaVuSans-35"/>
       <use xlink:href="#DejaVuSans-30" x="63.623047"/>
       <use xlink:href="#DejaVuSans-30" x="127.246094"/>
       <use xlink:href="#DejaVuSans-30" x="190.869141"/>
       <use xlink:href="#DejaVuSans-30" x="254.492188"/>
      </g>
     </g>
    </g>
    <g id="xtick_7">
     <g id="line2d_7">
      <g>
       <use xlink:href="#mf62fa8fb59" x="337.892503" y="307.584" style="stroke: #000000; stroke-width: 0.8"/>
      </g>
     </g>
     <g id="text_7">
      <!-- 60000 -->
      <g transform="translate(321.986253 322.182437) scale(0.1 -0.1)">
       <defs>
        <path id="DejaVuSans-36" d="M 2113 2584 
Q 1688 2584 1439 2293 
Q 1191 2003 1191 1497 
Q 1191 994 1439 701 
Q 1688 409 2113 409 
Q 2538 409 2786 701 
Q 3034 994 3034 1497 
Q 3034 2003 2786 2293 
Q 2538 2584 2113 2584 
z
M 3366 4563 
L 3366 3988 
Q 3128 4100 2886 4159 
Q 2644 4219 2406 4219 
Q 1781 4219 1451 3797 
Q 1122 3375 1075 2522 
Q 1259 2794 1537 2939 
Q 1816 3084 2150 3084 
Q 2853 3084 3261 2657 
Q 3669 2231 3669 1497 
Q 3669 778 3244 343 
Q 2819 -91 2113 -91 
Q 1303 -91 875 529 
Q 447 1150 447 2328 
Q 447 3434 972 4092 
Q 1497 4750 2381 4750 
Q 2619 4750 2861 4703 
Q 3103 4656 3366 4563 
z
" transform="scale(0.015625)"/>
       </defs>
       <use xlink:href="#DejaVuSans-36"/>
       <use xlink:href="#DejaVuSans-30" x="63.623047"/>
       <use xlink:href="#DejaVuSans-30" x="127.246094"/>
       <use xlink:href="#DejaVuSans-30" x="190.869141"/>
       <use xlink:href="#DejaVuSans-30" x="254.492188"/>
      </g>
     </g>
    </g>
    <g id="xtick_8">
     <g id="line2d_8">
      <g>
       <use xlink:href="#mf62fa8fb59" x="384.21878" y="307.584" style="stroke: #000000; stroke-width: 0.8"/>
      </g>
     </g>
     <g id="text_8">
      <!-- 70000 -->
      <g transform="translate(368.31253 322.182437) scale(0.1 -0.1)">
       <defs>
        <path id="DejaVuSans-37" d="M 525 4666 
L 3525 4666 
L 3525 4397 
L 1831 0 
L 1172 0 
L 2766 4134 
L 525 4134 
L 525 4666 
z
" transform="scale(0.015625)"/>
       </defs>
       <use xlink:href="#DejaVuSans-37"/>
       <use xlink:href="#DejaVuSans-30" x="63.623047"/>
       <use xlink:href="#DejaVuSans-30" x="127.246094"/>
       <use xlink:href="#DejaVuSans-30" x="190.869141"/>
       <use xlink:href="#DejaVuSans-30" x="254.492188"/>
      </g>
     </g>
    </g>
    <g id="text_9">
     <!-- N -->
     <g transform="translate(232.419375 335.860562) scale(0.1 -0.1)">
      <defs>
       <path id="DejaVuSans-4e" d="M 628 4666 
L 1478 4666 
L 3547 763 
L 3547 4666 
L 4159 4666 
L 4159 0 
L 3309 0 
L 1241 3903 
L 1241 0 
L 628 0 
L 628 4666 
z
" transform="scale(0.015625)"/>
      </defs>
      <use xlink:href="#DejaVuSans-4e"/>
     </g>
    </g>
   </g>
   <g id="matplotlib.axis_2">
    <g id="ytick_1">
     <g id="line2d_9">
      <defs>
       <path id="mfc4c0c4a8b" d="M 0 0 
L -3.5 0 
" style="stroke: #000000; stroke-width: 0.8"/>
      </defs>
      <g>
       <use xlink:href="#mfc4c0c4a8b" x="57.6" y="306.929999" style="stroke: #000000; stroke-width: 0.8"/>
      </g>
     </g>
     <g id="text_10">
      <!-- 0 -->
      <g transform="translate(44.2375 310.729218) scale(0.1 -0.1)">
       <use xlink:href="#DejaVuSans-30"/>
      </g>
     </g>
    </g>
    <g id="ytick_2">
     <g id="line2d_10">
      <g>
       <use xlink:href="#mfc4c0c4a8b" x="57.6" y="275.799504" style="stroke: #000000; stroke-width: 0.8"/>
      </g>
     </g>
     <g id="text_11">
      <!-- 100 -->
      <g transform="translate(31.5125 279.598722) scale(0.1 -0.1)">
       <use xlink:href="#DejaVuSans-31"/>
       <use xlink:href="#DejaVuSans-30" x="63.623047"/>
       <use xlink:href="#DejaVuSans-30" x="127.246094"/>
      </g>
     </g>
    </g>
    <g id="ytick_3">
     <g id="line2d_11">
      <g>
       <use xlink:href="#mfc4c0c4a8b" x="57.6" y="244.669008" style="stroke: #000000; stroke-width: 0.8"/>
      </g>
     </g>
     <g id="text_12">
      <!-- 200 -->
      <g transform="translate(31.5125 248.468227) scale(0.1 -0.1)">
       <use xlink:href="#DejaVuSans-32"/>
       <use xlink:href="#DejaVuSans-30" x="63.623047"/>
       <use xlink:href="#DejaVuSans-30" x="127.246094"/>
      </g>
     </g>
    </g>
    <g id="ytick_4">
     <g id="line2d_12">
      <g>
       <use xlink:href="#mfc4c0c4a8b" x="57.6" y="213.538512" style="stroke: #000000; stroke-width: 0.8"/>
      </g>
     </g>
     <g id="text_13">
      <!-- 300 -->
      <g transform="translate(31.5125 217.337731) scale(0.1 -0.1)">
       <use xlink:href="#DejaVuSans-33"/>
       <use xlink:href="#DejaVuSans-30" x="63.623047"/>
       <use xlink:href="#DejaVuSans-30" x="127.246094"/>
      </g>
     </g>
    </g>
    <g id="ytick_5">
     <g id="line2d_13">
      <g>
       <use xlink:href="#mfc4c0c4a8b" x="57.6" y="182.408017" style="stroke: #000000; stroke-width: 0.8"/>
      </g>
     </g>
     <g id="text_14">
      <!-- 400 -->
      <g transform="translate(31.5125 186.207235) scale(0.1 -0.1)">
       <use xlink:href="#DejaVuSans-34"/>
       <use xlink:href="#DejaVuSans-30" x="63.623047"/>
       <use xlink:href="#DejaVuSans-30" x="127.246094"/>
      </g>
     </g>
    </g>
    <g id="ytick_6">
     <g id="line2d_14">
      <g>
       <use xlink:href="#mfc4c0c4a8b" x="57.6" y="151.277521" style="stroke: #000000; stroke-width: 0.8"/>
      </g>
     </g>
     <g id="text_15">
      <!-- 500 -->
      <g transform="translate(31.5125 155.07674) scale(0.1 -0.1)">
       <use xlink:href="#DejaVuSans-35"/>
       <use xlink:href="#DejaVuSans-30" x="63.623047"/>
       <use xlink:href="#DejaVuSans-30" x="127.246094"/>
      </g>
     </g>
    </g>
    <g id="ytick_7">
     <g id="line2d_15">
      <g>
       <use xlink:href="#mfc4c0c4a8b" x="57.6" y="120.147025" style="stroke: #000000; stroke-width: 0.8"/>
      </g>
     </g>
     <g id="text_16">
      <!-- 600 -->
      <g transform="translate(31.5125 123.946244) scale(0.1 -0.1)">
       <use xlink:href="#DejaVuSans-36"/>
       <use xlink:href="#DejaVuSans-30" x="63.623047"/>
       <use xlink:href="#DejaVuSans-30" x="127.246094"/>
      </g>
     </g>
    </g>
    <g id="ytick_8">
     <g id="line2d_16">
      <g>
       <use xlink:href="#mfc4c0c4a8b" x="57.6" y="89.016529" style="stroke: #000000; stroke-width: 0.8"/>
      </g>
     </g>
     <g id="text_17">
      <!-- 700 -->
      <g transform="translate(31.5125 92.815748) scale(0.1 -0.1)">
       <use xlink:href="#DejaVuSans-37"/>
       <use xlink:href="#DejaVuSans-30" x="63.623047"/>
       <use xlink:href="#DejaVuSans-30" x="127.246094"/>
      </g>
     </g>
    </g>
    <g id="ytick_9">
     <g id="line2d_17">
      <g>
       <use xlink:href="#mfc4c0c4a8b" x="57.6" y="57.886034" style="stroke: #000000; stroke-width: 0.8"/>
      </g>
     </g>
     <g id="text_18">
      <!-- 800 -->
      <g transform="translate(31.5125 61.685253) scale(0.1 -0.1)">
       <defs>
        <path id="DejaVuSans-38" d="M 2034 2216 
Q 1584 2216 1326 1975 
Q 1069 1734 1069 1313 
Q 1069 891 1326 650 
Q 1584 409 2034 409 
Q 2484 409 2743 651 
Q 3003 894 3003 1313 
Q 3003 1734 2745 1975 
Q 2488 2216 2034 2216 
z
M 1403 2484 
Q 997 2584 770 2862 
Q 544 3141 544 3541 
Q 544 4100 942 4425 
Q 1341 4750 2034 4750 
Q 2731 4750 3128 4425 
Q 3525 4100 3525 3541 
Q 3525 3141 3298 2862 
Q 3072 2584 2669 2484 
Q 3125 2378 3379 2068 
Q 3634 1759 3634 1313 
Q 3634 634 3220 271 
Q 2806 -91 2034 -91 
Q 1263 -91 848 271 
Q 434 634 434 1313 
Q 434 1759 690 2068 
Q 947 2378 1403 2484 
z
M 1172 3481 
Q 1172 3119 1398 2916 
Q 1625 2713 2034 2713 
Q 2441 2713 2670 2916 
Q 2900 3119 2900 3481 
Q 2900 3844 2670 4047 
Q 2441 4250 2034 4250 
Q 1625 4250 1398 4047 
Q 1172 3844 1172 3481 
z
" transform="scale(0.015625)"/>
       </defs>
       <use xlink:href="#DejaVuSans-38"/>
       <use xlink:href="#DejaVuSans-30" x="63.623047"/>
       <use xlink:href="#DejaVuSans-30" x="127.246094"/>
      </g>
     </g>
    </g>
    <g id="text_19">
     <!-- GFLOPS -->
     <g transform="translate(25.432812 194.007688) rotate(-90) scale(0.1 -0.1)">
      <defs>
       <path id="DejaVuSans-47" d="M 3809 666 
L 3809 1919 
L 2778 1919 
L 2778 2438 
L 4434 2438 
L 4434 434 
Q 4069 175 3628 42 
Q 3188 -91 2688 -91 
Q 1594 -91 976 548 
Q 359 1188 359 2328 
Q 359 3472 976 4111 
Q 1594 4750 2688 4750 
Q 3144 4750 3555 4637 
Q 3966 4525 4313 4306 
L 4313 3634 
Q 3963 3931 3569 4081 
Q 3175 4231 2741 4231 
Q 1884 4231 1454 3753 
Q 1025 3275 1025 2328 
Q 1025 1384 1454 906 
Q 1884 428 2741 428 
Q 3075 428 3337 486 
Q 3600 544 3809 666 
z
" transform="scale(0.015625)"/>
       <path id="DejaVuSans-46" d="M 628 4666 
L 3309 4666 
L 3309 4134 
L 1259 4134 
L 1259 2759 
L 3109 2759 
L 3109 2228 
L 1259 2228 
L 1259 0 
L 628 0 
L 628 4666 
z
" transform="scale(0.015625)"/>
       <path id="DejaVuSans-4c" d="M 628 4666 
L 1259 4666 
L 1259 531 
L 3531 531 
L 3531 0 
L 628 0 
L 628 4666 
z
" transform="scale(0.015625)"/>
       <path id="DejaVuSans-4f" d="M 2522 4238 
Q 1834 4238 1429 3725 
Q 1025 3213 1025 2328 
Q 1025 1447 1429 934 
Q 1834 422 2522 422 
Q 3209 422 3611 934 
Q 4013 1447 4013 2328 
Q 4013 3213 3611 3725 
Q 3209 4238 2522 4238 
z
M 2522 4750 
Q 3503 4750 4090 4092 
Q 4678 3434 4678 2328 
Q 4678 1225 4090 567 
Q 3503 -91 2522 -91 
Q 1538 -91 948 565 
Q 359 1222 359 2328 
Q 359 3434 948 4092 
Q 1538 4750 2522 4750 
z
" transform="scale(0.015625)"/>
       <path id="DejaVuSans-50" d="M 1259 4147 
L 1259 2394 
L 2053 2394 
Q 2494 2394 2734 2622 
Q 2975 2850 2975 3272 
Q 2975 3691 2734 3919 
Q 2494 4147 2053 4147 
L 1259 4147 
z
M 628 4666 
L 2053 4666 
Q 2838 4666 3239 4311 
Q 3641 3956 3641 3272 
Q 3641 2581 3239 2228 
Q 2838 1875 2053 1875 
L 1259 1875 
L 1259 0 
L 628 0 
L 628 4666 
z
" transform="scale(0.015625)"/>
       <path id="DejaVuSans-53" d="M 3425 4513 
L 3425 3897 
Q 3066 4069 2747 4153 
Q 2428 4238 2131 4238 
Q 1616 4238 1336 4038 
Q 1056 3838 1056 3469 
Q 1056 3159 1242 3001 
Q 1428 2844 1947 2747 
L 2328 2669 
Q 3034 2534 3370 2195 
Q 3706 1856 3706 1288 
Q 3706 609 3251 259 
Q 2797 -91 1919 -91 
Q 1588 -91 1214 -16 
Q 841 59 441 206 
L 441 856 
Q 825 641 1194 531 
Q 1563 422 1919 422 
Q 2459 422 2753 634 
Q 3047 847 3047 1241 
Q 3047 1584 2836 1778 
Q 2625 1972 2144 2069 
L 1759 2144 
Q 1053 2284 737 2584 
Q 422 2884 422 3419 
Q 422 4038 858 4394 
Q 1294 4750 2059 4750 
Q 2388 4750 2728 4690 
Q 3069 4631 3425 4513 
z
" transform="scale(0.015625)"/>
      </defs>
      <use xlink:href="#DejaVuSans-47"/>
      <use xlink:href="#DejaVuSans-46" x="77.490234"/>
      <use xlink:href="#DejaVuSans-4c" x="135.009766"/>
      <use xlink:href="#DejaVuSans-4f" x="187.097656"/>
      <use xlink:href="#DejaVuSans-50" x="265.808594"/>
      <use xlink:href="#DejaVuSans-53" x="326.111328"/>
     </g>
    </g>
   </g>
   <g id="line2d_18">
    <path d="M 73.832727 272.293263 
L 78.910087 271.285766 
L 87.73061 235.149367 
L 97.88533 258.726266 
L 110.893748 191.821554 
L 121.604384 250.494047 
L 127.64533 171.465323 
" clip-path="url(#p1168c3e414)" style="fill: none; stroke: #1f77b4; stroke-width: 1.5; stroke-linecap: square"/>
   </g>
   <g id="line2d_19">
    <path d="M 73.832727 294.56527 
L 87.73061 275.330363 
L 110.893748 249.052158 
L 127.64533 236.978768 
L 195.355816 181.382856 
L 263.066301 148.912953 
L 330.776787 125.519218 
L 398.487273 87.895738 
" clip-path="url(#p1168c3e414)" style="fill: none; stroke: #ff7f0e; stroke-width: 1.5; stroke-linecap: square"/>
   </g>
   <g id="line2d_20"/>
   <g id="line2d_21"/>
   <g id="patch_3">
    <path d="M 57.6 307.584 
L 57.6 41.472 
" style="fill: none; stroke: #000000; stroke-width: 0.8; stroke-linejoin: miter; stroke-linecap: square"/>
   </g>
   <g id="patch_4">
    <path d="M 414.72 307.584 
L 414.72 41.472 
" style="fill: none; stroke: #000000; stroke-width: 0.8; stroke-linejoin: miter; stroke-linecap: square"/>
   </g>
   <g id="patch_5">
    <path d="M 57.6 307.584 
L 414.72 307.584 
" style="fill: none; stroke: #000000; stroke-width: 0.8; stroke-linejoin: miter; stroke-linecap: square"/>
   </g>
   <g id="patch_6">
    <path d="M 57.6 41.472 
L 414.72 41.472 
" style="fill: none; stroke: #000000; stroke-width: 0.8; stroke-linejoin: miter; stroke-linecap: square"/>
   </g>
   <g id="text_20">
    <path d="M 91.032173 231.111867 
Q 90.36811 231.111867 89.979048 231.566555 
Q 89.591548 232.01968 89.591548 232.810305 
Q 89.591548 233.596242 89.979048 234.054055 
Q 90.36811 234.510305 91.032173 234.510305 
Q 91.696235 234.510305 92.083735 234.054055 
Q 92.471235 233.596242 92.471235 232.810305 
Q 92.471235 232.01968 92.083735 231.566555 
Q 91.696235 231.111867 91.032173 231.111867 
z
M 92.989985 228.01968 
L 92.989985 228.918117 
Q 92.61811 228.743117 92.239985 228.65093 
Q 91.86186 228.55718 91.489985 228.55718 
Q 90.513423 228.55718 89.997798 229.216555 
Q 89.483735 229.87593 89.410298 231.208742 
Q 89.697798 230.783742 90.132173 230.55718 
Q 90.56811 230.330617 91.089985 230.330617 
Q 92.188423 230.330617 92.825923 230.997805 
Q 93.463423 231.66343 93.463423 232.810305 
Q 93.463423 233.933742 92.79936 234.61343 
Q 92.135298 235.291555 91.032173 235.291555 
Q 89.766548 235.291555 89.097798 234.322805 
Q 88.429048 233.352492 88.429048 231.511867 
Q 88.429048 229.783742 89.24936 228.755617 
Q 90.069673 227.727492 91.450923 227.727492 
Q 91.822798 227.727492 92.200923 227.80093 
Q 92.579048 227.874367 92.989985 228.01968 
z
M 97.27104 228.508742 
Q 96.510102 228.508742 96.125727 229.258742 
Q 95.742915 230.00718 95.742915 231.511867 
Q 95.742915 233.010305 96.125727 233.760305 
Q 96.510102 234.510305 97.27104 234.510305 
Q 98.038227 234.510305 98.42104 233.760305 
Q 98.805415 233.010305 98.805415 231.511867 
Q 98.805415 230.00718 98.42104 229.258742 
Q 98.038227 228.508742 97.27104 228.508742 
z
M 97.27104 227.727492 
Q 98.497602 227.727492 99.144477 228.697805 
Q 99.791352 229.666555 99.791352 231.511867 
Q 99.791352 233.352492 99.144477 234.322805 
Q 98.497602 235.291555 97.27104 235.291555 
Q 96.04604 235.291555 95.399165 234.322805 
Q 94.75229 233.352492 94.75229 231.511867 
Q 94.75229 229.666555 95.399165 228.697805 
Q 96.04604 227.727492 97.27104 227.727492 
z
M 103.633345 228.508742 
Q 102.872407 228.508742 102.488032 229.258742 
Q 102.10522 230.00718 102.10522 231.511867 
Q 102.10522 233.010305 102.488032 233.760305 
Q 102.872407 234.510305 103.633345 234.510305 
Q 104.400532 234.510305 104.783345 233.760305 
Q 105.16772 233.010305 105.16772 231.511867 
Q 105.16772 230.00718 104.783345 229.258742 
Q 104.400532 228.508742 103.633345 228.508742 
z
M 103.633345 227.727492 
Q 104.859907 227.727492 105.506782 228.697805 
Q 106.153657 229.666555 106.153657 231.511867 
Q 106.153657 233.352492 105.506782 234.322805 
Q 104.859907 235.291555 103.633345 235.291555 
Q 102.408345 235.291555 101.76147 234.322805 
Q 101.114595 233.352492 101.114595 231.511867 
Q 101.114595 229.666555 101.76147 228.697805 
Q 102.408345 227.727492 103.633345 227.727492 
z
M 109.995649 228.508742 
Q 109.234712 228.508742 108.850337 229.258742 
Q 108.467524 230.00718 108.467524 231.511867 
Q 108.467524 233.010305 108.850337 233.760305 
Q 109.234712 234.510305 109.995649 234.510305 
Q 110.762837 234.510305 111.145649 233.760305 
Q 111.530024 233.010305 111.530024 231.511867 
Q 111.530024 230.00718 111.145649 229.258742 
Q 110.762837 228.508742 109.995649 228.508742 
z
M 109.995649 227.727492 
Q 111.222212 227.727492 111.869087 228.697805 
Q 112.515962 229.666555 112.515962 231.511867 
Q 112.515962 233.352492 111.869087 234.322805 
Q 111.222212 235.291555 109.995649 235.291555 
Q 108.770649 235.291555 108.123774 234.322805 
Q 107.476899 233.352492 107.476899 231.511867 
Q 107.476899 229.666555 108.123774 228.697805 
Q 108.770649 227.727492 109.995649 227.727492 
z
" style="stroke: #ffffff; stroke-width: 4"/>
    <path d="M 91.032173 231.111867 
Q 90.36811 231.111867 89.979048 231.566555 
Q 89.591548 232.01968 89.591548 232.810305 
Q 89.591548 233.596242 89.979048 234.054055 
Q 90.36811 234.510305 91.032173 234.510305 
Q 91.696235 234.510305 92.083735 234.054055 
Q 92.471235 233.596242 92.471235 232.810305 
Q 92.471235 232.01968 92.083735 231.566555 
Q 91.696235 231.111867 91.032173 231.111867 
z
M 92.989985 228.01968 
L 92.989985 228.918117 
Q 92.61811 228.743117 92.239985 228.65093 
Q 91.86186 228.55718 91.489985 228.55718 
Q 90.513423 228.55718 89.997798 229.216555 
Q 89.483735 229.87593 89.410298 231.208742 
Q 89.697798 230.783742 90.132173 230.55718 
Q 90.56811 230.330617 91.089985 230.330617 
Q 92.188423 230.330617 92.825923 230.997805 
Q 93.463423 231.66343 93.463423 232.810305 
Q 93.463423 233.933742 92.79936 234.61343 
Q 92.135298 235.291555 91.032173 235.291555 
Q 89.766548 235.291555 89.097798 234.322805 
Q 88.429048 233.352492 88.429048 231.511867 
Q 88.429048 229.783742 89.24936 228.755617 
Q 90.069673 227.727492 91.450923 227.727492 
Q 91.822798 227.727492 92.200923 227.80093 
Q 92.579048 227.874367 92.989985 228.01968 
z
M 97.27104 228.508742 
Q 96.510102 228.508742 96.125727 229.258742 
Q 95.742915 230.00718 95.742915 231.511867 
Q 95.742915 233.010305 96.125727 233.760305 
Q 96.510102 234.510305 97.27104 234.510305 
Q 98.038227 234.510305 98.42104 233.760305 
Q 98.805415 233.010305 98.805415 231.511867 
Q 98.805415 230.00718 98.42104 229.258742 
Q 98.038227 228.508742 97.27104 228.508742 
z
M 97.27104 227.727492 
Q 98.497602 227.727492 99.144477 228.697805 
Q 99.791352 229.666555 99.791352 231.511867 
Q 99.791352 233.352492 99.144477 234.322805 
Q 98.497602 235.291555 97.27104 235.291555 
Q 96.04604 235.291555 95.399165 234.322805 
Q 94.75229 233.352492 94.75229 231.511867 
Q 94.75229 229.666555 95.399165 228.697805 
Q 96.04604 227.727492 97.27104 227.727492 
z
M 103.633345 228.508742 
Q 102.872407 228.508742 102.488032 229.258742 
Q 102.10522 230.00718 102.10522 231.511867 
Q 102.10522 233.010305 102.488032 233.760305 
Q 102.872407 234.510305 103.633345 234.510305 
Q 104.400532 234.510305 104.783345 233.760305 
Q 105.16772 233.010305 105.16772 231.511867 
Q 105.16772 230.00718 104.783345 229.258742 
Q 104.400532 228.508742 103.633345 228.508742 
z
M 103.633345 227.727492 
Q 104.859907 227.727492 105.506782 228.697805 
Q 106.153657 229.666555 106.153657 231.511867 
Q 106.153657 233.352492 105.506782 234.322805 
Q 104.859907 235.291555 103.633345 235.291555 
Q 102.408345 235.291555 101.76147 234.322805 
Q 101.114595 233.352492 101.114595 231.511867 
Q 101.114595 229.666555 101.76147 228.697805 
Q 102.408345 227.727492 103.633345 227.727492 
z
M 109.995649 228.508742 
Q 109.234712 228.508742 108.850337 229.258742 
Q 108.467524 230.00718 108.467524 231.511867 
Q 108.467524 233.010305 108.850337 233.760305 
Q 109.234712 234.510305 109.995649 234.510305 
Q 110.762837 234.510305 111.145649 233.760305 
Q 111.530024 233.010305 111.530024 231.511867 
Q 111.530024 230.00718 111.145649 229.258742 
Q 110.762837 228.508742 109.995649 228.508742 
z
M 109.995649 227.727492 
Q 111.222212 227.727492 111.869087 228.697805 
Q 112.515962 229.666555 112.515962 231.511867 
Q 112.515962 233.352492 111.869087 234.322805 
Q 111.222212 235.291555 109.995649 235.291555 
Q 108.770649 235.291555 108.123774 234.322805 
Q 107.476899 233.352492 107.476899 231.511867 
Q 107.476899 229.666555 108.123774 228.697805 
Q 108.770649 227.727492 109.995649 227.727492 
z
"/>
   </g>
   <g id="text_21">
    <path d="M 112.134373 190.991867 
L 113.745311 190.991867 
L 113.745311 185.429367 
L 111.992186 185.780929 
L 111.992186 184.882492 
L 113.735936 184.530929 
L 114.721873 184.530929 
L 114.721873 190.991867 
L 116.332811 190.991867 
L 116.332811 191.821554 
L 112.134373 191.821554 
L 112.134373 190.991867 
z
M 118.496678 190.991867 
L 120.107616 190.991867 
L 120.107616 185.429367 
L 118.354491 185.780929 
L 118.354491 184.882492 
L 120.098241 184.530929 
L 121.084178 184.530929 
L 121.084178 190.991867 
L 122.695116 190.991867 
L 122.695116 191.821554 
L 118.496678 191.821554 
L 118.496678 190.991867 
z
M 126.796483 185.180929 
Q 126.035545 185.180929 125.65117 185.930929 
Q 125.268358 186.679367 125.268358 188.184054 
Q 125.268358 189.682492 125.65117 190.432492 
Q 126.035545 191.182492 126.796483 191.182492 
Q 127.56367 191.182492 127.946483 190.432492 
Q 128.330858 189.682492 128.330858 188.184054 
Q 128.330858 186.679367 127.946483 185.930929 
Q 127.56367 185.180929 126.796483 185.180929 
z
M 126.796483 184.399679 
Q 128.023045 184.399679 128.66992 185.369992 
Q 129.316795 186.338742 129.316795 188.184054 
Q 129.316795 190.024679 128.66992 190.994992 
Q 128.023045 191.963742 126.796483 191.963742 
Q 125.571483 191.963742 124.924608 190.994992 
Q 124.277733 190.024679 124.277733 188.184054 
Q 124.277733 186.338742 124.924608 185.369992 
Q 125.571483 184.399679 126.796483 184.399679 
z
M 133.158788 185.180929 
Q 132.39785 185.180929 132.013475 185.930929 
Q 131.630663 186.679367 131.630663 188.184054 
Q 131.630663 189.682492 132.013475 190.432492 
Q 132.39785 191.182492 133.158788 191.182492 
Q 133.925975 191.182492 134.308788 190.432492 
Q 134.693163 189.682492 134.693163 188.184054 
Q 134.693163 186.679367 134.308788 185.930929 
Q 133.925975 185.180929 133.158788 185.180929 
z
M 133.158788 184.399679 
Q 134.38535 184.399679 135.032225 185.369992 
Q 135.6791 186.338742 135.6791 188.184054 
Q 135.6791 190.024679 135.032225 190.994992 
Q 134.38535 191.963742 133.158788 191.963742 
Q 131.933788 191.963742 131.286913 190.994992 
Q 130.640038 190.024679 130.640038 188.184054 
Q 130.640038 186.338742 131.286913 185.369992 
Q 131.933788 184.399679 133.158788 184.399679 
z
M 139.521092 185.180929 
Q 138.760155 185.180929 138.37578 185.930929 
Q 137.992967 186.679367 137.992967 188.184054 
Q 137.992967 189.682492 138.37578 190.432492 
Q 138.760155 191.182492 139.521092 191.182492 
Q 140.28828 191.182492 140.671092 190.432492 
Q 141.055467 189.682492 141.055467 188.184054 
Q 141.055467 186.679367 140.671092 185.930929 
Q 140.28828 185.180929 139.521092 185.180929 
z
M 139.521092 184.399679 
Q 140.747655 184.399679 141.39453 185.369992 
Q 142.041405 186.338742 142.041405 188.184054 
Q 142.041405 190.024679 141.39453 190.994992 
Q 140.747655 191.963742 139.521092 191.963742 
Q 138.296092 191.963742 137.649217 190.994992 
Q 137.002342 190.024679 137.002342 188.184054 
Q 137.002342 186.338742 137.649217 185.369992 
Q 138.296092 184.399679 139.521092 184.399679 
z
" style="stroke: #ffffff; stroke-width: 4"/>
    <path d="M 112.134373 190.991867 
L 113.745311 190.991867 
L 113.745311 185.429367 
L 111.992186 185.780929 
L 111.992186 184.882492 
L 113.735936 184.530929 
L 114.721873 184.530929 
L 114.721873 190.991867 
L 116.332811 190.991867 
L 116.332811 191.821554 
L 112.134373 191.821554 
L 112.134373 190.991867 
z
M 118.496678 190.991867 
L 120.107616 190.991867 
L 120.107616 185.429367 
L 118.354491 185.780929 
L 118.354491 184.882492 
L 120.098241 184.530929 
L 121.084178 184.530929 
L 121.084178 190.991867 
L 122.695116 190.991867 
L 122.695116 191.821554 
L 118.496678 191.821554 
L 118.496678 190.991867 
z
M 126.796483 185.180929 
Q 126.035545 185.180929 125.65117 185.930929 
Q 125.268358 186.679367 125.268358 188.184054 
Q 125.268358 189.682492 125.65117 190.432492 
Q 126.035545 191.182492 126.796483 191.182492 
Q 127.56367 191.182492 127.946483 190.432492 
Q 128.330858 189.682492 128.330858 188.184054 
Q 128.330858 186.679367 127.946483 185.930929 
Q 127.56367 185.180929 126.796483 185.180929 
z
M 126.796483 184.399679 
Q 128.023045 184.399679 128.66992 185.369992 
Q 129.316795 186.338742 129.316795 188.184054 
Q 129.316795 190.024679 128.66992 190.994992 
Q 128.023045 191.963742 126.796483 191.963742 
Q 125.571483 191.963742 124.924608 190.994992 
Q 124.277733 190.024679 124.277733 188.184054 
Q 124.277733 186.338742 124.924608 185.369992 
Q 125.571483 184.399679 126.796483 184.399679 
z
M 133.158788 185.180929 
Q 132.39785 185.180929 132.013475 185.930929 
Q 131.630663 186.679367 131.630663 188.184054 
Q 131.630663 189.682492 132.013475 190.432492 
Q 132.39785 191.182492 133.158788 191.182492 
Q 133.925975 191.182492 134.308788 190.432492 
Q 134.693163 189.682492 134.693163 188.184054 
Q 134.693163 186.679367 134.308788 185.930929 
Q 133.925975 185.180929 133.158788 185.180929 
z
M 133.158788 184.399679 
Q 134.38535 184.399679 135.032225 185.369992 
Q 135.6791 186.338742 135.6791 188.184054 
Q 135.6791 190.024679 135.032225 190.994992 
Q 134.38535 191.963742 133.158788 191.963742 
Q 131.933788 191.963742 131.286913 190.994992 
Q 130.640038 190.024679 130.640038 188.184054 
Q 130.640038 186.338742 131.286913 185.369992 
Q 131.933788 184.399679 133.158788 184.399679 
z
M 139.521092 185.180929 
Q 138.760155 185.180929 138.37578 185.930929 
Q 137.992967 186.679367 137.992967 188.184054 
Q 137.992967 189.682492 138.37578 190.432492 
Q 138.760155 191.182492 139.521092 191.182492 
Q 140.28828 191.182492 140.671092 190.432492 
Q 141.055467 189.682492 141.055467 188.184054 
Q 141.055467 186.679367 140.671092 185.930929 
Q 140.28828 185.180929 139.521092 185.180929 
z
M 139.521092 184.399679 
Q 140.747655 184.399679 141.39453 185.369992 
Q 142.041405 186.338742 142.041405 188.184054 
Q 142.041405 190.024679 141.39453 190.994992 
Q 140.747655 191.963742 139.521092 191.963742 
Q 138.296092 191.963742 137.649217 190.994992 
Q 137.002342 190.024679 137.002342 188.184054 
Q 137.002342 186.338742 137.649217 185.369992 
Q 138.296092 184.399679 139.521092 184.399679 
z
"/>
   </g>
   <g id="text_22">
    <path d="M 101.063455 255.263766 
Q 100.36033 255.263766 99.957205 255.640328 
Q 99.555643 256.016891 99.555643 256.674703 
Q 99.555643 257.334078 99.957205 257.710641 
Q 100.36033 258.087203 101.063455 258.087203 
Q 101.76658 258.087203 102.171268 257.709078 
Q 102.577518 257.329391 102.577518 256.674703 
Q 102.577518 256.016891 102.174393 255.640328 
Q 101.77283 255.263766 101.063455 255.263766 
z
M 100.077518 254.845016 
Q 99.443143 254.688766 99.088455 254.254391 
Q 98.73533 253.818453 98.73533 253.193453 
Q 98.73533 252.320016 99.357205 251.812203 
Q 99.980643 251.304391 101.063455 251.304391 
Q 102.152518 251.304391 102.77283 251.812203 
Q 103.393143 252.320016 103.393143 253.193453 
Q 103.393143 253.818453 103.038455 254.254391 
Q 102.68533 254.688766 102.055643 254.845016 
Q 102.768143 255.010641 103.165018 255.495016 
Q 103.563455 255.977828 103.563455 256.674703 
Q 103.563455 257.735641 102.91658 258.302828 
Q 102.269705 258.868453 101.063455 258.868453 
Q 99.858768 258.868453 99.21033 258.302828 
Q 98.563455 257.735641 98.563455 256.674703 
Q 98.563455 255.977828 98.963455 255.495016 
Q 99.365018 255.010641 100.077518 254.845016 
z
M 99.71658 253.287203 
Q 99.71658 253.852828 100.069705 254.170016 
Q 100.424393 254.487203 101.063455 254.487203 
Q 101.699393 254.487203 102.057205 254.170016 
Q 102.41658 253.852828 102.41658 253.287203 
Q 102.41658 252.720016 102.057205 252.402828 
Q 101.699393 252.085641 101.063455 252.085641 
Q 100.424393 252.085641 100.069705 252.402828 
Q 99.71658 252.720016 99.71658 253.287203 
z
M 105.48826 257.896578 
L 107.099197 257.896578 
L 107.099197 252.334078 
L 105.346072 252.685641 
L 105.346072 251.787203 
L 107.089822 251.435641 
L 108.07576 251.435641 
L 108.07576 257.896578 
L 109.686697 257.896578 
L 109.686697 258.726266 
L 105.48826 258.726266 
L 105.48826 257.896578 
z
M 111.708377 258.574703 
L 111.708377 257.676266 
Q 112.080252 257.852828 112.459939 257.945016 
Q 112.841189 258.037203 113.208377 258.037203 
Q 114.184939 258.037203 114.699002 257.380953 
Q 115.214627 256.724703 115.288064 255.385641 
Q 115.005252 255.805953 114.569314 256.030953 
Q 114.134939 256.255953 113.608377 256.255953 
Q 112.514627 256.255953 111.877127 255.595016 
Q 111.239627 254.932516 111.239627 253.784078 
Q 111.239627 252.662203 111.903689 251.984078 
Q 112.567752 251.304391 113.670877 251.304391 
Q 114.936502 251.304391 115.602127 252.274703 
Q 116.269314 253.243453 116.269314 255.088766 
Q 116.269314 256.812203 115.450564 257.840328 
Q 114.633377 258.868453 113.252127 258.868453 
Q 112.880252 258.868453 112.499002 258.795016 
Q 112.119314 258.721578 111.708377 258.574703 
z
M 113.670877 255.484078 
Q 114.334939 255.484078 114.722439 255.030953 
Q 115.111502 254.576266 115.111502 253.784078 
Q 115.111502 252.998141 114.722439 252.541891 
Q 114.334939 252.085641 113.670877 252.085641 
Q 113.006814 252.085641 112.619314 252.541891 
Q 112.231814 252.998141 112.231814 253.784078 
Q 112.231814 254.576266 112.619314 255.030953 
Q 113.006814 255.484078 113.670877 255.484078 
z
M 118.890994 257.896578 
L 122.333182 257.896578 
L 122.333182 258.726266 
L 117.705057 258.726266 
L 117.705057 257.896578 
Q 118.265994 257.315328 119.234744 256.337203 
Q 120.205057 255.357516 120.453494 255.073141 
Q 120.926932 254.541891 121.114432 254.173141 
Q 121.303494 253.804391 121.303494 253.448141 
Q 121.303494 252.866891 120.895682 252.501266 
Q 120.487869 252.134078 119.833182 252.134078 
Q 119.369119 252.134078 118.853494 252.295016 
Q 118.339432 252.455953 117.753494 252.784078 
L 117.753494 251.787203 
Q 118.348807 251.548141 118.865994 251.426266 
Q 119.384744 251.304391 119.814432 251.304391 
Q 120.947244 251.304391 121.620682 251.871578 
Q 122.294119 252.437203 122.294119 253.384078 
Q 122.294119 253.834078 122.125369 254.237203 
Q 121.958182 254.638766 121.512869 255.185641 
Q 121.390994 255.327828 120.736307 256.004391 
Q 120.083182 256.680953 118.890994 257.896578 
z
" style="stroke: #ffffff; stroke-width: 4"/>
    <path d="M 101.063455 255.263766 
Q 100.36033 255.263766 99.957205 255.640328 
Q 99.555643 256.016891 99.555643 256.674703 
Q 99.555643 257.334078 99.957205 257.710641 
Q 100.36033 258.087203 101.063455 258.087203 
Q 101.76658 258.087203 102.171268 257.709078 
Q 102.577518 257.329391 102.577518 256.674703 
Q 102.577518 256.016891 102.174393 255.640328 
Q 101.77283 255.263766 101.063455 255.263766 
z
M 100.077518 254.845016 
Q 99.443143 254.688766 99.088455 254.254391 
Q 98.73533 253.818453 98.73533 253.193453 
Q 98.73533 252.320016 99.357205 251.812203 
Q 99.980643 251.304391 101.063455 251.304391 
Q 102.152518 251.304391 102.77283 251.812203 
Q 103.393143 252.320016 103.393143 253.193453 
Q 103.393143 253.818453 103.038455 254.254391 
Q 102.68533 254.688766 102.055643 254.845016 
Q 102.768143 255.010641 103.165018 255.495016 
Q 103.563455 255.977828 103.563455 256.674703 
Q 103.563455 257.735641 102.91658 258.302828 
Q 102.269705 258.868453 101.063455 258.868453 
Q 99.858768 258.868453 99.21033 258.302828 
Q 98.563455 257.735641 98.563455 256.674703 
Q 98.563455 255.977828 98.963455 255.495016 
Q 99.365018 255.010641 100.077518 254.845016 
z
M 99.71658 253.287203 
Q 99.71658 253.852828 100.069705 254.170016 
Q 100.424393 254.487203 101.063455 254.487203 
Q 101.699393 254.487203 102.057205 254.170016 
Q 102.41658 253.852828 102.41658 253.287203 
Q 102.41658 252.720016 102.057205 252.402828 
Q 101.699393 252.085641 101.063455 252.085641 
Q 100.424393 252.085641 100.069705 252.402828 
Q 99.71658 252.720016 99.71658 253.287203 
z
M 105.48826 257.896578 
L 107.099197 257.896578 
L 107.099197 252.334078 
L 105.346072 252.685641 
L 105.346072 251.787203 
L 107.089822 251.435641 
L 108.07576 251.435641 
L 108.07576 257.896578 
L 109.686697 257.896578 
L 109.686697 258.726266 
L 105.48826 258.726266 
L 105.48826 257.896578 
z
M 111.708377 258.574703 
L 111.708377 257.676266 
Q 112.080252 257.852828 112.459939 257.945016 
Q 112.841189 258.037203 113.208377 258.037203 
Q 114.184939 258.037203 114.699002 257.380953 
Q 115.214627 256.724703 115.288064 255.385641 
Q 115.005252 255.805953 114.569314 256.030953 
Q 114.134939 256.255953 113.608377 256.255953 
Q 112.514627 256.255953 111.877127 255.595016 
Q 111.239627 254.932516 111.239627 253.784078 
Q 111.239627 252.662203 111.903689 251.984078 
Q 112.567752 251.304391 113.670877 251.304391 
Q 114.936502 251.304391 115.602127 252.274703 
Q 116.269314 253.243453 116.269314 255.088766 
Q 116.269314 256.812203 115.450564 257.840328 
Q 114.633377 258.868453 113.252127 258.868453 
Q 112.880252 258.868453 112.499002 258.795016 
Q 112.119314 258.721578 111.708377 258.574703 
z
M 113.670877 255.484078 
Q 114.334939 255.484078 114.722439 255.030953 
Q 115.111502 254.576266 115.111502 253.784078 
Q 115.111502 252.998141 114.722439 252.541891 
Q 114.334939 252.085641 113.670877 252.085641 
Q 113.006814 252.085641 112.619314 252.541891 
Q 112.231814 252.998141 112.231814 253.784078 
Q 112.231814 254.576266 112.619314 255.030953 
Q 113.006814 255.484078 113.670877 255.484078 
z
M 118.890994 257.896578 
L 122.333182 257.896578 
L 122.333182 258.726266 
L 117.705057 258.726266 
L 117.705057 257.896578 
Q 118.265994 257.315328 119.234744 256.337203 
Q 120.205057 255.357516 120.453494 255.073141 
Q 120.926932 254.541891 121.114432 254.173141 
Q 121.303494 253.804391 121.303494 253.448141 
Q 121.303494 252.866891 120.895682 252.501266 
Q 120.487869 252.134078 119.833182 252.134078 
Q 119.369119 252.134078 118.853494 252.295016 
Q 118.339432 252.455953 117.753494 252.784078 
L 117.753494 251.787203 
Q 118.348807 251.548141 118.865994 251.426266 
Q 119.384744 251.304391 119.814432 251.304391 
Q 120.947244 251.304391 121.620682 251.871578 
Q 122.294119 252.437203 122.294119 253.384078 
Q 122.294119 253.834078 122.125369 254.237203 
Q 121.958182 254.638766 121.512869 255.185641 
Q 121.390994 255.327828 120.736307 256.004391 
Q 120.083182 256.680953 118.890994 257.896578 
z
"/>
   </g>
   <g id="text_23">
    <path d="M 122.845009 249.664359 
L 124.455946 249.664359 
L 124.455946 244.101859 
L 122.702821 244.453422 
L 122.702821 243.554984 
L 124.446571 243.203422 
L 125.432509 243.203422 
L 125.432509 249.664359 
L 127.043446 249.664359 
L 127.043446 250.494047 
L 122.845009 250.494047 
L 122.845009 249.664359 
z
M 132.024501 246.562797 
Q 132.732313 246.714359 133.129188 247.194047 
Q 133.527626 247.672172 133.527626 248.375297 
Q 133.527626 249.453422 132.785438 250.045609 
Q 132.043251 250.636234 130.676063 250.636234 
Q 130.218251 250.636234 129.732313 250.545609 
Q 129.246376 250.454984 128.729188 250.273734 
L 128.729188 249.322172 
Q 129.138563 249.561234 129.626063 249.683109 
Q 130.115126 249.804984 130.647938 249.804984 
Q 131.574501 249.804984 132.060438 249.439359 
Q 132.546376 249.073734 132.546376 248.375297 
Q 132.546376 247.729984 132.094813 247.367484 
Q 131.643251 247.003422 130.838563 247.003422 
L 129.988563 247.003422 
L 129.988563 246.192484 
L 130.877626 246.192484 
Q 131.604188 246.192484 131.990126 245.901859 
Q 132.376063 245.611234 132.376063 245.064359 
Q 132.376063 244.503422 131.977626 244.203422 
Q 131.580751 243.901859 130.838563 243.901859 
Q 130.432313 243.901859 129.968251 243.990922 
Q 129.504188 244.078422 128.947938 244.262797 
L 128.947938 243.384672 
Q 129.510438 243.228422 130.001063 243.150297 
Q 130.491688 243.072172 130.926063 243.072172 
Q 132.049501 243.072172 132.702626 243.583109 
Q 133.357313 244.092484 133.357313 244.961234 
Q 133.357313 245.567484 133.010438 245.984672 
Q 132.663563 246.401859 132.024501 246.562797 
z
M 138.386805 246.562797 
Q 139.094618 246.714359 139.491493 247.194047 
Q 139.88993 247.672172 139.88993 248.375297 
Q 139.88993 249.453422 139.147743 250.045609 
Q 138.405555 250.636234 137.038368 250.636234 
Q 136.580555 250.636234 136.094618 250.545609 
Q 135.60868 250.454984 135.091493 250.273734 
L 135.091493 249.322172 
Q 135.500868 249.561234 135.988368 249.683109 
Q 136.47743 249.804984 137.010243 249.804984 
Q 137.936805 249.804984 138.422743 249.439359 
Q 138.90868 249.073734 138.90868 248.375297 
Q 138.90868 247.729984 138.457118 247.367484 
Q 138.005555 247.003422 137.200868 247.003422 
L 136.350868 247.003422 
L 136.350868 246.192484 
L 137.23993 246.192484 
Q 137.966493 246.192484 138.35243 245.901859 
Q 138.738368 245.611234 138.738368 245.064359 
Q 138.738368 244.503422 138.33993 244.203422 
Q 137.943055 243.901859 137.200868 243.901859 
Q 136.794618 243.901859 136.330555 243.990922 
Q 135.866493 244.078422 135.310243 244.262797 
L 135.310243 243.384672 
Q 135.872743 243.228422 136.363368 243.150297 
Q 136.853993 243.072172 137.288368 243.072172 
Q 138.411805 243.072172 139.06493 243.583109 
Q 139.719618 244.092484 139.719618 244.961234 
Q 139.719618 245.567484 139.372743 245.984672 
Q 139.025868 246.401859 138.386805 246.562797 
z
M 141.931923 249.664359 
L 143.54286 249.664359 
L 143.54286 244.101859 
L 141.789735 244.453422 
L 141.789735 243.554984 
L 143.533485 243.203422 
L 144.519423 243.203422 
L 144.519423 249.664359 
L 146.13036 249.664359 
L 146.13036 250.494047 
L 141.931923 250.494047 
L 141.931923 249.664359 
z
M 148.972352 249.664359 
L 152.41454 249.664359 
L 152.41454 250.494047 
L 147.786415 250.494047 
L 147.786415 249.664359 
Q 148.347352 249.083109 149.316102 248.104984 
Q 150.286415 247.125297 150.534852 246.840922 
Q 151.00829 246.309672 151.19579 245.940922 
Q 151.384852 245.572172 151.384852 245.215922 
Q 151.384852 244.634672 150.97704 244.269047 
Q 150.569227 243.901859 149.91454 243.901859 
Q 149.450477 243.901859 148.934852 244.062797 
Q 148.42079 244.223734 147.834852 244.551859 
L 147.834852 243.554984 
Q 148.430165 243.315922 148.947352 243.194047 
Q 149.466102 243.072172 149.89579 243.072172 
Q 151.028602 243.072172 151.70204 243.639359 
Q 152.375477 244.204984 152.375477 245.151859 
Q 152.375477 245.601859 152.206727 246.004984 
Q 152.03954 246.406547 151.594227 246.953422 
Q 151.472352 247.095609 150.817665 247.772172 
Q 150.16454 248.448734 148.972352 249.664359 
z
" style="stroke: #ffffff; stroke-width: 4"/>
    <path d="M 122.845009 249.664359 
L 124.455946 249.664359 
L 124.455946 244.101859 
L 122.702821 244.453422 
L 122.702821 243.554984 
L 124.446571 243.203422 
L 125.432509 243.203422 
L 125.432509 249.664359 
L 127.043446 249.664359 
L 127.043446 250.494047 
L 122.845009 250.494047 
L 122.845009 249.664359 
z
M 132.024501 246.562797 
Q 132.732313 246.714359 133.129188 247.194047 
Q 133.527626 247.672172 133.527626 248.375297 
Q 133.527626 249.453422 132.785438 250.045609 
Q 132.043251 250.636234 130.676063 250.636234 
Q 130.218251 250.636234 129.732313 250.545609 
Q 129.246376 250.454984 128.729188 250.273734 
L 128.729188 249.322172 
Q 129.138563 249.561234 129.626063 249.683109 
Q 130.115126 249.804984 130.647938 249.804984 
Q 131.574501 249.804984 132.060438 249.439359 
Q 132.546376 249.073734 132.546376 248.375297 
Q 132.546376 247.729984 132.094813 247.367484 
Q 131.643251 247.003422 130.838563 247.003422 
L 129.988563 247.003422 
L 129.988563 246.192484 
L 130.877626 246.192484 
Q 131.604188 246.192484 131.990126 245.901859 
Q 132.376063 245.611234 132.376063 245.064359 
Q 132.376063 244.503422 131.977626 244.203422 
Q 131.580751 243.901859 130.838563 243.901859 
Q 130.432313 243.901859 129.968251 243.990922 
Q 129.504188 244.078422 128.947938 244.262797 
L 128.947938 243.384672 
Q 129.510438 243.228422 130.001063 243.150297 
Q 130.491688 243.072172 130.926063 243.072172 
Q 132.049501 243.072172 132.702626 243.583109 
Q 133.357313 244.092484 133.357313 244.961234 
Q 133.357313 245.567484 133.010438 245.984672 
Q 132.663563 246.401859 132.024501 246.562797 
z
M 138.386805 246.562797 
Q 139.094618 246.714359 139.491493 247.194047 
Q 139.88993 247.672172 139.88993 248.375297 
Q 139.88993 249.453422 139.147743 250.045609 
Q 138.405555 250.636234 137.038368 250.636234 
Q 136.580555 250.636234 136.094618 250.545609 
Q 135.60868 250.454984 135.091493 250.273734 
L 135.091493 249.322172 
Q 135.500868 249.561234 135.988368 249.683109 
Q 136.47743 249.804984 137.010243 249.804984 
Q 137.936805 249.804984 138.422743 249.439359 
Q 138.90868 249.073734 138.90868 248.375297 
Q 138.90868 247.729984 138.457118 247.367484 
Q 138.005555 247.003422 137.200868 247.003422 
L 136.350868 247.003422 
L 136.350868 246.192484 
L 137.23993 246.192484 
Q 137.966493 246.192484 138.35243 245.901859 
Q 138.738368 245.611234 138.738368 245.064359 
Q 138.738368 244.503422 138.33993 244.203422 
Q 137.943055 243.901859 137.200868 243.901859 
Q 136.794618 243.901859 136.330555 243.990922 
Q 135.866493 244.078422 135.310243 244.262797 
L 135.310243 243.384672 
Q 135.872743 243.228422 136.363368 243.150297 
Q 136.853993 243.072172 137.288368 243.072172 
Q 138.411805 243.072172 139.06493 243.583109 
Q 139.719618 244.092484 139.719618 244.961234 
Q 139.719618 245.567484 139.372743 245.984672 
Q 139.025868 246.401859 138.386805 246.562797 
z
M 141.931923 249.664359 
L 143.54286 249.664359 
L 143.54286 244.101859 
L 141.789735 244.453422 
L 141.789735 243.554984 
L 143.533485 243.203422 
L 144.519423 243.203422 
L 144.519423 249.664359 
L 146.13036 249.664359 
L 146.13036 250.494047 
L 141.931923 250.494047 
L 141.931923 249.664359 
z
M 148.972352 249.664359 
L 152.41454 249.664359 
L 152.41454 250.494047 
L 147.786415 250.494047 
L 147.786415 249.664359 
Q 148.347352 249.083109 149.316102 248.104984 
Q 150.286415 247.125297 150.534852 246.840922 
Q 151.00829 246.309672 151.19579 245.940922 
Q 151.384852 245.572172 151.384852 245.215922 
Q 151.384852 244.634672 150.97704 244.269047 
Q 150.569227 243.901859 149.91454 243.901859 
Q 149.450477 243.901859 148.934852 244.062797 
Q 148.42079 244.223734 147.834852 244.551859 
L 147.834852 243.554984 
Q 148.430165 243.315922 148.947352 243.194047 
Q 149.466102 243.072172 149.89579 243.072172 
Q 151.028602 243.072172 151.70204 243.639359 
Q 152.375477 244.204984 152.375477 245.151859 
Q 152.375477 245.601859 152.206727 246.004984 
Q 152.03954 246.406547 151.594227 246.953422 
Q 151.472352 247.095609 150.817665 247.772172 
Q 150.16454 248.448734 148.972352 249.664359 
z
"/>
   </g>
   <g id="text_24">
    <!-- Performance vs Problem Size -->
    <g transform="translate(148.899375 35.472) scale(0.12 -0.12)">
     <defs>
      <path id="DejaVuSans-65" d="M 3597 1894 
L 3597 1613 
L 953 1613 
Q 991 1019 1311 708 
Q 1631 397 2203 397 
Q 2534 397 2845 478 
Q 3156 559 3463 722 
L 3463 178 
Q 3153 47 2828 -22 
Q 2503 -91 2169 -91 
Q 1331 -91 842 396 
Q 353 884 353 1716 
Q 353 2575 817 3079 
Q 1281 3584 2069 3584 
Q 2775 3584 3186 3129 
Q 3597 2675 3597 1894 
z
M 3022 2063 
Q 3016 2534 2758 2815 
Q 2500 3097 2075 3097 
Q 1594 3097 1305 2825 
Q 1016 2553 972 2059 
L 3022 2063 
z
" transform="scale(0.015625)"/>
      <path id="DejaVuSans-72" d="M 2631 2963 
Q 2534 3019 2420 3045 
Q 2306 3072 2169 3072 
Q 1681 3072 1420 2755 
Q 1159 2438 1159 1844 
L 1159 0 
L 581 0 
L 581 3500 
L 1159 3500 
L 1159 2956 
Q 1341 3275 1631 3429 
Q 1922 3584 2338 3584 
Q 2397 3584 2469 3576 
Q 2541 3569 2628 3553 
L 2631 2963 
z
" transform="scale(0.015625)"/>
      <path id="DejaVuSans-66" d="M 2375 4863 
L 2375 4384 
L 1825 4384 
Q 1516 4384 1395 4259 
Q 1275 4134 1275 3809 
L 1275 3500 
L 2222 3500 
L 2222 3053 
L 1275 3053 
L 1275 0 
L 697 0 
L 697 3053 
L 147 3053 
L 147 3500 
L 697 3500 
L 697 3744 
Q 697 4328 969 4595 
Q 1241 4863 1831 4863 
L 2375 4863 
z
" transform="scale(0.015625)"/>
      <path id="DejaVuSans-6f" d="M 1959 3097 
Q 1497 3097 1228 2736 
Q 959 2375 959 1747 
Q 959 1119 1226 758 
Q 1494 397 1959 397 
Q 2419 397 2687 759 
Q 2956 1122 2956 1747 
Q 2956 2369 2687 2733 
Q 2419 3097 1959 3097 
z
M 1959 3584 
Q 2709 3584 3137 3096 
Q 3566 2609 3566 1747 
Q 3566 888 3137 398 
Q 2709 -91 1959 -91 
Q 1206 -91 779 398 
Q 353 888 353 1747 
Q 353 2609 779 3096 
Q 1206 3584 1959 3584 
z
" transform="scale(0.015625)"/>
      <path id="DejaVuSans-6d" d="M 3328 2828 
Q 3544 3216 3844 3400 
Q 4144 3584 4550 3584 
Q 5097 3584 5394 3201 
Q 5691 2819 5691 2113 
L 5691 0 
L 5113 0 
L 5113 2094 
Q 5113 2597 4934 2840 
Q 4756 3084 4391 3084 
Q 3944 3084 3684 2787 
Q 3425 2491 3425 1978 
L 3425 0 
L 2847 0 
L 2847 2094 
Q 2847 2600 2669 2842 
Q 2491 3084 2119 3084 
Q 1678 3084 1418 2786 
Q 1159 2488 1159 1978 
L 1159 0 
L 581 0 
L 581 3500 
L 1159 3500 
L 1159 2956 
Q 1356 3278 1631 3431 
Q 1906 3584 2284 3584 
Q 2666 3584 2933 3390 
Q 3200 3197 3328 2828 
z
" transform="scale(0.015625)"/>
      <path id="DejaVuSans-61" d="M 2194 1759 
Q 1497 1759 1228 1600 
Q 959 1441 959 1056 
Q 959 750 1161 570 
Q 1363 391 1709 391 
Q 2188 391 2477 730 
Q 2766 1069 2766 1631 
L 2766 1759 
L 2194 1759 
z
M 3341 1997 
L 3341 0 
L 2766 0 
L 2766 531 
Q 2569 213 2275 61 
Q 1981 -91 1556 -91 
Q 1019 -91 701 211 
Q 384 513 384 1019 
Q 384 1609 779 1909 
Q 1175 2209 1959 2209 
L 2766 2209 
L 2766 2266 
Q 2766 2663 2505 2880 
Q 2244 3097 1772 3097 
Q 1472 3097 1187 3025 
Q 903 2953 641 2809 
L 641 3341 
Q 956 3463 1253 3523 
Q 1550 3584 1831 3584 
Q 2591 3584 2966 3190 
Q 3341 2797 3341 1997 
z
" transform="scale(0.015625)"/>
      <path id="DejaVuSans-6e" d="M 3513 2113 
L 3513 0 
L 2938 0 
L 2938 2094 
Q 2938 2591 2744 2837 
Q 2550 3084 2163 3084 
Q 1697 3084 1428 2787 
Q 1159 2491 1159 1978 
L 1159 0 
L 581 0 
L 581 3500 
L 1159 3500 
L 1159 2956 
Q 1366 3272 1645 3428 
Q 1925 3584 2291 3584 
Q 2894 3584 3203 3211 
Q 3513 2838 3513 2113 
z
" transform="scale(0.015625)"/>
      <path id="DejaVuSans-63" d="M 3122 3366 
L 3122 2828 
Q 2878 2963 2633 3030 
Q 2388 3097 2138 3097 
Q 1578 3097 1268 2742 
Q 959 2388 959 1747 
Q 959 1106 1268 751 
Q 1578 397 2138 397 
Q 2388 397 2633 464 
Q 2878 531 3122 666 
L 3122 134 
Q 2881 22 2623 -34 
Q 2366 -91 2075 -91 
Q 1284 -91 818 406 
Q 353 903 353 1747 
Q 353 2603 823 3093 
Q 1294 3584 2113 3584 
Q 2378 3584 2631 3529 
Q 2884 3475 3122 3366 
z
" transform="scale(0.015625)"/>
      <path id="DejaVuSans-20" transform="scale(0.015625)"/>
      <path id="DejaVuSans-76" d="M 191 3500 
L 800 3500 
L 1894 563 
L 2988 3500 
L 3597 3500 
L 2284 0 
L 1503 0 
L 191 3500 
z
" transform="scale(0.015625)"/>
      <path id="DejaVuSans-73" d="M 2834 3397 
L 2834 2853 
Q 2591 2978 2328 3040 
Q 2066 3103 1784 3103 
Q 1356 3103 1142 2972 
Q 928 2841 928 2578 
Q 928 2378 1081 2264 
Q 1234 2150 1697 2047 
L 1894 2003 
Q 2506 1872 2764 1633 
Q 3022 1394 3022 966 
Q 3022 478 2636 193 
Q 2250 -91 1575 -91 
Q 1294 -91 989 -36 
Q 684 19 347 128 
L 347 722 
Q 666 556 975 473 
Q 1284 391 1588 391 
Q 1994 391 2212 530 
Q 2431 669 2431 922 
Q 2431 1156 2273 1281 
Q 2116 1406 1581 1522 
L 1381 1569 
Q 847 1681 609 1914 
Q 372 2147 372 2553 
Q 372 3047 722 3315 
Q 1072 3584 1716 3584 
Q 2034 3584 2315 3537 
Q 2597 3491 2834 3397 
z
" transform="scale(0.015625)"/>
      <path id="DejaVuSans-62" d="M 3116 1747 
Q 3116 2381 2855 2742 
Q 2594 3103 2138 3103 
Q 1681 3103 1420 2742 
Q 1159 2381 1159 1747 
Q 1159 1113 1420 752 
Q 1681 391 2138 391 
Q 2594 391 2855 752 
Q 3116 1113 3116 1747 
z
M 1159 2969 
Q 1341 3281 1617 3432 
Q 1894 3584 2278 3584 
Q 2916 3584 3314 3078 
Q 3713 2572 3713 1747 
Q 3713 922 3314 415 
Q 2916 -91 2278 -91 
Q 1894 -91 1617 61 
Q 1341 213 1159 525 
L 1159 0 
L 581 0 
L 581 4863 
L 1159 4863 
L 1159 2969 
z
" transform="scale(0.015625)"/>
      <path id="DejaVuSans-6c" d="M 603 4863 
L 1178 4863 
L 1178 0 
L 603 0 
L 603 4863 
z
" transform="scale(0.015625)"/>
      <path id="DejaVuSans-69" d="M 603 3500 
L 1178 3500 
L 1178 0 
L 603 0 
L 603 3500 
z
M 603 4863 
L 1178 4863 
L 1178 4134 
L 603 4134 
L 603 4863 
z
" transform="scale(0.015625)"/>
      <path id="DejaVuSans-7a" d="M 353 3500 
L 3084 3500 
L 3084 2975 
L 922 459 
L 3084 459 
L 3084 0 
L 275 0 
L 275 525 
L 2438 3041 
L 353 3041 
L 353 3500 
z
" transform="scale(0.015625)"/>
     </defs>
     <use xlink:href="#DejaVuSans-50"/>
     <use xlink:href="#DejaVuSans-65" x="56.677734"/>
     <use xlink:href="#DejaVuSans-72" x="118.201172"/>
     <use xlink:href="#DejaVuSans-66" x="159.314453"/>
     <use xlink:href="#DejaVuSans-6f" x="194.519531"/>
     <use xlink:href="#DejaVuSans-72" x="255.701172"/>
     <use xlink:href="#DejaVuSans-6d" x="295.064453"/>
     <use xlink:href="#DejaVuSans-61" x="392.476562"/>
     <use xlink:href="#DejaVuSans-6e" x="453.755859"/>
     <use xlink:href="#DejaVuSans-63" x="517.134766"/>
     <use xlink:href="#DejaVuSans-65" x="572.115234"/>
     <use xlink:href="#DejaVuSans-20" x="633.638672"/>
     <use xlink:href="#DejaVuSans-76" x="665.425781"/>
     <use xlink:href="#DejaVuSans-73" x="724.605469"/>
     <use xlink:href="#DejaVuSans-20" x="776.705078"/>
     <use xlink:href="#DejaVuSans-50" x="808.492188"/>
     <use xlink:href="#DejaVuSans-72" x="867.044922"/>
     <use xlink:href="#DejaVuSans-6f" x="905.908203"/>
     <use xlink:href="#DejaVuSans-62" x="967.089844"/>
     <use xlink:href="#DejaVuSans-6c" x="1030.566406"/>
     <use xlink:href="#DejaVuSans-65" x="1058.349609"/>
     <use xlink:href="#DejaVuSans-6d" x="1119.873047"/>
     <use xlink:href="#DejaVuSans-20" x="1217.285156"/>
     <use xlink:href="#DejaVuSans-53" x="1249.072266"/>
     <use xlink:href="#DejaVuSans-69" x="1312.548828"/>
     <use xlink:href="#DejaVuSans-7a" x="1340.332031"/>
     <use xlink:href="#DejaVuSans-65" x="1392.822266"/>
    </g>
   </g>
   <g id="legend_1">
    <g id="patch_7">
     <path d="M 64.6 93.506375 
L 138.173438 93.506375 
Q 140.173438 93.506375 140.173438 91.506375 
L 140.173438 48.472 
Q 140.173438 46.472 138.173438 46.472 
L 64.6 46.472 
Q 62.6 46.472 62.6 48.472 
L 62.6 91.506375 
Q 62.6 93.506375 64.6 93.506375 
z
" style="fill: #ffffff; opacity: 0.8; stroke: #cccccc; stroke-linejoin: miter"/>
    </g>
    <g id="text_25">
     <!-- Cluster -->
     <g transform="translate(83.640625 58.070438) scale(0.1 -0.1)">
      <defs>
       <path id="DejaVuSans-43" d="M 4122 4306 
L 4122 3641 
Q 3803 3938 3442 4084 
Q 3081 4231 2675 4231 
Q 1875 4231 1450 3742 
Q 1025 3253 1025 2328 
Q 1025 1406 1450 917 
Q 1875 428 2675 428 
Q 3081 428 3442 575 
Q 3803 722 4122 1019 
L 4122 359 
Q 3791 134 3420 21 
Q 3050 -91 2638 -91 
Q 1578 -91 968 557 
Q 359 1206 359 2328 
Q 359 3453 968 4101 
Q 1578 4750 2638 4750 
Q 3056 4750 3426 4639 
Q 3797 4528 4122 4306 
z
" transform="scale(0.015625)"/>
       <path id="DejaVuSans-75" d="M 544 1381 
L 544 3500 
L 1119 3500 
L 1119 1403 
Q 1119 906 1312 657 
Q 1506 409 1894 409 
Q 2359 409 2629 706 
Q 2900 1003 2900 1516 
L 2900 3500 
L 3475 3500 
L 3475 0 
L 2900 0 
L 2900 538 
Q 2691 219 2414 64 
Q 2138 -91 1772 -91 
Q 1169 -91 856 284 
Q 544 659 544 1381 
z
M 1991 3584 
L 1991 3584 
z
" transform="scale(0.015625)"/>
       <path id="DejaVuSans-74" d="M 1172 4494 
L 1172 3500 
L 2356 3500 
L 2356 3053 
L 1172 3053 
L 1172 1153 
Q 1172 725 1289 603 
Q 1406 481 1766 481 
L 2356 481 
L 2356 0 
L 1766 0 
Q 1100 0 847 248 
Q 594 497 594 1153 
L 594 3053 
L 172 3053 
L 172 3500 
L 594 3500 
L 594 4494 
L 1172 4494 
z
" transform="scale(0.015625)"/>
      </defs>
      <use xlink:href="#DejaVuSans-43"/>
      <use xlink:href="#DejaVuSans-6c" x="69.824219"/>
      <use xlink:href="#DejaVuSans-75" x="97.607422"/>
      <use xlink:href="#DejaVuSans-73" x="160.986328"/>
      <use xlink:href="#DejaVuSans-74" x="213.085938"/>
      <use xlink:href="#DejaVuSans-65" x="252.294922"/>
      <use xlink:href="#DejaVuSans-72" x="313.818359"/>
     </g>
    </g>
    <g id="line2d_22">
     <path d="M 66.6 69.248563 
L 76.6 69.248563 
L 86.6 69.248563 
" style="fill: none; stroke: #1f77b4; stroke-width: 1.5; stroke-linecap: square"/>
    </g>
    <g id="text_26">
     <!-- Hopper -->
     <g transform="translate(94.6 72.748563) scale(0.1 -0.1)">
      <defs>
       <path id="DejaVuSans-48" d="M 628 4666 
L 1259 4666 
L 1259 2753 
L 3553 2753 
L 3553 4666 
L 4184 4666 
L 4184 0 
L 3553 0 
L 3553 2222 
L 1259 2222 
L 1259 0 
L 628 0 
L 628 4666 
z
" transform="scale(0.015625)"/>
       <path id="DejaVuSans-70" d="M 1159 525 
L 1159 -1331 
L 581 -1331 
L 581 3500 
L 1159 3500 
L 1159 2969 
Q 1341 3281 1617 3432 
Q 1894 3584 2278 3584 
Q 2916 3584 3314 3078 
Q 3713 2572 3713 1747 
Q 3713 922 3314 415 
Q 2916 -91 2278 -91 
Q 1894 -91 1617 61 
Q 1341 213 1159 525 
z
M 3116 1747 
Q 3116 2381 2855 2742 
Q 2594 3103 2138 3103 
Q 1681 3103 1420 2742 
Q 1159 2381 1159 1747 
Q 1159 1113 1420 752 
Q 1681 391 2138 391 
Q 2594 391 2855 752 
Q 3116 1113 3116 1747 
z
" transform="scale(0.015625)"/>
      </defs>
      <use xlink:href="#DejaVuSans-48"/>
      <use xlink:href="#DejaVuSans-6f" x="75.195312"/>
      <use xlink:href="#DejaVuSans-70" x="136.376953"/>
      <use xlink:href="#DejaVuSans-70" x="199.853516"/>
      <use xlink:href="#DejaVuSans-65" x="263.330078"/>
      <use xlink:href="#DejaVuSans-72" x="324.853516"/>
     </g>
    </g>
    <g id="line2d_23">
     <path d="M 66.6 83.926688 
L 76.6 83.926688 
L 86.6 83.926688 
" style="fill: none; stroke: #ff7f0e; stroke-width: 1.5; stroke-linecap: square"/>
    </g>
    <g id="text_27">
     <!-- Wheeler -->
     <g transform="translate(94.6 87.426688) scale(0.1 -0.1)">
      <defs>
       <path id="DejaVuSans-57" d="M 213 4666 
L 850 4666 
L 1831 722 
L 2809 4666 
L 3519 4666 
L 4500 722 
L 5478 4666 
L 6119 4666 
L 4947 0 
L 4153 0 
L 3169 4050 
L 2175 0 
L 1381 0 
L 213 4666 
z
" transform="scale(0.015625)"/>
       <path id="DejaVuSans-68" d="M 3513 2113 
L 3513 0 
L 2938 0 
L 2938 2094 
Q 2938 2591 2744 2837 
Q 2550 3084 2163 3084 
Q 1697 3084 1428 2787 
Q 1159 2491 1159 1978 
L 1159 0 
L 581 0 
L 581 4863 
L 1159 4863 
L 1159 2956 
Q 1366 3272 1645 3428 
Q 1925 3584 2291 3584 
Q 2894 3584 3203 3211 
Q 3513 2838 3513 2113 
z
" transform="scale(0.015625)"/>
      </defs>
      <use xlink:href="#DejaVuSans-57"/>
      <use xlink:href="#DejaVuSans-68" x="98.876953"/>
      <use xlink:href="#DejaVuSans-65" x="162.255859"/>
      <use xlink:href="#DejaVuSans-65" x="223.779297"/>
      <use xlink:href="#DejaVuSans-6c" x="285.302734"/>
      <use xlink:href="#DejaVuSans-65" x="313.085938"/>
      <use xlink:href="#DejaVuSans-72" x="374.609375"/>
     </g>
    </g>
   </g>
  </g>
 </g>
 <defs>
  <clipPath id="p1168c3e414">
   <rect x="57.6" y="41.472" width="357.12" height="266.112"/>
  </clipPath>
 </defs>
</svg>
