<?xml version="1.0" encoding="utf-8" standalone="no"?>
<!DOCTYPE svg PUBLIC "-//W3C//DTD SVG 1.1//EN"
  "http://www.w3.org/Graphics/SVG/1.1/DTD/svg11.dtd">
<svg xmlns:xlink="http://www.w3.org/1999/xlink" width="460.8pt" height="345.6pt" viewBox="0 0 460.8 345.6" xmlns="http://www.w3.org/2000/svg" version="1.1">
 <metadata>
  <rdf:RDF xmlns:dc="http://purl.org/dc/elements/1.1/" xmlns:cc="http://creativecommons.org/ns#" xmlns:rdf="http://www.w3.org/1999/02/22-rdf-syntax-ns#">
   <cc:Work>
    <dc:type rdf:resource="http://purl.org/dc/dcmitype/StillImage"/>
    <dc:date>2024-04-22T18:04:42.275187</dc:date>
    <dc:format>image/svg+xml</dc:format>
    <dc:creator>
     <cc:Agent>
      <dc:title>Matplotlib v3.8.3, https://matplotlib.org/</dc:title>
     </cc:Agent>
    </dc:creator>
   </cc:Work>
  </rdf:RDF>
 </metadata>
 <defs>
  <style type="text/css">*{stroke-linejoin: round; stroke-linecap: butt}</style>
 </defs>
 <g id="figure_1">
  <g id="patch_1">
   <path d="M 0 345.6 
L 460.8 345.6 
L 460.8 0 
L 0 0 
z
" style="fill: #ffffff"/>
  </g>
  <g id="axes_1">
   <g id="patch_2">
    <path d="M 57.6 307.584 
L 414.72 307.584 
L 414.72 41.472 
L 57.6 41.472 
z
" style="fill: #ffffff"/>
   </g>
   <g id="PolyCollection_1">
    <defs>
     <path id="m544e8f652d" d="M 73.832727 -58.701276 
L 73.832727 -50.112 
L 80.890435 -117.939527 
L 87.948142 -126.492025 
L 102.063557 -141.283653 
L 116.178972 -82.430117 
L 162.054071 -131.329412 
L 172.640632 -71.203583 
L 285.563953 -102.133386 
L 398.487273 -78.317189 
L 398.487273 -145.944509 
L 398.487273 -145.944509 
L 285.563953 -180.239175 
L 172.640632 -85.038588 
L 162.054071 -227.36621 
L 116.178972 -97.641155 
L 102.063557 -232.91588 
L 87.948142 -210.206467 
L 80.890435 -191.60668 
L 73.832727 -58.701276 
z
" style="stroke: #1f77b4; stroke-opacity: 0.2"/>
    </defs>
    <g clip-path="url(#pdac184092e)">
     <use xlink:href="#m544e8f652d" x="0" y="345.6" style="fill: #1f77b4; fill-opacity: 0.2; stroke: #1f77b4; stroke-opacity: 0.2"/>
    </g>
   </g>
   <g id="PolyCollection_2">
    <defs>
     <path id="m171dbf0d4a" d="M 73.832727 -241.022892 
L 73.832727 -165.448155 
L 80.890435 -132.706101 
L 87.948142 -185.387794 
L 102.063557 -193.570152 
L 116.178972 -192.818403 
L 162.054071 -189.200098 
L 285.563953 -155.13402 
L 398.487273 -87.44839 
L 398.487273 -148.451564 
L 398.487273 -148.451564 
L 285.563953 -240.208245 
L 162.054071 -292.032 
L 116.178972 -290.532481 
L 102.063557 -287.690805 
L 87.948142 -275.384953 
L 80.890435 -210.975791 
L 73.832727 -241.022892 
z
" style="stroke: #ff7f0e; stroke-opacity: 0.2"/>
    </defs>
    <g clip-path="url(#pdac184092e)">
     <use xlink:href="#m171dbf0d4a" x="0" y="345.6" style="fill: #ff7f0e; fill-opacity: 0.2; stroke: #ff7f0e; stroke-opacity: 0.2"/>
    </g>
   </g>
   <g id="matplotlib.axis_1">
    <g id="xtick_1">
     <g id="line2d_1">
      <defs>
       <path id="ma51903b8a8" d="M 0 0 
L 0 3.5 
" style="stroke: #000000; stroke-width: 0.8"/>
      </defs>
      <g>
       <use xlink:href="#ma51903b8a8" x="59.717312" y="307.584" style="stroke: #000000; stroke-width: 0.8"/>
      </g>
     </g>
     <g id="text_1">
      <!-- 0 -->
      <g transform="translate(56.536062 322.182437) scale(0.1 -0.1)">
       <defs>
        <path id="DejaVuSans-30" d="M 2034 4250 
Q 1547 4250 1301 3770 
Q 1056 3291 1056 2328 
Q 1056 1369 1301 889 
Q 1547 409 2034 409 
Q 2525 409 2770 889 
Q 3016 1369 3016 2328 
Q 3016 3291 2770 3770 
Q 2525 4250 2034 4250 
z
M 2034 4750 
Q 2819 4750 3233 4129 
Q 3647 3509 3647 2328 
Q 3647 1150 3233 529 
Q 2819 -91 2034 -91 
Q 1250 -91 836 529 
Q 422 1150 422 2328 
Q 422 3509 836 4129 
Q 1250 4750 2034 4750 
z
" transform="scale(0.015625)"/>
       </defs>
       <use xlink:href="#DejaVuSans-30"/>
      </g>
     </g>
    </g>
    <g id="xtick_2">
     <g id="line2d_2">
      <g>
       <use xlink:href="#ma51903b8a8" x="103.827984" y="307.584" style="stroke: #000000; stroke-width: 0.8"/>
      </g>
     </g>
     <g id="text_2">
      <!-- 100 -->
      <g transform="translate(94.284234 322.182437) scale(0.1 -0.1)">
       <defs>
        <path id="DejaVuSans-31" d="M 794 531 
L 1825 531 
L 1825 4091 
L 703 3866 
L 703 4441 
L 1819 4666 
L 2450 4666 
L 2450 531 
L 3481 531 
L 3481 0 
L 794 0 
L 794 531 
z
" transform="scale(0.015625)"/>
       </defs>
       <use xlink:href="#DejaVuSans-31"/>
       <use xlink:href="#DejaVuSans-30" x="63.623047"/>
       <use xlink:href="#DejaVuSans-30" x="127.246094"/>
      </g>
     </g>
    </g>
    <g id="xtick_3">
     <g id="line2d_3">
      <g>
       <use xlink:href="#ma51903b8a8" x="147.938656" y="307.584" style="stroke: #000000; stroke-width: 0.8"/>
      </g>
     </g>
     <g id="text_3">
      <!-- 200 -->
      <g transform="translate(138.394906 322.182437) scale(0.1 -0.1)">
       <defs>
        <path id="DejaVuSans-32" d="M 1228 531 
L 3431 531 
L 3431 0 
L 469 0 
L 469 531 
Q 828 903 1448 1529 
Q 2069 2156 2228 2338 
Q 2531 2678 2651 2914 
Q 2772 3150 2772 3378 
Q 2772 3750 2511 3984 
Q 2250 4219 1831 4219 
Q 1534 4219 1204 4116 
Q 875 4013 500 3803 
L 500 4441 
Q 881 4594 1212 4672 
Q 1544 4750 1819 4750 
Q 2544 4750 2975 4387 
Q 3406 4025 3406 3419 
Q 3406 3131 3298 2873 
Q 3191 2616 2906 2266 
Q 2828 2175 2409 1742 
Q 1991 1309 1228 531 
z
" transform="scale(0.015625)"/>
       </defs>
       <use xlink:href="#DejaVuSans-32"/>
       <use xlink:href="#DejaVuSans-30" x="63.623047"/>
       <use xlink:href="#DejaVuSans-30" x="127.246094"/>
      </g>
     </g>
    </g>
    <g id="xtick_4">
     <g id="line2d_4">
      <g>
       <use xlink:href="#ma51903b8a8" x="192.049328" y="307.584" style="stroke: #000000; stroke-width: 0.8"/>
      </g>
     </g>
     <g id="text_4">
      <!-- 300 -->
      <g transform="translate(182.505578 322.182437) scale(0.1 -0.1)">
       <defs>
        <path id="DejaVuSans-33" d="M 2597 2516 
Q 3050 2419 3304 2112 
Q 3559 1806 3559 1356 
Q 3559 666 3084 287 
Q 2609 -91 1734 -91 
Q 1441 -91 1130 -33 
Q 819 25 488 141 
L 488 750 
Q 750 597 1062 519 
Q 1375 441 1716 441 
Q 2309 441 2620 675 
Q 2931 909 2931 1356 
Q 2931 1769 2642 2001 
Q 2353 2234 1838 2234 
L 1294 2234 
L 1294 2753 
L 1863 2753 
Q 2328 2753 2575 2939 
Q 2822 3125 2822 3475 
Q 2822 3834 2567 4026 
Q 2313 4219 1838 4219 
Q 1578 4219 1281 4162 
Q 984 4106 628 3988 
L 628 4550 
Q 988 4650 1302 4700 
Q 1616 4750 1894 4750 
Q 2613 4750 3031 4423 
Q 3450 4097 3450 3541 
Q 3450 3153 3228 2886 
Q 3006 2619 2597 2516 
z
" transform="scale(0.015625)"/>
       </defs>
       <use xlink:href="#DejaVuSans-33"/>
       <use xlink:href="#DejaVuSans-30" x="63.623047"/>
       <use xlink:href="#DejaVuSans-30" x="127.246094"/>
      </g>
     </g>
    </g>
    <g id="xtick_5">
     <g id="line2d_5">
      <g>
       <use xlink:href="#ma51903b8a8" x="236.16" y="307.584" style="stroke: #000000; stroke-width: 0.8"/>
      </g>
     </g>
     <g id="text_5">
      <!-- 400 -->
      <g transform="translate(226.61625 322.182437) scale(0.1 -0.1)">
       <defs>
        <path id="DejaVuSans-34" d="M 2419 4116 
L 825 1625 
L 2419 1625 
L 2419 4116 
z
M 2253 4666 
L 3047 4666 
L 3047 1625 
L 3713 1625 
L 3713 1100 
L 3047 1100 
L 3047 0 
L 2419 0 
L 2419 1100 
L 313 1100 
L 313 1709 
L 2253 4666 
z
" transform="scale(0.015625)"/>
       </defs>
       <use xlink:href="#DejaVuSans-34"/>
       <use xlink:href="#DejaVuSans-30" x="63.623047"/>
       <use xlink:href="#DejaVuSans-30" x="127.246094"/>
      </g>
     </g>
    </g>
    <g id="xtick_6">
     <g id="line2d_6">
      <g>
       <use xlink:href="#ma51903b8a8" x="280.270672" y="307.584" style="stroke: #000000; stroke-width: 0.8"/>
      </g>
     </g>
     <g id="text_6">
      <!-- 500 -->
      <g transform="translate(270.726922 322.182437) scale(0.1 -0.1)">
       <defs>
        <path id="DejaVuSans-35" d="M 691 4666 
L 3169 4666 
L 3169 4134 
L 1269 4134 
L 1269 2991 
Q 1406 3038 1543 3061 
Q 1681 3084 1819 3084 
Q 2600 3084 3056 2656 
Q 3513 2228 3513 1497 
Q 3513 744 3044 326 
Q 2575 -91 1722 -91 
Q 1428 -91 1123 -41 
Q 819 9 494 109 
L 494 744 
Q 775 591 1075 516 
Q 1375 441 1709 441 
Q 2250 441 2565 725 
Q 2881 1009 2881 1497 
Q 2881 1984 2565 2268 
Q 2250 2553 1709 2553 
Q 1456 2553 1204 2497 
Q 953 2441 691 2322 
L 691 4666 
z
" transform="scale(0.015625)"/>
       </defs>
       <use xlink:href="#DejaVuSans-35"/>
       <use xlink:href="#DejaVuSans-30" x="63.623047"/>
       <use xlink:href="#DejaVuSans-30" x="127.246094"/>
      </g>
     </g>
    </g>
    <g id="xtick_7">
     <g id="line2d_7">
      <g>
       <use xlink:href="#ma51903b8a8" x="324.381344" y="307.584" style="stroke: #000000; stroke-width: 0.8"/>
      </g>
     </g>
     <g id="text_7">
      <!-- 600 -->
      <g transform="translate(314.837594 322.182437) scale(0.1 -0.1)">
       <defs>
        <path id="DejaVuSans-36" d="M 2113 2584 
Q 1688 2584 1439 2293 
Q 1191 2003 1191 1497 
Q 1191 994 1439 701 
Q 1688 409 2113 409 
Q 2538 409 2786 701 
Q 3034 994 3034 1497 
Q 3034 2003 2786 2293 
Q 2538 2584 2113 2584 
z
M 3366 4563 
L 3366 3988 
Q 3128 4100 2886 4159 
Q 2644 4219 2406 4219 
Q 1781 4219 1451 3797 
Q 1122 3375 1075 2522 
Q 1259 2794 1537 2939 
Q 1816 3084 2150 3084 
Q 2853 3084 3261 2657 
Q 3669 2231 3669 1497 
Q 3669 778 3244 343 
Q 2819 -91 2113 -91 
Q 1303 -91 875 529 
Q 447 1150 447 2328 
Q 447 3434 972 4092 
Q 1497 4750 2381 4750 
Q 2619 4750 2861 4703 
Q 3103 4656 3366 4563 
z
" transform="scale(0.015625)"/>
       </defs>
       <use xlink:href="#DejaVuSans-36"/>
       <use xlink:href="#DejaVuSans-30" x="63.623047"/>
       <use xlink:href="#DejaVuSans-30" x="127.246094"/>
      </g>
     </g>
    </g>
    <g id="xtick_8">
     <g id="line2d_8">
      <g>
       <use xlink:href="#ma51903b8a8" x="368.492016" y="307.584" style="stroke: #000000; stroke-width: 0.8"/>
      </g>
     </g>
     <g id="text_8">
      <!-- 700 -->
      <g transform="translate(358.948266 322.182437) scale(0.1 -0.1)">
       <defs>
        <path id="DejaVuSans-37" d="M 525 4666 
L 3525 4666 
L 3525 4397 
L 1831 0 
L 1172 0 
L 2766 4134 
L 525 4134 
L 525 4666 
z
" transform="scale(0.015625)"/>
       </defs>
       <use xlink:href="#DejaVuSans-37"/>
       <use xlink:href="#DejaVuSans-30" x="63.623047"/>
       <use xlink:href="#DejaVuSans-30" x="127.246094"/>
      </g>
     </g>
    </g>
    <g id="xtick_9">
     <g id="line2d_9">
      <g>
       <use xlink:href="#ma51903b8a8" x="412.602688" y="307.584" style="stroke: #000000; stroke-width: 0.8"/>
      </g>
     </g>
     <g id="text_9">
      <!-- 800 -->
      <g transform="translate(403.058938 322.182437) scale(0.1 -0.1)">
       <defs>
        <path id="DejaVuSans-38" d="M 2034 2216 
Q 1584 2216 1326 1975 
Q 1069 1734 1069 1313 
Q 1069 891 1326 650 
Q 1584 409 2034 409 
Q 2484 409 2743 651 
Q 3003 894 3003 1313 
Q 3003 1734 2745 1975 
Q 2488 2216 2034 2216 
z
M 1403 2484 
Q 997 2584 770 2862 
Q 544 3141 544 3541 
Q 544 4100 942 4425 
Q 1341 4750 2034 4750 
Q 2731 4750 3128 4425 
Q 3525 4100 3525 3541 
Q 3525 3141 3298 2862 
Q 3072 2584 2669 2484 
Q 3125 2378 3379 2068 
Q 3634 1759 3634 1313 
Q 3634 634 3220 271 
Q 2806 -91 2034 -91 
Q 1263 -91 848 271 
Q 434 634 434 1313 
Q 434 1759 690 2068 
Q 947 2378 1403 2484 
z
M 1172 3481 
Q 1172 3119 1398 2916 
Q 1625 2713 2034 2713 
Q 2441 2713 2670 2916 
Q 2900 3119 2900 3481 
Q 2900 3844 2670 4047 
Q 2441 4250 2034 4250 
Q 1625 4250 1398 4047 
Q 1172 3844 1172 3481 
z
" transform="scale(0.015625)"/>
       </defs>
       <use xlink:href="#DejaVuSans-38"/>
       <use xlink:href="#DejaVuSans-30" x="63.623047"/>
       <use xlink:href="#DejaVuSans-30" x="127.246094"/>
      </g>
     </g>
    </g>
    <g id="text_10">
     <!-- BLOCK_SIZE -->
     <g transform="translate(205.685 335.684) scale(0.1 -0.1)">
      <defs>
       <path id="DejaVuSans-42" d="M 1259 2228 
L 1259 519 
L 2272 519 
Q 2781 519 3026 730 
Q 3272 941 3272 1375 
Q 3272 1813 3026 2020 
Q 2781 2228 2272 2228 
L 1259 2228 
z
M 1259 4147 
L 1259 2741 
L 2194 2741 
Q 2656 2741 2882 2914 
Q 3109 3088 3109 3444 
Q 3109 3797 2882 3972 
Q 2656 4147 2194 4147 
L 1259 4147 
z
M 628 4666 
L 2241 4666 
Q 2963 4666 3353 4366 
Q 3744 4066 3744 3513 
Q 3744 3084 3544 2831 
Q 3344 2578 2956 2516 
Q 3422 2416 3680 2098 
Q 3938 1781 3938 1306 
Q 3938 681 3513 340 
Q 3088 0 2303 0 
L 628 0 
L 628 4666 
z
" transform="scale(0.015625)"/>
       <path id="DejaVuSans-4c" d="M 628 4666 
L 1259 4666 
L 1259 531 
L 3531 531 
L 3531 0 
L 628 0 
L 628 4666 
z
" transform="scale(0.015625)"/>
       <path id="DejaVuSans-4f" d="M 2522 4238 
Q 1834 4238 1429 3725 
Q 1025 3213 1025 2328 
Q 1025 1447 1429 934 
Q 1834 422 2522 422 
Q 3209 422 3611 934 
Q 4013 1447 4013 2328 
Q 4013 3213 3611 3725 
Q 3209 4238 2522 4238 
z
M 2522 4750 
Q 3503 4750 4090 4092 
Q 4678 3434 4678 2328 
Q 4678 1225 4090 567 
Q 3503 -91 2522 -91 
Q 1538 -91 948 565 
Q 359 1222 359 2328 
Q 359 3434 948 4092 
Q 1538 4750 2522 4750 
z
" transform="scale(0.015625)"/>
       <path id="DejaVuSans-43" d="M 4122 4306 
L 4122 3641 
Q 3803 3938 3442 4084 
Q 3081 4231 2675 4231 
Q 1875 4231 1450 3742 
Q 1025 3253 1025 2328 
Q 1025 1406 1450 917 
Q 1875 428 2675 428 
Q 3081 428 3442 575 
Q 3803 722 4122 1019 
L 4122 359 
Q 3791 134 3420 21 
Q 3050 -91 2638 -91 
Q 1578 -91 968 557 
Q 359 1206 359 2328 
Q 359 3453 968 4101 
Q 1578 4750 2638 4750 
Q 3056 4750 3426 4639 
Q 3797 4528 4122 4306 
z
" transform="scale(0.015625)"/>
       <path id="DejaVuSans-4b" d="M 628 4666 
L 1259 4666 
L 1259 2694 
L 3353 4666 
L 4166 4666 
L 1850 2491 
L 4331 0 
L 3500 0 
L 1259 2247 
L 1259 0 
L 628 0 
L 628 4666 
z
" transform="scale(0.015625)"/>
       <path id="DejaVuSans-5f" d="M 3263 -1063 
L 3263 -1509 
L -63 -1509 
L -63 -1063 
L 3263 -1063 
z
" transform="scale(0.015625)"/>
       <path id="DejaVuSans-53" d="M 3425 4513 
L 3425 3897 
Q 3066 4069 2747 4153 
Q 2428 4238 2131 4238 
Q 1616 4238 1336 4038 
Q 1056 3838 1056 3469 
Q 1056 3159 1242 3001 
Q 1428 2844 1947 2747 
L 2328 2669 
Q 3034 2534 3370 2195 
Q 3706 1856 3706 1288 
Q 3706 609 3251 259 
Q 2797 -91 1919 -91 
Q 1588 -91 1214 -16 
Q 841 59 441 206 
L 441 856 
Q 825 641 1194 531 
Q 1563 422 1919 422 
Q 2459 422 2753 634 
Q 3047 847 3047 1241 
Q 3047 1584 2836 1778 
Q 2625 1972 2144 2069 
L 1759 2144 
Q 1053 2284 737 2584 
Q 422 2884 422 3419 
Q 422 4038 858 4394 
Q 1294 4750 2059 4750 
Q 2388 4750 2728 4690 
Q 3069 4631 3425 4513 
z
" transform="scale(0.015625)"/>
       <path id="DejaVuSans-49" d="M 628 4666 
L 1259 4666 
L 1259 0 
L 628 0 
L 628 4666 
z
" transform="scale(0.015625)"/>
       <path id="DejaVuSans-5a" d="M 359 4666 
L 4025 4666 
L 4025 4184 
L 1075 531 
L 4097 531 
L 4097 0 
L 288 0 
L 288 481 
L 3238 4134 
L 359 4134 
L 359 4666 
z
" transform="scale(0.015625)"/>
       <path id="DejaVuSans-45" d="M 628 4666 
L 3578 4666 
L 3578 4134 
L 1259 4134 
L 1259 2753 
L 3481 2753 
L 3481 2222 
L 1259 2222 
L 1259 531 
L 3634 531 
L 3634 0 
L 628 0 
L 628 4666 
z
" transform="scale(0.015625)"/>
      </defs>
      <use xlink:href="#DejaVuSans-42"/>
      <use xlink:href="#DejaVuSans-4c" x="68.603516"/>
      <use xlink:href="#DejaVuSans-4f" x="120.691406"/>
      <use xlink:href="#DejaVuSans-43" x="199.402344"/>
      <use xlink:href="#DejaVuSans-4b" x="269.226562"/>
      <use xlink:href="#DejaVuSans-5f" x="334.802734"/>
      <use xlink:href="#DejaVuSans-53" x="384.802734"/>
      <use xlink:href="#DejaVuSans-49" x="448.279297"/>
      <use xlink:href="#DejaVuSans-5a" x="477.771484"/>
      <use xlink:href="#DejaVuSans-45" x="546.277344"/>
     </g>
    </g>
   </g>
   <g id="matplotlib.axis_2">
    <g id="ytick_1">
     <g id="line2d_10">
      <defs>
       <path id="md982aeaa27" d="M 0 0 
L -3.5 0 
" style="stroke: #000000; stroke-width: 0.8"/>
      </defs>
      <g>
       <use xlink:href="#md982aeaa27" x="57.6" y="305.971199" style="stroke: #000000; stroke-width: 0.8"/>
      </g>
     </g>
     <g id="text_11">
      <!-- 100 -->
      <g transform="translate(31.5125 309.770418) scale(0.1 -0.1)">
       <use xlink:href="#DejaVuSans-31"/>
       <use xlink:href="#DejaVuSans-30" x="63.623047"/>
       <use xlink:href="#DejaVuSans-30" x="127.246094"/>
      </g>
     </g>
    </g>
    <g id="ytick_2">
     <g id="line2d_11">
      <g>
       <use xlink:href="#md982aeaa27" x="57.6" y="275.011565" style="stroke: #000000; stroke-width: 0.8"/>
      </g>
     </g>
     <g id="text_12">
      <!-- 150 -->
      <g transform="translate(31.5125 278.810784) scale(0.1 -0.1)">
       <use xlink:href="#DejaVuSans-31"/>
       <use xlink:href="#DejaVuSans-35" x="63.623047"/>
       <use xlink:href="#DejaVuSans-30" x="127.246094"/>
      </g>
     </g>
    </g>
    <g id="ytick_3">
     <g id="line2d_12">
      <g>
       <use xlink:href="#md982aeaa27" x="57.6" y="244.051931" style="stroke: #000000; stroke-width: 0.8"/>
      </g>
     </g>
     <g id="text_13">
      <!-- 200 -->
      <g transform="translate(31.5125 247.85115) scale(0.1 -0.1)">
       <use xlink:href="#DejaVuSans-32"/>
       <use xlink:href="#DejaVuSans-30" x="63.623047"/>
       <use xlink:href="#DejaVuSans-30" x="127.246094"/>
      </g>
     </g>
    </g>
    <g id="ytick_4">
     <g id="line2d_13">
      <g>
       <use xlink:href="#md982aeaa27" x="57.6" y="213.092297" style="stroke: #000000; stroke-width: 0.8"/>
      </g>
     </g>
     <g id="text_14">
      <!-- 250 -->
      <g transform="translate(31.5125 216.891515) scale(0.1 -0.1)">
       <use xlink:href="#DejaVuSans-32"/>
       <use xlink:href="#DejaVuSans-35" x="63.623047"/>
       <use xlink:href="#DejaVuSans-30" x="127.246094"/>
      </g>
     </g>
    </g>
    <g id="ytick_5">
     <g id="line2d_14">
      <g>
       <use xlink:href="#md982aeaa27" x="57.6" y="182.132663" style="stroke: #000000; stroke-width: 0.8"/>
      </g>
     </g>
     <g id="text_15">
      <!-- 300 -->
      <g transform="translate(31.5125 185.931881) scale(0.1 -0.1)">
       <use xlink:href="#DejaVuSans-33"/>
       <use xlink:href="#DejaVuSans-30" x="63.623047"/>
       <use xlink:href="#DejaVuSans-30" x="127.246094"/>
      </g>
     </g>
    </g>
    <g id="ytick_6">
     <g id="line2d_15">
      <g>
       <use xlink:href="#md982aeaa27" x="57.6" y="151.173029" style="stroke: #000000; stroke-width: 0.8"/>
      </g>
     </g>
     <g id="text_16">
      <!-- 350 -->
      <g transform="translate(31.5125 154.972247) scale(0.1 -0.1)">
       <use xlink:href="#DejaVuSans-33"/>
       <use xlink:href="#DejaVuSans-35" x="63.623047"/>
       <use xlink:href="#DejaVuSans-30" x="127.246094"/>
      </g>
     </g>
    </g>
    <g id="ytick_7">
     <g id="line2d_16">
      <g>
       <use xlink:href="#md982aeaa27" x="57.6" y="120.213394" style="stroke: #000000; stroke-width: 0.8"/>
      </g>
     </g>
     <g id="text_17">
      <!-- 400 -->
      <g transform="translate(31.5125 124.012613) scale(0.1 -0.1)">
       <use xlink:href="#DejaVuSans-34"/>
       <use xlink:href="#DejaVuSans-30" x="63.623047"/>
       <use xlink:href="#DejaVuSans-30" x="127.246094"/>
      </g>
     </g>
    </g>
    <g id="ytick_8">
     <g id="line2d_17">
      <g>
       <use xlink:href="#md982aeaa27" x="57.6" y="89.25376" style="stroke: #000000; stroke-width: 0.8"/>
      </g>
     </g>
     <g id="text_18">
      <!-- 450 -->
      <g transform="translate(31.5125 93.052979) scale(0.1 -0.1)">
       <use xlink:href="#DejaVuSans-34"/>
       <use xlink:href="#DejaVuSans-35" x="63.623047"/>
       <use xlink:href="#DejaVuSans-30" x="127.246094"/>
      </g>
     </g>
    </g>
    <g id="ytick_9">
     <g id="line2d_18">
      <g>
       <use xlink:href="#md982aeaa27" x="57.6" y="58.294126" style="stroke: #000000; stroke-width: 0.8"/>
      </g>
     </g>
     <g id="text_19">
      <!-- 500 -->
      <g transform="translate(31.5125 62.093345) scale(0.1 -0.1)">
       <use xlink:href="#DejaVuSans-35"/>
       <use xlink:href="#DejaVuSans-30" x="63.623047"/>
       <use xlink:href="#DejaVuSans-30" x="127.246094"/>
      </g>
     </g>
    </g>
    <g id="text_20">
     <!-- GFLOPS -->
     <g transform="translate(25.432812 194.007688) rotate(-90) scale(0.1 -0.1)">
      <defs>
       <path id="DejaVuSans-47" d="M 3809 666 
L 3809 1919 
L 2778 1919 
L 2778 2438 
L 4434 2438 
L 4434 434 
Q 4069 175 3628 42 
Q 3188 -91 2688 -91 
Q 1594 -91 976 548 
Q 359 1188 359 2328 
Q 359 3472 976 4111 
Q 1594 4750 2688 4750 
Q 3144 4750 3555 4637 
Q 3966 4525 4313 4306 
L 4313 3634 
Q 3963 3931 3569 4081 
Q 3175 4231 2741 4231 
Q 1884 4231 1454 3753 
Q 1025 3275 1025 2328 
Q 1025 1384 1454 906 
Q 1884 428 2741 428 
Q 3075 428 3337 486 
Q 3600 544 3809 666 
z
" transform="scale(0.015625)"/>
       <path id="DejaVuSans-46" d="M 628 4666 
L 3309 4666 
L 3309 4134 
L 1259 4134 
L 1259 2759 
L 3109 2759 
L 3109 2228 
L 1259 2228 
L 1259 0 
L 628 0 
L 628 4666 
z
" transform="scale(0.015625)"/>
       <path id="DejaVuSans-50" d="M 1259 4147 
L 1259 2394 
L 2053 2394 
Q 2494 2394 2734 2622 
Q 2975 2850 2975 3272 
Q 2975 3691 2734 3919 
Q 2494 4147 2053 4147 
L 1259 4147 
z
M 628 4666 
L 2053 4666 
Q 2838 4666 3239 4311 
Q 3641 3956 3641 3272 
Q 3641 2581 3239 2228 
Q 2838 1875 2053 1875 
L 1259 1875 
L 1259 0 
L 628 0 
L 628 4666 
z
" transform="scale(0.015625)"/>
      </defs>
      <use xlink:href="#DejaVuSans-47"/>
      <use xlink:href="#DejaVuSans-46" x="77.490234"/>
      <use xlink:href="#DejaVuSans-4c" x="135.009766"/>
      <use xlink:href="#DejaVuSans-4f" x="187.097656"/>
      <use xlink:href="#DejaVuSans-50" x="265.808594"/>
      <use xlink:href="#DejaVuSans-53" x="326.111328"/>
     </g>
    </g>
   </g>
   <g id="line2d_19">
    <path d="M 73.832727 291.455562 
L 80.890435 192.50494 
L 87.948142 179.026354 
L 102.063557 160.855164 
L 116.178972 255.840392 
L 162.054071 166.19276 
L 172.640632 267.726504 
L 285.563953 207.391209 
L 398.487273 234.359011 
" clip-path="url(#pdac184092e)" style="fill: none; stroke: #1f77b4; stroke-width: 1.5; stroke-linecap: square"/>
   </g>
   <g id="line2d_20">
    <path d="M 73.832727 141.526267 
L 80.890435 175.786663 
L 87.948142 116.904918 
L 102.063557 106.894953 
L 116.178972 105.415559 
L 162.054071 106.156196 
L 285.563953 149.87717 
L 398.487273 228.86492 
" clip-path="url(#pdac184092e)" style="fill: none; stroke: #ff7f0e; stroke-width: 1.5; stroke-linecap: square"/>
   </g>
   <g id="line2d_21"/>
   <g id="line2d_22"/>
   <g id="patch_3">
    <path d="M 57.6 307.584 
L 57.6 41.472 
" style="fill: none; stroke: #000000; stroke-width: 0.8; stroke-linejoin: miter; stroke-linecap: square"/>
   </g>
   <g id="patch_4">
    <path d="M 414.72 307.584 
L 414.72 41.472 
" style="fill: none; stroke: #000000; stroke-width: 0.8; stroke-linejoin: miter; stroke-linecap: square"/>
   </g>
   <g id="patch_5">
    <path d="M 57.6 307.584 
L 414.72 307.584 
" style="fill: none; stroke: #000000; stroke-width: 0.8; stroke-linejoin: miter; stroke-linecap: square"/>
   </g>
   <g id="patch_6">
    <path d="M 57.6 41.472 
L 414.72 41.472 
" style="fill: none; stroke: #000000; stroke-width: 0.8; stroke-linejoin: miter; stroke-linecap: square"/>
   </g>
   <g id="text_21">
    <path d="M 103.161995 160.703601 
L 103.161995 159.805164 
Q 103.53387 159.981726 103.913557 160.073914 
Q 104.294807 160.166101 104.661995 160.166101 
Q 105.638557 160.166101 106.15262 159.509851 
Q 106.668245 158.853601 106.741682 157.514539 
Q 106.45887 157.934851 106.022932 158.159851 
Q 105.588557 158.384851 105.061995 158.384851 
Q 103.968245 158.384851 103.330745 157.723914 
Q 102.693245 157.061414 102.693245 155.912976 
Q 102.693245 154.791101 103.357307 154.112976 
Q 104.02137 153.433289 105.124495 153.433289 
Q 106.39012 153.433289 107.055745 154.403601 
Q 107.722932 155.372351 107.722932 157.217664 
Q 107.722932 158.941101 106.904182 159.969226 
Q 106.086995 160.997351 104.705745 160.997351 
Q 104.33387 160.997351 103.95262 160.923914 
Q 103.572932 160.850476 103.161995 160.703601 
z
M 105.124495 157.612976 
Q 105.788557 157.612976 106.176057 157.159851 
Q 106.56512 156.705164 106.56512 155.912976 
Q 106.56512 155.127039 106.176057 154.670789 
Q 105.788557 154.214539 105.124495 154.214539 
Q 104.460432 154.214539 104.072932 154.670789 
Q 103.685432 155.127039 103.685432 155.912976 
Q 103.685432 156.705164 104.072932 157.159851 
Q 104.460432 157.612976 105.124495 157.612976 
z
M 111.727424 156.817664 
Q 111.063362 156.817664 110.674299 157.272351 
Q 110.286799 157.725476 110.286799 158.516101 
Q 110.286799 159.302039 110.674299 159.759851 
Q 111.063362 160.216101 111.727424 160.216101 
Q 112.391487 160.216101 112.778987 159.759851 
Q 113.166487 159.302039 113.166487 158.516101 
Q 113.166487 157.725476 112.778987 157.272351 
Q 112.391487 156.817664 111.727424 156.817664 
z
M 113.685237 153.725476 
L 113.685237 154.623914 
Q 113.313362 154.448914 112.935237 154.356726 
Q 112.557112 154.262976 112.185237 154.262976 
Q 111.208674 154.262976 110.693049 154.922351 
Q 110.178987 155.581726 110.105549 156.914539 
Q 110.393049 156.489539 110.827424 156.262976 
Q 111.263362 156.036414 111.785237 156.036414 
Q 112.883674 156.036414 113.521174 156.703601 
Q 114.158674 157.369226 114.158674 158.516101 
Q 114.158674 159.639539 113.494612 160.319226 
Q 112.830549 160.997351 111.727424 160.997351 
Q 110.461799 160.997351 109.793049 160.028601 
Q 109.124299 159.058289 109.124299 157.217664 
Q 109.124299 155.489539 109.944612 154.461414 
Q 110.764924 153.433289 112.146174 153.433289 
Q 112.518049 153.433289 112.896174 153.506726 
Q 113.274299 153.580164 113.685237 153.725476 
z
" style="stroke: #ffffff; stroke-width: 4"/>
    <path d="M 103.161995 160.703601 
L 103.161995 159.805164 
Q 103.53387 159.981726 103.913557 160.073914 
Q 104.294807 160.166101 104.661995 160.166101 
Q 105.638557 160.166101 106.15262 159.509851 
Q 106.668245 158.853601 106.741682 157.514539 
Q 106.45887 157.934851 106.022932 158.159851 
Q 105.588557 158.384851 105.061995 158.384851 
Q 103.968245 158.384851 103.330745 157.723914 
Q 102.693245 157.061414 102.693245 155.912976 
Q 102.693245 154.791101 103.357307 154.112976 
Q 104.02137 153.433289 105.124495 153.433289 
Q 106.39012 153.433289 107.055745 154.403601 
Q 107.722932 155.372351 107.722932 157.217664 
Q 107.722932 158.941101 106.904182 159.969226 
Q 106.086995 160.997351 104.705745 160.997351 
Q 104.33387 160.997351 103.95262 160.923914 
Q 103.572932 160.850476 103.161995 160.703601 
z
M 105.124495 157.612976 
Q 105.788557 157.612976 106.176057 157.159851 
Q 106.56512 156.705164 106.56512 155.912976 
Q 106.56512 155.127039 106.176057 154.670789 
Q 105.788557 154.214539 105.124495 154.214539 
Q 104.460432 154.214539 104.072932 154.670789 
Q 103.685432 155.127039 103.685432 155.912976 
Q 103.685432 156.705164 104.072932 157.159851 
Q 104.460432 157.612976 105.124495 157.612976 
z
M 111.727424 156.817664 
Q 111.063362 156.817664 110.674299 157.272351 
Q 110.286799 157.725476 110.286799 158.516101 
Q 110.286799 159.302039 110.674299 159.759851 
Q 111.063362 160.216101 111.727424 160.216101 
Q 112.391487 160.216101 112.778987 159.759851 
Q 113.166487 159.302039 113.166487 158.516101 
Q 113.166487 157.725476 112.778987 157.272351 
Q 112.391487 156.817664 111.727424 156.817664 
z
M 113.685237 153.725476 
L 113.685237 154.623914 
Q 113.313362 154.448914 112.935237 154.356726 
Q 112.557112 154.262976 112.185237 154.262976 
Q 111.208674 154.262976 110.693049 154.922351 
Q 110.178987 155.581726 110.105549 156.914539 
Q 110.393049 156.489539 110.827424 156.262976 
Q 111.263362 156.036414 111.785237 156.036414 
Q 112.883674 156.036414 113.521174 156.703601 
Q 114.158674 157.369226 114.158674 158.516101 
Q 114.158674 159.639539 113.494612 160.319226 
Q 112.830549 160.997351 111.727424 160.997351 
Q 110.461799 160.997351 109.793049 160.028601 
Q 109.124299 159.058289 109.124299 157.217664 
Q 109.124299 155.489539 109.944612 154.461414 
Q 110.764924 153.433289 112.146174 153.433289 
Q 112.518049 153.433289 112.896174 153.506726 
Q 113.274299 153.580164 113.685237 153.725476 
z
"/>
   </g>
   <g id="text_22">
    <path d="M 163.972821 165.363072 
L 167.415009 165.363072 
L 167.415009 166.19276 
L 162.786884 166.19276 
L 162.786884 165.363072 
Q 163.347821 164.781822 164.316571 163.803697 
Q 165.286884 162.82401 165.535321 162.539635 
Q 166.008759 162.008385 166.196259 161.639635 
Q 166.385321 161.270885 166.385321 160.914635 
Q 166.385321 160.333385 165.977509 159.96776 
Q 165.569696 159.600572 164.915009 159.600572 
Q 164.450946 159.600572 163.935321 159.76151 
Q 163.421259 159.922447 162.835321 160.250572 
L 162.835321 159.253697 
Q 163.430634 159.014635 163.947821 158.89276 
Q 164.466571 158.770885 164.896259 158.770885 
Q 166.029071 158.770885 166.702509 159.338072 
Q 167.375946 159.903697 167.375946 160.850572 
Q 167.375946 161.300572 167.207196 161.703697 
Q 167.040009 162.10526 166.594696 162.652135 
Q 166.472821 162.794322 165.818134 163.470885 
Q 165.165009 164.147447 163.972821 165.363072 
z
M 172.474188 162.26151 
Q 173.182001 162.413072 173.578876 162.89276 
Q 173.977313 163.370885 173.977313 164.07401 
Q 173.977313 165.152135 173.235126 165.744322 
Q 172.492938 166.334947 171.125751 166.334947 
Q 170.667938 166.334947 170.182001 166.244322 
Q 169.696063 166.153697 169.178876 165.972447 
L 169.178876 165.020885 
Q 169.588251 165.259947 170.075751 165.381822 
Q 170.564813 165.503697 171.097626 165.503697 
Q 172.024188 165.503697 172.510126 165.138072 
Q 172.996063 164.772447 172.996063 164.07401 
Q 172.996063 163.428697 172.544501 163.066197 
Q 172.092938 162.702135 171.288251 162.702135 
L 170.438251 162.702135 
L 170.438251 161.891197 
L 171.327313 161.891197 
Q 172.053876 161.891197 172.439813 161.600572 
Q 172.825751 161.309947 172.825751 160.763072 
Q 172.825751 160.202135 172.427313 159.902135 
Q 172.030438 159.600572 171.288251 159.600572 
Q 170.882001 159.600572 170.417938 159.689635 
Q 169.953876 159.777135 169.397626 159.96151 
L 169.397626 159.083385 
Q 169.960126 158.927135 170.450751 158.84901 
Q 170.941376 158.770885 171.375751 158.770885 
Q 172.499188 158.770885 173.152313 159.281822 
Q 173.807001 159.791197 173.807001 160.659947 
Q 173.807001 161.266197 173.460126 161.683385 
Q 173.113251 162.100572 172.474188 162.26151 
z
M 176.697431 165.363072 
L 180.139618 165.363072 
L 180.139618 166.19276 
L 175.511493 166.19276 
L 175.511493 165.363072 
Q 176.072431 164.781822 177.041181 163.803697 
Q 178.011493 162.82401 178.259931 162.539635 
Q 178.733368 162.008385 178.920868 161.639635 
Q 179.109931 161.270885 179.109931 160.914635 
Q 179.109931 160.333385 178.702118 159.96776 
Q 178.294306 159.600572 177.639618 159.600572 
Q 177.175556 159.600572 176.659931 159.76151 
Q 176.145868 159.922447 175.559931 160.250572 
L 175.559931 159.253697 
Q 176.155243 159.014635 176.672431 158.89276 
Q 177.191181 158.770885 177.620868 158.770885 
Q 178.753681 158.770885 179.427118 159.338072 
Q 180.100556 159.903697 180.100556 160.850572 
Q 180.100556 161.300572 179.931806 161.703697 
Q 179.764618 162.10526 179.319306 162.652135 
Q 179.197431 162.794322 178.542743 163.470885 
Q 177.889618 164.147447 176.697431 165.363072 
z
" style="stroke: #ffffff; stroke-width: 4"/>
    <path d="M 163.972821 165.363072 
L 167.415009 165.363072 
L 167.415009 166.19276 
L 162.786884 166.19276 
L 162.786884 165.363072 
Q 163.347821 164.781822 164.316571 163.803697 
Q 165.286884 162.82401 165.535321 162.539635 
Q 166.008759 162.008385 166.196259 161.639635 
Q 166.385321 161.270885 166.385321 160.914635 
Q 166.385321 160.333385 165.977509 159.96776 
Q 165.569696 159.600572 164.915009 159.600572 
Q 164.450946 159.600572 163.935321 159.76151 
Q 163.421259 159.922447 162.835321 160.250572 
L 162.835321 159.253697 
Q 163.430634 159.014635 163.947821 158.89276 
Q 164.466571 158.770885 164.896259 158.770885 
Q 166.029071 158.770885 166.702509 159.338072 
Q 167.375946 159.903697 167.375946 160.850572 
Q 167.375946 161.300572 167.207196 161.703697 
Q 167.040009 162.10526 166.594696 162.652135 
Q 166.472821 162.794322 165.818134 163.470885 
Q 165.165009 164.147447 163.972821 165.363072 
z
M 172.474188 162.26151 
Q 173.182001 162.413072 173.578876 162.89276 
Q 173.977313 163.370885 173.977313 164.07401 
Q 173.977313 165.152135 173.235126 165.744322 
Q 172.492938 166.334947 171.125751 166.334947 
Q 170.667938 166.334947 170.182001 166.244322 
Q 169.696063 166.153697 169.178876 165.972447 
L 169.178876 165.020885 
Q 169.588251 165.259947 170.075751 165.381822 
Q 170.564813 165.503697 171.097626 165.503697 
Q 172.024188 165.503697 172.510126 165.138072 
Q 172.996063 164.772447 172.996063 164.07401 
Q 172.996063 163.428697 172.544501 163.066197 
Q 172.092938 162.702135 171.288251 162.702135 
L 170.438251 162.702135 
L 170.438251 161.891197 
L 171.327313 161.891197 
Q 172.053876 161.891197 172.439813 161.600572 
Q 172.825751 161.309947 172.825751 160.763072 
Q 172.825751 160.202135 172.427313 159.902135 
Q 172.030438 159.600572 171.288251 159.600572 
Q 170.882001 159.600572 170.417938 159.689635 
Q 169.953876 159.777135 169.397626 159.96151 
L 169.397626 159.083385 
Q 169.960126 158.927135 170.450751 158.84901 
Q 170.941376 158.770885 171.375751 158.770885 
Q 172.499188 158.770885 173.152313 159.281822 
Q 173.807001 159.791197 173.807001 160.659947 
Q 173.807001 161.266197 173.460126 161.683385 
Q 173.113251 162.100572 172.474188 162.26151 
z
M 176.697431 165.363072 
L 180.139618 165.363072 
L 180.139618 166.19276 
L 175.511493 166.19276 
L 175.511493 165.363072 
Q 176.072431 164.781822 177.041181 163.803697 
Q 178.011493 162.82401 178.259931 162.539635 
Q 178.733368 162.008385 178.920868 161.639635 
Q 179.109931 161.270885 179.109931 160.914635 
Q 179.109931 160.333385 178.702118 159.96776 
Q 178.294306 159.600572 177.639618 159.600572 
Q 177.175556 159.600572 176.659931 159.76151 
Q 176.145868 159.922447 175.559931 160.250572 
L 175.559931 159.253697 
Q 176.155243 159.014635 176.672431 158.89276 
Q 177.191181 158.770885 177.620868 158.770885 
Q 178.753681 158.770885 179.427118 159.338072 
Q 180.100556 159.903697 180.100556 160.850572 
Q 180.100556 161.300572 179.931806 161.703697 
Q 179.764618 162.10526 179.319306 162.652135 
Q 179.197431 162.794322 178.542743 163.470885 
Q 177.889618 164.147447 176.697431 165.363072 
z
"/>
   </g>
   <g id="text_23">
    <path d="M 286.64364 200.100584 
L 290.515515 200.100584 
L 290.515515 200.931834 
L 287.546765 200.931834 
L 287.546765 202.717772 
Q 287.760828 202.644334 287.97489 202.608397 
Q 288.190515 202.572459 288.40614 202.572459 
Q 289.626453 202.572459 290.338953 203.241209 
Q 291.053015 203.909959 291.053015 205.052147 
Q 291.053015 206.228709 290.320203 206.881834 
Q 289.58739 207.533397 288.254578 207.533397 
Q 287.795203 207.533397 287.31864 207.455272 
Q 286.84364 207.377147 286.335828 207.220897 
L 286.335828 206.228709 
Q 286.77489 206.467772 287.24364 206.584959 
Q 287.71239 206.702147 288.234265 206.702147 
Q 289.079578 206.702147 289.571765 206.258397 
Q 290.065515 205.814647 290.065515 205.052147 
Q 290.065515 204.291209 289.571765 203.847459 
Q 289.079578 203.402147 288.234265 203.402147 
Q 287.838953 203.402147 287.445203 203.489647 
Q 287.053015 203.577147 286.64364 203.763084 
L 286.64364 200.100584 
z
M 293.166882 206.561522 
L 294.77782 206.561522 
L 294.77782 200.999022 
L 293.024695 201.350584 
L 293.024695 200.452147 
L 294.768445 200.100584 
L 295.754382 200.100584 
L 295.754382 206.561522 
L 297.36532 206.561522 
L 297.36532 207.391209 
L 293.166882 207.391209 
L 293.166882 206.561522 
z
M 300.207312 206.561522 
L 303.649499 206.561522 
L 303.649499 207.391209 
L 299.021374 207.391209 
L 299.021374 206.561522 
Q 299.582312 205.980272 300.551062 205.002147 
Q 301.521374 204.022459 301.769812 203.738084 
Q 302.243249 203.206834 302.430749 202.838084 
Q 302.619812 202.469334 302.619812 202.113084 
Q 302.619812 201.531834 302.211999 201.166209 
Q 301.804187 200.799022 301.149499 200.799022 
Q 300.685437 200.799022 300.169812 200.959959 
Q 299.655749 201.120897 299.069812 201.449022 
L 299.069812 200.452147 
Q 299.665124 200.213084 300.182312 200.091209 
Q 300.701062 199.969334 301.130749 199.969334 
Q 302.263562 199.969334 302.936999 200.536522 
Q 303.610437 201.102147 303.610437 202.049022 
Q 303.610437 202.499022 303.441687 202.902147 
Q 303.274499 203.303709 302.829187 203.850584 
Q 302.707312 203.992772 302.052624 204.669334 
Q 301.399499 205.345897 300.207312 206.561522 
z
" style="stroke: #ffffff; stroke-width: 4"/>
    <path d="M 286.64364 200.100584 
L 290.515515 200.100584 
L 290.515515 200.931834 
L 287.546765 200.931834 
L 287.546765 202.717772 
Q 287.760828 202.644334 287.97489 202.608397 
Q 288.190515 202.572459 288.40614 202.572459 
Q 289.626453 202.572459 290.338953 203.241209 
Q 291.053015 203.909959 291.053015 205.052147 
Q 291.053015 206.228709 290.320203 206.881834 
Q 289.58739 207.533397 288.254578 207.533397 
Q 287.795203 207.533397 287.31864 207.455272 
Q 286.84364 207.377147 286.335828 207.220897 
L 286.335828 206.228709 
Q 286.77489 206.467772 287.24364 206.584959 
Q 287.71239 206.702147 288.234265 206.702147 
Q 289.079578 206.702147 289.571765 206.258397 
Q 290.065515 205.814647 290.065515 205.052147 
Q 290.065515 204.291209 289.571765 203.847459 
Q 289.079578 203.402147 288.234265 203.402147 
Q 287.838953 203.402147 287.445203 203.489647 
Q 287.053015 203.577147 286.64364 203.763084 
L 286.64364 200.100584 
z
M 293.166882 206.561522 
L 294.77782 206.561522 
L 294.77782 200.999022 
L 293.024695 201.350584 
L 293.024695 200.452147 
L 294.768445 200.100584 
L 295.754382 200.100584 
L 295.754382 206.561522 
L 297.36532 206.561522 
L 297.36532 207.391209 
L 293.166882 207.391209 
L 293.166882 206.561522 
z
M 300.207312 206.561522 
L 303.649499 206.561522 
L 303.649499 207.391209 
L 299.021374 207.391209 
L 299.021374 206.561522 
Q 299.582312 205.980272 300.551062 205.002147 
Q 301.521374 204.022459 301.769812 203.738084 
Q 302.243249 203.206834 302.430749 202.838084 
Q 302.619812 202.469334 302.619812 202.113084 
Q 302.619812 201.531834 302.211999 201.166209 
Q 301.804187 200.799022 301.149499 200.799022 
Q 300.685437 200.799022 300.169812 200.959959 
Q 299.655749 201.120897 299.069812 201.449022 
L 299.069812 200.452147 
Q 299.665124 200.213084 300.182312 200.091209 
Q 300.701062 199.969334 301.130749 199.969334 
Q 302.263562 199.969334 302.936999 200.536522 
Q 303.610437 201.102147 303.610437 202.049022 
Q 303.610437 202.499022 303.441687 202.902147 
Q 303.274499 203.303709 302.829187 203.850584 
Q 302.707312 203.992772 302.052624 204.669334 
Q 301.399499 205.345897 300.207312 206.561522 
z
"/>
   </g>
   <g id="text_24">
    <path d="M 117.419597 255.010705 
L 119.030535 255.010705 
L 119.030535 249.448205 
L 117.27741 249.799767 
L 117.27741 248.90133 
L 119.02116 248.549767 
L 120.007097 248.549767 
L 120.007097 255.010705 
L 121.618035 255.010705 
L 121.618035 255.840392 
L 117.419597 255.840392 
L 117.419597 255.010705 
z
M 124.460027 255.010705 
L 127.902215 255.010705 
L 127.902215 255.840392 
L 123.27409 255.840392 
L 123.27409 255.010705 
Q 123.835027 254.429455 124.803777 253.45133 
Q 125.77409 252.471642 126.022527 252.187267 
Q 126.495965 251.656017 126.683465 251.287267 
Q 126.872527 250.918517 126.872527 250.562267 
Q 126.872527 249.981017 126.464715 249.615392 
Q 126.056902 249.248205 125.402215 249.248205 
Q 124.938152 249.248205 124.422527 249.409142 
Q 123.908465 249.57008 123.322527 249.898205 
L 123.322527 248.90133 
Q 123.91784 248.662267 124.435027 248.540392 
Q 124.953777 248.418517 125.383465 248.418517 
Q 126.516277 248.418517 127.189715 248.985705 
Q 127.863152 249.55133 127.863152 250.498205 
Q 127.863152 250.948205 127.694402 251.35133 
Q 127.527215 251.752892 127.081902 252.299767 
Q 126.960027 252.441955 126.30534 253.118517 
Q 125.652215 253.79508 124.460027 255.010705 
z
M 132.081707 252.377892 
Q 131.378582 252.377892 130.975457 252.754455 
Q 130.573894 253.131017 130.573894 253.78883 
Q 130.573894 254.448205 130.975457 254.824767 
Q 131.378582 255.20133 132.081707 255.20133 
Q 132.784832 255.20133 133.189519 254.823205 
Q 133.595769 254.443517 133.595769 253.78883 
Q 133.595769 253.131017 133.192644 252.754455 
Q 132.791082 252.377892 132.081707 252.377892 
z
M 131.095769 251.959142 
Q 130.461394 251.802892 130.106707 251.368517 
Q 129.753582 250.93258 129.753582 250.30758 
Q 129.753582 249.434142 130.375457 248.92633 
Q 130.998894 248.418517 132.081707 248.418517 
Q 133.170769 248.418517 133.791082 248.92633 
Q 134.411394 249.434142 134.411394 250.30758 
Q 134.411394 250.93258 134.056707 251.368517 
Q 133.703582 251.802892 133.073894 251.959142 
Q 133.786394 252.124767 134.183269 252.609142 
Q 134.581707 253.091955 134.581707 253.78883 
Q 134.581707 254.849767 133.934832 255.416955 
Q 133.287957 255.98258 132.081707 255.98258 
Q 130.877019 255.98258 130.228582 255.416955 
Q 129.581707 254.849767 129.581707 253.78883 
Q 129.581707 253.091955 129.981707 252.609142 
Q 130.383269 252.124767 131.095769 251.959142 
z
M 130.734832 250.40133 
Q 130.734832 250.966955 131.087957 251.284142 
Q 131.442644 251.60133 132.081707 251.60133 
Q 132.717644 251.60133 133.075457 251.284142 
Q 133.434832 250.966955 133.434832 250.40133 
Q 133.434832 249.834142 133.075457 249.516955 
Q 132.717644 249.199767 132.081707 249.199767 
Q 131.442644 249.199767 131.087957 249.516955 
Q 130.734832 249.834142 130.734832 250.40133 
z
" style="stroke: #ffffff; stroke-width: 4"/>
    <path d="M 117.419597 255.010705 
L 119.030535 255.010705 
L 119.030535 249.448205 
L 117.27741 249.799767 
L 117.27741 248.90133 
L 119.02116 248.549767 
L 120.007097 248.549767 
L 120.007097 255.010705 
L 121.618035 255.010705 
L 121.618035 255.840392 
L 117.419597 255.840392 
L 117.419597 255.010705 
z
M 124.460027 255.010705 
L 127.902215 255.010705 
L 127.902215 255.840392 
L 123.27409 255.840392 
L 123.27409 255.010705 
Q 123.835027 254.429455 124.803777 253.45133 
Q 125.77409 252.471642 126.022527 252.187267 
Q 126.495965 251.656017 126.683465 251.287267 
Q 126.872527 250.918517 126.872527 250.562267 
Q 126.872527 249.981017 126.464715 249.615392 
Q 126.056902 249.248205 125.402215 249.248205 
Q 124.938152 249.248205 124.422527 249.409142 
Q 123.908465 249.57008 123.322527 249.898205 
L 123.322527 248.90133 
Q 123.91784 248.662267 124.435027 248.540392 
Q 124.953777 248.418517 125.383465 248.418517 
Q 126.516277 248.418517 127.189715 248.985705 
Q 127.863152 249.55133 127.863152 250.498205 
Q 127.863152 250.948205 127.694402 251.35133 
Q 127.527215 251.752892 127.081902 252.299767 
Q 126.960027 252.441955 126.30534 253.118517 
Q 125.652215 253.79508 124.460027 255.010705 
z
M 132.081707 252.377892 
Q 131.378582 252.377892 130.975457 252.754455 
Q 130.573894 253.131017 130.573894 253.78883 
Q 130.573894 254.448205 130.975457 254.824767 
Q 131.378582 255.20133 132.081707 255.20133 
Q 132.784832 255.20133 133.189519 254.823205 
Q 133.595769 254.443517 133.595769 253.78883 
Q 133.595769 253.131017 133.192644 252.754455 
Q 132.791082 252.377892 132.081707 252.377892 
z
M 131.095769 251.959142 
Q 130.461394 251.802892 130.106707 251.368517 
Q 129.753582 250.93258 129.753582 250.30758 
Q 129.753582 249.434142 130.375457 248.92633 
Q 130.998894 248.418517 132.081707 248.418517 
Q 133.170769 248.418517 133.791082 248.92633 
Q 134.411394 249.434142 134.411394 250.30758 
Q 134.411394 250.93258 134.056707 251.368517 
Q 133.703582 251.802892 133.073894 251.959142 
Q 133.786394 252.124767 134.183269 252.609142 
Q 134.581707 253.091955 134.581707 253.78883 
Q 134.581707 254.849767 133.934832 255.416955 
Q 133.287957 255.98258 132.081707 255.98258 
Q 130.877019 255.98258 130.228582 255.416955 
Q 129.581707 254.849767 129.581707 253.78883 
Q 129.581707 253.091955 129.981707 252.609142 
Q 130.383269 252.124767 131.095769 251.959142 
z
M 130.734832 250.40133 
Q 130.734832 250.966955 131.087957 251.284142 
Q 131.442644 251.60133 132.081707 251.60133 
Q 132.717644 251.60133 133.075457 251.284142 
Q 133.434832 250.966955 133.434832 250.40133 
Q 133.434832 249.834142 133.075457 249.516955 
Q 132.717644 249.199767 132.081707 249.199767 
Q 131.442644 249.199767 131.087957 249.516955 
Q 130.734832 249.834142 130.734832 250.40133 
z
"/>
   </g>
   <g id="text_25">
    <path d="M 174.559382 266.896816 
L 178.00157 266.896816 
L 178.00157 267.726504 
L 173.373445 267.726504 
L 173.373445 266.896816 
Q 173.934382 266.315566 174.903132 265.337441 
Q 175.873445 264.357754 176.121882 264.073379 
Q 176.59532 263.542129 176.78282 263.173379 
Q 176.971882 262.804629 176.971882 262.448379 
Q 176.971882 261.867129 176.56407 261.501504 
Q 176.156257 261.134316 175.50157 261.134316 
Q 175.037507 261.134316 174.521882 261.295254 
Q 174.00782 261.456191 173.421882 261.784316 
L 173.421882 260.787441 
Q 174.017195 260.548379 174.534382 260.426504 
Q 175.053132 260.304629 175.48282 260.304629 
Q 176.615632 260.304629 177.28907 260.871816 
Q 177.962507 261.437441 177.962507 262.384316 
Q 177.962507 262.834316 177.793757 263.237441 
Q 177.62657 263.639004 177.181257 264.185879 
Q 177.059382 264.328066 176.404695 265.004629 
Q 175.75157 265.681191 174.559382 266.896816 
z
M 180.082625 260.435879 
L 183.9545 260.435879 
L 183.9545 261.267129 
L 180.98575 261.267129 
L 180.98575 263.053066 
Q 181.199812 262.979629 181.413875 262.943691 
Q 181.6295 262.907754 181.845125 262.907754 
Q 183.065437 262.907754 183.777937 263.576504 
Q 184.492 264.245254 184.492 265.387441 
Q 184.492 266.564004 183.759187 267.217129 
Q 183.026375 267.868691 181.693562 267.868691 
Q 181.234187 267.868691 180.757625 267.790566 
Q 180.282625 267.712441 179.774812 267.556191 
L 179.774812 266.564004 
Q 180.213875 266.803066 180.682625 266.920254 
Q 181.151375 267.037441 181.67325 267.037441 
Q 182.518562 267.037441 183.01075 266.593691 
Q 183.5045 266.149941 183.5045 265.387441 
Q 183.5045 264.626504 183.01075 264.182754 
Q 182.518562 263.737441 181.67325 263.737441 
Q 181.277937 263.737441 180.884187 263.824941 
Q 180.492 263.912441 180.082625 264.098379 
L 180.082625 260.435879 
z
M 188.666804 263.689004 
Q 188.002742 263.689004 187.613679 264.143691 
Q 187.226179 264.596816 187.226179 265.387441 
Q 187.226179 266.173379 187.613679 266.631191 
Q 188.002742 267.087441 188.666804 267.087441 
Q 189.330867 267.087441 189.718367 266.631191 
Q 190.105867 266.173379 190.105867 265.387441 
Q 190.105867 264.596816 189.718367 264.143691 
Q 189.330867 263.689004 188.666804 263.689004 
z
M 190.624617 260.596816 
L 190.624617 261.495254 
Q 190.252742 261.320254 189.874617 261.228066 
Q 189.496492 261.134316 189.124617 261.134316 
Q 188.148054 261.134316 187.632429 261.793691 
Q 187.118367 262.453066 187.044929 263.785879 
Q 187.332429 263.360879 187.766804 263.134316 
Q 188.202742 262.907754 188.724617 262.907754 
Q 189.823054 262.907754 190.460554 263.574941 
Q 191.098054 264.240566 191.098054 265.387441 
Q 191.098054 266.510879 190.433992 267.190566 
Q 189.769929 267.868691 188.666804 267.868691 
Q 187.401179 267.868691 186.732429 266.899941 
Q 186.063679 265.929629 186.063679 264.089004 
Q 186.063679 262.360879 186.883992 261.332754 
Q 187.704304 260.304629 189.085554 260.304629 
Q 189.457429 260.304629 189.835554 260.378066 
Q 190.213679 260.451504 190.624617 260.596816 
z
" style="stroke: #ffffff; stroke-width: 4"/>
    <path d="M 174.559382 266.896816 
L 178.00157 266.896816 
L 178.00157 267.726504 
L 173.373445 267.726504 
L 173.373445 266.896816 
Q 173.934382 266.315566 174.903132 265.337441 
Q 175.873445 264.357754 176.121882 264.073379 
Q 176.59532 263.542129 176.78282 263.173379 
Q 176.971882 262.804629 176.971882 262.448379 
Q 176.971882 261.867129 176.56407 261.501504 
Q 176.156257 261.134316 175.50157 261.134316 
Q 175.037507 261.134316 174.521882 261.295254 
Q 174.00782 261.456191 173.421882 261.784316 
L 173.421882 260.787441 
Q 174.017195 260.548379 174.534382 260.426504 
Q 175.053132 260.304629 175.48282 260.304629 
Q 176.615632 260.304629 177.28907 260.871816 
Q 177.962507 261.437441 177.962507 262.384316 
Q 177.962507 262.834316 177.793757 263.237441 
Q 177.62657 263.639004 177.181257 264.185879 
Q 177.059382 264.328066 176.404695 265.004629 
Q 175.75157 265.681191 174.559382 266.896816 
z
M 180.082625 260.435879 
L 183.9545 260.435879 
L 183.9545 261.267129 
L 180.98575 261.267129 
L 180.98575 263.053066 
Q 181.199812 262.979629 181.413875 262.943691 
Q 181.6295 262.907754 181.845125 262.907754 
Q 183.065437 262.907754 183.777937 263.576504 
Q 184.492 264.245254 184.492 265.387441 
Q 184.492 266.564004 183.759187 267.217129 
Q 183.026375 267.868691 181.693562 267.868691 
Q 181.234187 267.868691 180.757625 267.790566 
Q 180.282625 267.712441 179.774812 267.556191 
L 179.774812 266.564004 
Q 180.213875 266.803066 180.682625 266.920254 
Q 181.151375 267.037441 181.67325 267.037441 
Q 182.518562 267.037441 183.01075 266.593691 
Q 183.5045 266.149941 183.5045 265.387441 
Q 183.5045 264.626504 183.01075 264.182754 
Q 182.518562 263.737441 181.67325 263.737441 
Q 181.277937 263.737441 180.884187 263.824941 
Q 180.492 263.912441 180.082625 264.098379 
L 180.082625 260.435879 
z
M 188.666804 263.689004 
Q 188.002742 263.689004 187.613679 264.143691 
Q 187.226179 264.596816 187.226179 265.387441 
Q 187.226179 266.173379 187.613679 266.631191 
Q 188.002742 267.087441 188.666804 267.087441 
Q 189.330867 267.087441 189.718367 266.631191 
Q 190.105867 266.173379 190.105867 265.387441 
Q 190.105867 264.596816 189.718367 264.143691 
Q 189.330867 263.689004 188.666804 263.689004 
z
M 190.624617 260.596816 
L 190.624617 261.495254 
Q 190.252742 261.320254 189.874617 261.228066 
Q 189.496492 261.134316 189.124617 261.134316 
Q 188.148054 261.134316 187.632429 261.793691 
Q 187.118367 262.453066 187.044929 263.785879 
Q 187.332429 263.360879 187.766804 263.134316 
Q 188.202742 262.907754 188.724617 262.907754 
Q 189.823054 262.907754 190.460554 263.574941 
Q 191.098054 264.240566 191.098054 265.387441 
Q 191.098054 266.510879 190.433992 267.190566 
Q 189.769929 267.868691 188.666804 267.868691 
Q 187.401179 267.868691 186.732429 266.899941 
Q 186.063679 265.929629 186.063679 264.089004 
Q 186.063679 262.360879 186.883992 261.332754 
Q 187.704304 260.304629 189.085554 260.304629 
Q 189.457429 260.304629 189.835554 260.378066 
Q 190.213679 260.451504 190.624617 260.596816 
z
"/>
   </g>
   <g id="text_26">
    <path d="M 117.419597 104.585871 
L 119.030535 104.585871 
L 119.030535 99.023371 
L 117.27741 99.374934 
L 117.27741 98.476496 
L 119.02116 98.124934 
L 120.007097 98.124934 
L 120.007097 104.585871 
L 121.618035 104.585871 
L 121.618035 105.415559 
L 117.419597 105.415559 
L 117.419597 104.585871 
z
M 124.460027 104.585871 
L 127.902215 104.585871 
L 127.902215 105.415559 
L 123.27409 105.415559 
L 123.27409 104.585871 
Q 123.835027 104.004621 124.803777 103.026496 
Q 125.77409 102.046809 126.022527 101.762434 
Q 126.495965 101.231184 126.683465 100.862434 
Q 126.872527 100.493684 126.872527 100.137434 
Q 126.872527 99.556184 126.464715 99.190559 
Q 126.056902 98.823371 125.402215 98.823371 
Q 124.938152 98.823371 124.422527 98.984309 
Q 123.908465 99.145246 123.322527 99.473371 
L 123.322527 98.476496 
Q 123.91784 98.237434 124.435027 98.115559 
Q 124.953777 97.993684 125.383465 97.993684 
Q 126.516277 97.993684 127.189715 98.560871 
Q 127.863152 99.126496 127.863152 100.073371 
Q 127.863152 100.523371 127.694402 100.926496 
Q 127.527215 101.328059 127.081902 101.874934 
Q 126.960027 102.017121 126.30534 102.693684 
Q 125.652215 103.370246 124.460027 104.585871 
z
M 132.081707 101.953059 
Q 131.378582 101.953059 130.975457 102.329621 
Q 130.573894 102.706184 130.573894 103.363996 
Q 130.573894 104.023371 130.975457 104.399934 
Q 131.378582 104.776496 132.081707 104.776496 
Q 132.784832 104.776496 133.189519 104.398371 
Q 133.595769 104.018684 133.595769 103.363996 
Q 133.595769 102.706184 133.192644 102.329621 
Q 132.791082 101.953059 132.081707 101.953059 
z
M 131.095769 101.534309 
Q 130.461394 101.378059 130.106707 100.943684 
Q 129.753582 100.507746 129.753582 99.882746 
Q 129.753582 99.009309 130.375457 98.501496 
Q 130.998894 97.993684 132.081707 97.993684 
Q 133.170769 97.993684 133.791082 98.501496 
Q 134.411394 99.009309 134.411394 99.882746 
Q 134.411394 100.507746 134.056707 100.943684 
Q 133.703582 101.378059 133.073894 101.534309 
Q 133.786394 101.699934 134.183269 102.184309 
Q 134.581707 102.667121 134.581707 103.363996 
Q 134.581707 104.424934 133.934832 104.992121 
Q 133.287957 105.557746 132.081707 105.557746 
Q 130.877019 105.557746 130.228582 104.992121 
Q 129.581707 104.424934 129.581707 103.363996 
Q 129.581707 102.667121 129.981707 102.184309 
Q 130.383269 101.699934 131.095769 101.534309 
z
M 130.734832 99.976496 
Q 130.734832 100.542121 131.087957 100.859309 
Q 131.442644 101.176496 132.081707 101.176496 
Q 132.717644 101.176496 133.075457 100.859309 
Q 133.434832 100.542121 133.434832 99.976496 
Q 133.434832 99.409309 133.075457 99.092121 
Q 132.717644 98.774934 132.081707 98.774934 
Q 131.442644 98.774934 131.087957 99.092121 
Q 130.734832 99.409309 130.734832 99.976496 
z
" style="stroke: #ffffff; stroke-width: 4"/>
    <path d="M 117.419597 104.585871 
L 119.030535 104.585871 
L 119.030535 99.023371 
L 117.27741 99.374934 
L 117.27741 98.476496 
L 119.02116 98.124934 
L 120.007097 98.124934 
L 120.007097 104.585871 
L 121.618035 104.585871 
L 121.618035 105.415559 
L 117.419597 105.415559 
L 117.419597 104.585871 
z
M 124.460027 104.585871 
L 127.902215 104.585871 
L 127.902215 105.415559 
L 123.27409 105.415559 
L 123.27409 104.585871 
Q 123.835027 104.004621 124.803777 103.026496 
Q 125.77409 102.046809 126.022527 101.762434 
Q 126.495965 101.231184 126.683465 100.862434 
Q 126.872527 100.493684 126.872527 100.137434 
Q 126.872527 99.556184 126.464715 99.190559 
Q 126.056902 98.823371 125.402215 98.823371 
Q 124.938152 98.823371 124.422527 98.984309 
Q 123.908465 99.145246 123.322527 99.473371 
L 123.322527 98.476496 
Q 123.91784 98.237434 124.435027 98.115559 
Q 124.953777 97.993684 125.383465 97.993684 
Q 126.516277 97.993684 127.189715 98.560871 
Q 127.863152 99.126496 127.863152 100.073371 
Q 127.863152 100.523371 127.694402 100.926496 
Q 127.527215 101.328059 127.081902 101.874934 
Q 126.960027 102.017121 126.30534 102.693684 
Q 125.652215 103.370246 124.460027 104.585871 
z
M 132.081707 101.953059 
Q 131.378582 101.953059 130.975457 102.329621 
Q 130.573894 102.706184 130.573894 103.363996 
Q 130.573894 104.023371 130.975457 104.399934 
Q 131.378582 104.776496 132.081707 104.776496 
Q 132.784832 104.776496 133.189519 104.398371 
Q 133.595769 104.018684 133.595769 103.363996 
Q 133.595769 102.706184 133.192644 102.329621 
Q 132.791082 101.953059 132.081707 101.953059 
z
M 131.095769 101.534309 
Q 130.461394 101.378059 130.106707 100.943684 
Q 129.753582 100.507746 129.753582 99.882746 
Q 129.753582 99.009309 130.375457 98.501496 
Q 130.998894 97.993684 132.081707 97.993684 
Q 133.170769 97.993684 133.791082 98.501496 
Q 134.411394 99.009309 134.411394 99.882746 
Q 134.411394 100.507746 134.056707 100.943684 
Q 133.703582 101.378059 133.073894 101.534309 
Q 133.786394 101.699934 134.183269 102.184309 
Q 134.581707 102.667121 134.581707 103.363996 
Q 134.581707 104.424934 133.934832 104.992121 
Q 133.287957 105.557746 132.081707 105.557746 
Q 130.877019 105.557746 130.228582 104.992121 
Q 129.581707 104.424934 129.581707 103.363996 
Q 129.581707 102.667121 129.981707 102.184309 
Q 130.383269 101.699934 131.095769 101.534309 
z
M 130.734832 99.976496 
Q 130.734832 100.542121 131.087957 100.859309 
Q 131.442644 101.176496 132.081707 101.176496 
Q 132.717644 101.176496 133.075457 100.859309 
Q 133.434832 100.542121 133.434832 99.976496 
Q 133.434832 99.409309 133.075457 99.092121 
Q 132.717644 98.774934 132.081707 98.774934 
Q 131.442644 98.774934 131.087957 99.092121 
Q 130.734832 99.409309 130.734832 99.976496 
z
"/>
   </g>
   <g id="text_27">
    <path d="M 84.670122 169.355413 
L 82.179497 173.247601 
L 84.670122 173.247601 
L 84.670122 169.355413 
z
M 84.410747 168.496038 
L 85.651372 168.496038 
L 85.651372 173.247601 
L 86.691997 173.247601 
L 86.691997 174.067913 
L 85.651372 174.067913 
L 85.651372 175.786663 
L 84.670122 175.786663 
L 84.670122 174.067913 
L 81.379497 174.067913 
L 81.379497 173.116351 
L 84.410747 168.496038 
z
M 90.430864 172.324163 
Q 89.727739 172.324163 89.324614 172.700726 
Q 88.923052 173.077288 88.923052 173.735101 
Q 88.923052 174.394476 89.324614 174.771038 
Q 89.727739 175.147601 90.430864 175.147601 
Q 91.133989 175.147601 91.538677 174.769476 
Q 91.944927 174.389788 91.944927 173.735101 
Q 91.944927 173.077288 91.541802 172.700726 
Q 91.140239 172.324163 90.430864 172.324163 
z
M 89.444927 171.905413 
Q 88.810552 171.749163 88.455864 171.314788 
Q 88.102739 170.878851 88.102739 170.253851 
Q 88.102739 169.380413 88.724614 168.872601 
Q 89.348052 168.364788 90.430864 168.364788 
Q 91.519927 168.364788 92.140239 168.872601 
Q 92.760552 169.380413 92.760552 170.253851 
Q 92.760552 170.878851 92.405864 171.314788 
Q 92.052739 171.749163 91.423052 171.905413 
Q 92.135552 172.071038 92.532427 172.555413 
Q 92.930864 173.038226 92.930864 173.735101 
Q 92.930864 174.796038 92.283989 175.363226 
Q 91.637114 175.928851 90.430864 175.928851 
Q 89.226177 175.928851 88.577739 175.363226 
Q 87.930864 174.796038 87.930864 173.735101 
Q 87.930864 173.038226 88.330864 172.555413 
Q 88.732427 172.071038 89.444927 171.905413 
z
M 89.083989 170.347601 
Q 89.083989 170.913226 89.437114 171.230413 
Q 89.791802 171.547601 90.430864 171.547601 
Q 91.066802 171.547601 91.424614 171.230413 
Q 91.783989 170.913226 91.783989 170.347601 
Q 91.783989 169.780413 91.424614 169.463226 
Q 91.066802 169.146038 90.430864 169.146038 
Q 89.791802 169.146038 89.437114 169.463226 
Q 89.083989 169.780413 89.083989 170.347601 
z
" style="stroke: #ffffff; stroke-width: 4"/>
    <path d="M 84.670122 169.355413 
L 82.179497 173.247601 
L 84.670122 173.247601 
L 84.670122 169.355413 
z
M 84.410747 168.496038 
L 85.651372 168.496038 
L 85.651372 173.247601 
L 86.691997 173.247601 
L 86.691997 174.067913 
L 85.651372 174.067913 
L 85.651372 175.786663 
L 84.670122 175.786663 
L 84.670122 174.067913 
L 81.379497 174.067913 
L 81.379497 173.116351 
L 84.410747 168.496038 
z
M 90.430864 172.324163 
Q 89.727739 172.324163 89.324614 172.700726 
Q 88.923052 173.077288 88.923052 173.735101 
Q 88.923052 174.394476 89.324614 174.771038 
Q 89.727739 175.147601 90.430864 175.147601 
Q 91.133989 175.147601 91.538677 174.769476 
Q 91.944927 174.389788 91.944927 173.735101 
Q 91.944927 173.077288 91.541802 172.700726 
Q 91.140239 172.324163 90.430864 172.324163 
z
M 89.444927 171.905413 
Q 88.810552 171.749163 88.455864 171.314788 
Q 88.102739 170.878851 88.102739 170.253851 
Q 88.102739 169.380413 88.724614 168.872601 
Q 89.348052 168.364788 90.430864 168.364788 
Q 91.519927 168.364788 92.140239 168.872601 
Q 92.760552 169.380413 92.760552 170.253851 
Q 92.760552 170.878851 92.405864 171.314788 
Q 92.052739 171.749163 91.423052 171.905413 
Q 92.135552 172.071038 92.532427 172.555413 
Q 92.930864 173.038226 92.930864 173.735101 
Q 92.930864 174.796038 92.283989 175.363226 
Q 91.637114 175.928851 90.430864 175.928851 
Q 89.226177 175.928851 88.577739 175.363226 
Q 87.930864 174.796038 87.930864 173.735101 
Q 87.930864 173.038226 88.330864 172.555413 
Q 88.732427 172.071038 89.444927 171.905413 
z
M 89.083989 170.347601 
Q 89.083989 170.913226 89.437114 171.230413 
Q 89.791802 171.547601 90.430864 171.547601 
Q 91.066802 171.547601 91.424614 171.230413 
Q 91.783989 170.913226 91.783989 170.347601 
Q 91.783989 169.780413 91.424614 169.463226 
Q 91.066802 169.146038 90.430864 169.146038 
Q 89.791802 169.146038 89.437114 169.463226 
Q 89.083989 169.780413 89.083989 170.347601 
z
"/>
   </g>
   <g id="text_28">
    <!-- Performance vs Block Size -->
    <g transform="translate(157.199062 35.472) scale(0.12 -0.12)">
     <defs>
      <path id="DejaVuSans-65" d="M 3597 1894 
L 3597 1613 
L 953 1613 
Q 991 1019 1311 708 
Q 1631 397 2203 397 
Q 2534 397 2845 478 
Q 3156 559 3463 722 
L 3463 178 
Q 3153 47 2828 -22 
Q 2503 -91 2169 -91 
Q 1331 -91 842 396 
Q 353 884 353 1716 
Q 353 2575 817 3079 
Q 1281 3584 2069 3584 
Q 2775 3584 3186 3129 
Q 3597 2675 3597 1894 
z
M 3022 2063 
Q 3016 2534 2758 2815 
Q 2500 3097 2075 3097 
Q 1594 3097 1305 2825 
Q 1016 2553 972 2059 
L 3022 2063 
z
" transform="scale(0.015625)"/>
      <path id="DejaVuSans-72" d="M 2631 2963 
Q 2534 3019 2420 3045 
Q 2306 3072 2169 3072 
Q 1681 3072 1420 2755 
Q 1159 2438 1159 1844 
L 1159 0 
L 581 0 
L 581 3500 
L 1159 3500 
L 1159 2956 
Q 1341 3275 1631 3429 
Q 1922 3584 2338 3584 
Q 2397 3584 2469 3576 
Q 2541 3569 2628 3553 
L 2631 2963 
z
" transform="scale(0.015625)"/>
      <path id="DejaVuSans-66" d="M 2375 4863 
L 2375 4384 
L 1825 4384 
Q 1516 4384 1395 4259 
Q 1275 4134 1275 3809 
L 1275 3500 
L 2222 3500 
L 2222 3053 
L 1275 3053 
L 1275 0 
L 697 0 
L 697 3053 
L 147 3053 
L 147 3500 
L 697 3500 
L 697 3744 
Q 697 4328 969 4595 
Q 1241 4863 1831 4863 
L 2375 4863 
z
" transform="scale(0.015625)"/>
      <path id="DejaVuSans-6f" d="M 1959 3097 
Q 1497 3097 1228 2736 
Q 959 2375 959 1747 
Q 959 1119 1226 758 
Q 1494 397 1959 397 
Q 2419 397 2687 759 
Q 2956 1122 2956 1747 
Q 2956 2369 2687 2733 
Q 2419 3097 1959 3097 
z
M 1959 3584 
Q 2709 3584 3137 3096 
Q 3566 2609 3566 1747 
Q 3566 888 3137 398 
Q 2709 -91 1959 -91 
Q 1206 -91 779 398 
Q 353 888 353 1747 
Q 353 2609 779 3096 
Q 1206 3584 1959 3584 
z
" transform="scale(0.015625)"/>
      <path id="DejaVuSans-6d" d="M 3328 2828 
Q 3544 3216 3844 3400 
Q 4144 3584 4550 3584 
Q 5097 3584 5394 3201 
Q 5691 2819 5691 2113 
L 5691 0 
L 5113 0 
L 5113 2094 
Q 5113 2597 4934 2840 
Q 4756 3084 4391 3084 
Q 3944 3084 3684 2787 
Q 3425 2491 3425 1978 
L 3425 0 
L 2847 0 
L 2847 2094 
Q 2847 2600 2669 2842 
Q 2491 3084 2119 3084 
Q 1678 3084 1418 2786 
Q 1159 2488 1159 1978 
L 1159 0 
L 581 0 
L 581 3500 
L 1159 3500 
L 1159 2956 
Q 1356 3278 1631 3431 
Q 1906 3584 2284 3584 
Q 2666 3584 2933 3390 
Q 3200 3197 3328 2828 
z
" transform="scale(0.015625)"/>
      <path id="DejaVuSans-61" d="M 2194 1759 
Q 1497 1759 1228 1600 
Q 959 1441 959 1056 
Q 959 750 1161 570 
Q 1363 391 1709 391 
Q 2188 391 2477 730 
Q 2766 1069 2766 1631 
L 2766 1759 
L 2194 1759 
z
M 3341 1997 
L 3341 0 
L 2766 0 
L 2766 531 
Q 2569 213 2275 61 
Q 1981 -91 1556 -91 
Q 1019 -91 701 211 
Q 384 513 384 1019 
Q 384 1609 779 1909 
Q 1175 2209 1959 2209 
L 2766 2209 
L 2766 2266 
Q 2766 2663 2505 2880 
Q 2244 3097 1772 3097 
Q 1472 3097 1187 3025 
Q 903 2953 641 2809 
L 641 3341 
Q 956 3463 1253 3523 
Q 1550 3584 1831 3584 
Q 2591 3584 2966 3190 
Q 3341 2797 3341 1997 
z
" transform="scale(0.015625)"/>
      <path id="DejaVuSans-6e" d="M 3513 2113 
L 3513 0 
L 2938 0 
L 2938 2094 
Q 2938 2591 2744 2837 
Q 2550 3084 2163 3084 
Q 1697 3084 1428 2787 
Q 1159 2491 1159 1978 
L 1159 0 
L 581 0 
L 581 3500 
L 1159 3500 
L 1159 2956 
Q 1366 3272 1645 3428 
Q 1925 3584 2291 3584 
Q 2894 3584 3203 3211 
Q 3513 2838 3513 2113 
z
" transform="scale(0.015625)"/>
      <path id="DejaVuSans-63" d="M 3122 3366 
L 3122 2828 
Q 2878 2963 2633 3030 
Q 2388 3097 2138 3097 
Q 1578 3097 1268 2742 
Q 959 2388 959 1747 
Q 959 1106 1268 751 
Q 1578 397 2138 397 
Q 2388 397 2633 464 
Q 2878 531 3122 666 
L 3122 134 
Q 2881 22 2623 -34 
Q 2366 -91 2075 -91 
Q 1284 -91 818 406 
Q 353 903 353 1747 
Q 353 2603 823 3093 
Q 1294 3584 2113 3584 
Q 2378 3584 2631 3529 
Q 2884 3475 3122 3366 
z
" transform="scale(0.015625)"/>
      <path id="DejaVuSans-20" transform="scale(0.015625)"/>
      <path id="DejaVuSans-76" d="M 191 3500 
L 800 3500 
L 1894 563 
L 2988 3500 
L 3597 3500 
L 2284 0 
L 1503 0 
L 191 3500 
z
" transform="scale(0.015625)"/>
      <path id="DejaVuSans-73" d="M 2834 3397 
L 2834 2853 
Q 2591 2978 2328 3040 
Q 2066 3103 1784 3103 
Q 1356 3103 1142 2972 
Q 928 2841 928 2578 
Q 928 2378 1081 2264 
Q 1234 2150 1697 2047 
L 1894 2003 
Q 2506 1872 2764 1633 
Q 3022 1394 3022 966 
Q 3022 478 2636 193 
Q 2250 -91 1575 -91 
Q 1294 -91 989 -36 
Q 684 19 347 128 
L 347 722 
Q 666 556 975 473 
Q 1284 391 1588 391 
Q 1994 391 2212 530 
Q 2431 669 2431 922 
Q 2431 1156 2273 1281 
Q 2116 1406 1581 1522 
L 1381 1569 
Q 847 1681 609 1914 
Q 372 2147 372 2553 
Q 372 3047 722 3315 
Q 1072 3584 1716 3584 
Q 2034 3584 2315 3537 
Q 2597 3491 2834 3397 
z
" transform="scale(0.015625)"/>
      <path id="DejaVuSans-6c" d="M 603 4863 
L 1178 4863 
L 1178 0 
L 603 0 
L 603 4863 
z
" transform="scale(0.015625)"/>
      <path id="DejaVuSans-6b" d="M 581 4863 
L 1159 4863 
L 1159 1991 
L 2875 3500 
L 3609 3500 
L 1753 1863 
L 3688 0 
L 2938 0 
L 1159 1709 
L 1159 0 
L 581 0 
L 581 4863 
z
" transform="scale(0.015625)"/>
      <path id="DejaVuSans-69" d="M 603 3500 
L 1178 3500 
L 1178 0 
L 603 0 
L 603 3500 
z
M 603 4863 
L 1178 4863 
L 1178 4134 
L 603 4134 
L 603 4863 
z
" transform="scale(0.015625)"/>
      <path id="DejaVuSans-7a" d="M 353 3500 
L 3084 3500 
L 3084 2975 
L 922 459 
L 3084 459 
L 3084 0 
L 275 0 
L 275 525 
L 2438 3041 
L 353 3041 
L 353 3500 
z
" transform="scale(0.015625)"/>
     </defs>
     <use xlink:href="#DejaVuSans-50"/>
     <use xlink:href="#DejaVuSans-65" x="56.677734"/>
     <use xlink:href="#DejaVuSans-72" x="118.201172"/>
     <use xlink:href="#DejaVuSans-66" x="159.314453"/>
     <use xlink:href="#DejaVuSans-6f" x="194.519531"/>
     <use xlink:href="#DejaVuSans-72" x="255.701172"/>
     <use xlink:href="#DejaVuSans-6d" x="295.064453"/>
     <use xlink:href="#DejaVuSans-61" x="392.476562"/>
     <use xlink:href="#DejaVuSans-6e" x="453.755859"/>
     <use xlink:href="#DejaVuSans-63" x="517.134766"/>
     <use xlink:href="#DejaVuSans-65" x="572.115234"/>
     <use xlink:href="#DejaVuSans-20" x="633.638672"/>
     <use xlink:href="#DejaVuSans-76" x="665.425781"/>
     <use xlink:href="#DejaVuSans-73" x="724.605469"/>
     <use xlink:href="#DejaVuSans-20" x="776.705078"/>
     <use xlink:href="#DejaVuSans-42" x="808.492188"/>
     <use xlink:href="#DejaVuSans-6c" x="877.095703"/>
     <use xlink:href="#DejaVuSans-6f" x="904.878906"/>
     <use xlink:href="#DejaVuSans-63" x="966.060547"/>
     <use xlink:href="#DejaVuSans-6b" x="1021.041016"/>
     <use xlink:href="#DejaVuSans-20" x="1078.951172"/>
     <use xlink:href="#DejaVuSans-53" x="1110.738281"/>
     <use xlink:href="#DejaVuSans-69" x="1174.214844"/>
     <use xlink:href="#DejaVuSans-7a" x="1201.998047"/>
     <use xlink:href="#DejaVuSans-65" x="1254.488281"/>
    </g>
   </g>
   <g id="legend_1">
    <g id="patch_7">
     <path d="M 334.146563 93.506375 
L 407.72 93.506375 
Q 409.72 93.506375 409.72 91.506375 
L 409.72 48.472 
Q 409.72 46.472 407.72 46.472 
L 334.146563 46.472 
Q 332.146563 46.472 332.146563 48.472 
L 332.146563 91.506375 
Q 332.146563 93.506375 334.146563 93.506375 
z
" style="fill: #ffffff; opacity: 0.8; stroke: #cccccc; stroke-linejoin: miter"/>
    </g>
    <g id="text_29">
     <!-- Cluster -->
     <g transform="translate(353.187188 58.070438) scale(0.1 -0.1)">
      <defs>
       <path id="DejaVuSans-75" d="M 544 1381 
L 544 3500 
L 1119 3500 
L 1119 1403 
Q 1119 906 1312 657 
Q 1506 409 1894 409 
Q 2359 409 2629 706 
Q 2900 1003 2900 1516 
L 2900 3500 
L 3475 3500 
L 3475 0 
L 2900 0 
L 2900 538 
Q 2691 219 2414 64 
Q 2138 -91 1772 -91 
Q 1169 -91 856 284 
Q 544 659 544 1381 
z
M 1991 3584 
L 1991 3584 
z
" transform="scale(0.015625)"/>
       <path id="DejaVuSans-74" d="M 1172 4494 
L 1172 3500 
L 2356 3500 
L 2356 3053 
L 1172 3053 
L 1172 1153 
Q 1172 725 1289 603 
Q 1406 481 1766 481 
L 2356 481 
L 2356 0 
L 1766 0 
Q 1100 0 847 248 
Q 594 497 594 1153 
L 594 3053 
L 172 3053 
L 172 3500 
L 594 3500 
L 594 4494 
L 1172 4494 
z
" transform="scale(0.015625)"/>
      </defs>
      <use xlink:href="#DejaVuSans-43"/>
      <use xlink:href="#DejaVuSans-6c" x="69.824219"/>
      <use xlink:href="#DejaVuSans-75" x="97.607422"/>
      <use xlink:href="#DejaVuSans-73" x="160.986328"/>
      <use xlink:href="#DejaVuSans-74" x="213.085938"/>
      <use xlink:href="#DejaVuSans-65" x="252.294922"/>
      <use xlink:href="#DejaVuSans-72" x="313.818359"/>
     </g>
    </g>
    <g id="line2d_23">
     <path d="M 336.146563 69.248563 
L 346.146563 69.248563 
L 356.146563 69.248563 
" style="fill: none; stroke: #1f77b4; stroke-width: 1.5; stroke-linecap: square"/>
    </g>
    <g id="text_30">
     <!-- Hopper -->
     <g transform="translate(364.146563 72.748563) scale(0.1 -0.1)">
      <defs>
       <path id="DejaVuSans-48" d="M 628 4666 
L 1259 4666 
L 1259 2753 
L 3553 2753 
L 3553 4666 
L 4184 4666 
L 4184 0 
L 3553 0 
L 3553 2222 
L 1259 2222 
L 1259 0 
L 628 0 
L 628 4666 
z
" transform="scale(0.015625)"/>
       <path id="DejaVuSans-70" d="M 1159 525 
L 1159 -1331 
L 581 -1331 
L 581 3500 
L 1159 3500 
L 1159 2969 
Q 1341 3281 1617 3432 
Q 1894 3584 2278 3584 
Q 2916 3584 3314 3078 
Q 3713 2572 3713 1747 
Q 3713 922 3314 415 
Q 2916 -91 2278 -91 
Q 1894 -91 1617 61 
Q 1341 213 1159 525 
z
M 3116 1747 
Q 3116 2381 2855 2742 
Q 2594 3103 2138 3103 
Q 1681 3103 1420 2742 
Q 1159 2381 1159 1747 
Q 1159 1113 1420 752 
Q 1681 391 2138 391 
Q 2594 391 2855 752 
Q 3116 1113 3116 1747 
z
" transform="scale(0.015625)"/>
      </defs>
      <use xlink:href="#DejaVuSans-48"/>
      <use xlink:href="#DejaVuSans-6f" x="75.195312"/>
      <use xlink:href="#DejaVuSans-70" x="136.376953"/>
      <use xlink:href="#DejaVuSans-70" x="199.853516"/>
      <use xlink:href="#DejaVuSans-65" x="263.330078"/>
      <use xlink:href="#DejaVuSans-72" x="324.853516"/>
     </g>
    </g>
    <g id="line2d_24">
     <path d="M 336.146563 83.926688 
L 346.146563 83.926688 
L 356.146563 83.926688 
" style="fill: none; stroke: #ff7f0e; stroke-width: 1.5; stroke-linecap: square"/>
    </g>
    <g id="text_31">
     <!-- Wheeler -->
     <g transform="translate(364.146563 87.426688) scale(0.1 -0.1)">
      <defs>
       <path id="DejaVuSans-57" d="M 213 4666 
L 850 4666 
L 1831 722 
L 2809 4666 
L 3519 4666 
L 4500 722 
L 5478 4666 
L 6119 4666 
L 4947 0 
L 4153 0 
L 3169 4050 
L 2175 0 
L 1381 0 
L 213 4666 
z
" transform="scale(0.015625)"/>
       <path id="DejaVuSans-68" d="M 3513 2113 
L 3513 0 
L 2938 0 
L 2938 2094 
Q 2938 2591 2744 2837 
Q 2550 3084 2163 3084 
Q 1697 3084 1428 2787 
Q 1159 2491 1159 1978 
L 1159 0 
L 581 0 
L 581 4863 
L 1159 4863 
L 1159 2956 
Q 1366 3272 1645 3428 
Q 1925 3584 2291 3584 
Q 2894 3584 3203 3211 
Q 3513 2838 3513 2113 
z
" transform="scale(0.015625)"/>
      </defs>
      <use xlink:href="#DejaVuSans-57"/>
      <use xlink:href="#DejaVuSans-68" x="98.876953"/>
      <use xlink:href="#DejaVuSans-65" x="162.255859"/>
      <use xlink:href="#DejaVuSans-65" x="223.779297"/>
      <use xlink:href="#DejaVuSans-6c" x="285.302734"/>
      <use xlink:href="#DejaVuSans-65" x="313.085938"/>
      <use xlink:href="#DejaVuSans-72" x="374.609375"/>
     </g>
    </g>
   </g>
  </g>
 </g>
 <defs>
  <clipPath id="pdac184092e">
   <rect x="57.6" y="41.472" width="357.12" height="266.112"/>
  </clipPath>
 </defs>
</svg>
