<?xml version="1.0" encoding="utf-8" standalone="no"?>
<!DOCTYPE svg PUBLIC "-//W3C//DTD SVG 1.1//EN"
  "http://www.w3.org/Graphics/SVG/1.1/DTD/svg11.dtd">
<svg xmlns:xlink="http://www.w3.org/1999/xlink" width="460.8pt" height="345.6pt" viewBox="0 0 460.8 345.6" xmlns="http://www.w3.org/2000/svg" version="1.1">
 <metadata>
  <rdf:RDF xmlns:dc="http://purl.org/dc/elements/1.1/" xmlns:cc="http://creativecommons.org/ns#" xmlns:rdf="http://www.w3.org/1999/02/22-rdf-syntax-ns#">
   <cc:Work>
    <dc:type rdf:resource="http://purl.org/dc/dcmitype/StillImage"/>
    <dc:date>2024-04-22T18:05:25.062182</dc:date>
    <dc:format>image/svg+xml</dc:format>
    <dc:creator>
     <cc:Agent>
      <dc:title>Matplotlib v3.8.3, https://matplotlib.org/</dc:title>
     </cc:Agent>
    </dc:creator>
   </cc:Work>
  </rdf:RDF>
 </metadata>
 <defs>
  <style type="text/css">*{stroke-linejoin: round; stroke-linecap: butt}</style>
 </defs>
 <g id="figure_1">
  <g id="patch_1">
   <path d="M 0 345.6 
L 460.8 345.6 
L 460.8 0 
L 0 0 
z
" style="fill: #ffffff"/>
  </g>
  <g id="axes_1">
   <g id="patch_2">
    <path d="M 57.6 307.584 
L 414.72 307.584 
L 414.72 41.472 
L 57.6 41.472 
z
" style="fill: #ffffff"/>
   </g>
   <g id="PolyCollection_1">
    <defs>
     <path id="m00c4af3936" d="M 111.64938 -61.588625 
L 111.64938 -60.168598 
L 149.466033 -62.331597 
L 187.282685 -61.760163 
L 225.099338 -66.090584 
L 262.915991 -66.326016 
L 300.732644 -70.045948 
L 300.732644 -75.566567 
L 300.732644 -75.566567 
L 262.915991 -70.088151 
L 225.099338 -69.518997 
L 187.282685 -64.734201 
L 149.466033 -64.549699 
L 111.64938 -61.588625 
z
" style="stroke: #1f77b4; stroke-opacity: 0.2"/>
    </defs>
    <g clip-path="url(#p57fb89b458)">
     <use xlink:href="#m00c4af3936" x="0" y="345.6" style="fill: #1f77b4; fill-opacity: 0.2; stroke: #1f77b4; stroke-opacity: 0.2"/>
    </g>
   </g>
   <g id="PolyCollection_2">
    <defs>
     <path id="mddab1137c1" d="M 73.832727 -53.640183 
L 73.832727 -52.911351 
L 111.64938 -50.112 
L 149.466033 -67.540119 
L 171.587356 -95.171883 
L 187.282685 -64.005783 
L 209.404009 -244.494801 
L 225.099338 -81.080797 
L 247.220662 -94.673809 
L 262.915991 -90.61712 
L 285.037315 -254.719074 
L 300.732644 -69.982684 
L 322.853967 -93.424277 
L 338.549296 -58.513672 
L 376.365949 -66.384601 
L 398.487273 -86.874259 
L 398.487273 -90.274825 
L 398.487273 -90.274825 
L 376.365949 -69.671297 
L 338.549296 -60.741136 
L 322.853967 -95.047957 
L 300.732644 -80.196397 
L 285.037315 -284.04832 
L 262.915991 -108.332033 
L 247.220662 -96.679405 
L 225.099338 -90.361877 
L 209.404009 -292.032 
L 187.282685 -69.979448 
L 171.587356 -97.463096 
L 149.466033 -71.107978 
L 111.64938 -50.518836 
L 73.832727 -53.640183 
z
" style="stroke: #ff7f0e; stroke-opacity: 0.2"/>
    </defs>
    <g clip-path="url(#p57fb89b458)">
     <use xlink:href="#mddab1137c1" x="0" y="345.6" style="fill: #ff7f0e; fill-opacity: 0.2; stroke: #ff7f0e; stroke-opacity: 0.2"/>
    </g>
   </g>
   <g id="matplotlib.axis_1">
    <g id="xtick_1">
     <g id="line2d_1">
      <defs>
       <path id="m8e443ea7a9" d="M 0 0 
L 0 3.5 
" style="stroke: #000000; stroke-width: 0.8"/>
      </defs>
      <g>
       <use xlink:href="#m8e443ea7a9" x="61.658484" y="307.584" style="stroke: #000000; stroke-width: 0.8"/>
      </g>
     </g>
     <g id="text_1">
      <!-- $\mathdefault{10^{-1}}$ -->
      <g transform="translate(49.908484 322.182437) scale(0.1 -0.1)">
       <defs>
        <path id="DejaVuSans-31" d="M 794 531 
L 1825 531 
L 1825 4091 
L 703 3866 
L 703 4441 
L 1819 4666 
L 2450 4666 
L 2450 531 
L 3481 531 
L 3481 0 
L 794 0 
L 794 531 
z
" transform="scale(0.015625)"/>
        <path id="DejaVuSans-30" d="M 2034 4250 
Q 1547 4250 1301 3770 
Q 1056 3291 1056 2328 
Q 1056 1369 1301 889 
Q 1547 409 2034 409 
Q 2525 409 2770 889 
Q 3016 1369 3016 2328 
Q 3016 3291 2770 3770 
Q 2525 4250 2034 4250 
z
M 2034 4750 
Q 2819 4750 3233 4129 
Q 3647 3509 3647 2328 
Q 3647 1150 3233 529 
Q 2819 -91 2034 -91 
Q 1250 -91 836 529 
Q 422 1150 422 2328 
Q 422 3509 836 4129 
Q 1250 4750 2034 4750 
z
" transform="scale(0.015625)"/>
        <path id="DejaVuSans-2212" d="M 678 2272 
L 4684 2272 
L 4684 1741 
L 678 1741 
L 678 2272 
z
" transform="scale(0.015625)"/>
       </defs>
       <use xlink:href="#DejaVuSans-31" transform="translate(0 0.684375)"/>
       <use xlink:href="#DejaVuSans-30" transform="translate(63.623047 0.684375)"/>
       <use xlink:href="#DejaVuSans-2212" transform="translate(128.203125 38.965625) scale(0.7)"/>
       <use xlink:href="#DejaVuSans-31" transform="translate(186.855469 38.965625) scale(0.7)"/>
      </g>
     </g>
    </g>
    <g id="xtick_2">
     <g id="line2d_2">
      <g>
       <use xlink:href="#m8e443ea7a9" x="187.282685" y="307.584" style="stroke: #000000; stroke-width: 0.8"/>
      </g>
     </g>
     <g id="text_2">
      <!-- $\mathdefault{10^{0}}$ -->
      <g transform="translate(178.482685 322.182437) scale(0.1 -0.1)">
       <use xlink:href="#DejaVuSans-31" transform="translate(0 0.765625)"/>
       <use xlink:href="#DejaVuSans-30" transform="translate(63.623047 0.765625)"/>
       <use xlink:href="#DejaVuSans-30" transform="translate(128.203125 39.046875) scale(0.7)"/>
      </g>
     </g>
    </g>
    <g id="xtick_3">
     <g id="line2d_3">
      <g>
       <use xlink:href="#m8e443ea7a9" x="312.906887" y="307.584" style="stroke: #000000; stroke-width: 0.8"/>
      </g>
     </g>
     <g id="text_3">
      <!-- $\mathdefault{10^{1}}$ -->
      <g transform="translate(304.106887 322.182437) scale(0.1 -0.1)">
       <use xlink:href="#DejaVuSans-31" transform="translate(0 0.684375)"/>
       <use xlink:href="#DejaVuSans-30" transform="translate(63.623047 0.684375)"/>
       <use xlink:href="#DejaVuSans-31" transform="translate(128.203125 38.965625) scale(0.7)"/>
      </g>
     </g>
    </g>
    <g id="xtick_4">
     <g id="line2d_4">
      <defs>
       <path id="m86db8d7a8a" d="M 0 0 
L 0 2 
" style="stroke: #000000; stroke-width: 0.6"/>
      </defs>
      <g>
       <use xlink:href="#m86db8d7a8a" x="99.475137" y="307.584" style="stroke: #000000; stroke-width: 0.6"/>
      </g>
     </g>
    </g>
    <g id="xtick_5">
     <g id="line2d_5">
      <g>
       <use xlink:href="#m86db8d7a8a" x="121.596461" y="307.584" style="stroke: #000000; stroke-width: 0.6"/>
      </g>
     </g>
    </g>
    <g id="xtick_6">
     <g id="line2d_6">
      <g>
       <use xlink:href="#m86db8d7a8a" x="137.29179" y="307.584" style="stroke: #000000; stroke-width: 0.6"/>
      </g>
     </g>
    </g>
    <g id="xtick_7">
     <g id="line2d_7">
      <g>
       <use xlink:href="#m86db8d7a8a" x="149.466033" y="307.584" style="stroke: #000000; stroke-width: 0.6"/>
      </g>
     </g>
    </g>
    <g id="xtick_8">
     <g id="line2d_8">
      <g>
       <use xlink:href="#m86db8d7a8a" x="159.413113" y="307.584" style="stroke: #000000; stroke-width: 0.6"/>
      </g>
     </g>
    </g>
    <g id="xtick_9">
     <g id="line2d_9">
      <g>
       <use xlink:href="#m86db8d7a8a" x="167.82325" y="307.584" style="stroke: #000000; stroke-width: 0.6"/>
      </g>
     </g>
    </g>
    <g id="xtick_10">
     <g id="line2d_10">
      <g>
       <use xlink:href="#m86db8d7a8a" x="175.108442" y="307.584" style="stroke: #000000; stroke-width: 0.6"/>
      </g>
     </g>
    </g>
    <g id="xtick_11">
     <g id="line2d_11">
      <g>
       <use xlink:href="#m86db8d7a8a" x="181.534437" y="307.584" style="stroke: #000000; stroke-width: 0.6"/>
      </g>
     </g>
    </g>
    <g id="xtick_12">
     <g id="line2d_12">
      <g>
       <use xlink:href="#m86db8d7a8a" x="225.099338" y="307.584" style="stroke: #000000; stroke-width: 0.6"/>
      </g>
     </g>
    </g>
    <g id="xtick_13">
     <g id="line2d_13">
      <g>
       <use xlink:href="#m86db8d7a8a" x="247.220662" y="307.584" style="stroke: #000000; stroke-width: 0.6"/>
      </g>
     </g>
    </g>
    <g id="xtick_14">
     <g id="line2d_14">
      <g>
       <use xlink:href="#m86db8d7a8a" x="262.915991" y="307.584" style="stroke: #000000; stroke-width: 0.6"/>
      </g>
     </g>
    </g>
    <g id="xtick_15">
     <g id="line2d_15">
      <g>
       <use xlink:href="#m86db8d7a8a" x="275.090234" y="307.584" style="stroke: #000000; stroke-width: 0.6"/>
      </g>
     </g>
    </g>
    <g id="xtick_16">
     <g id="line2d_16">
      <g>
       <use xlink:href="#m86db8d7a8a" x="285.037315" y="307.584" style="stroke: #000000; stroke-width: 0.6"/>
      </g>
     </g>
    </g>
    <g id="xtick_17">
     <g id="line2d_17">
      <g>
       <use xlink:href="#m86db8d7a8a" x="293.447452" y="307.584" style="stroke: #000000; stroke-width: 0.6"/>
      </g>
     </g>
    </g>
    <g id="xtick_18">
     <g id="line2d_18">
      <g>
       <use xlink:href="#m86db8d7a8a" x="300.732644" y="307.584" style="stroke: #000000; stroke-width: 0.6"/>
      </g>
     </g>
    </g>
    <g id="xtick_19">
     <g id="line2d_19">
      <g>
       <use xlink:href="#m86db8d7a8a" x="307.158638" y="307.584" style="stroke: #000000; stroke-width: 0.6"/>
      </g>
     </g>
    </g>
    <g id="xtick_20">
     <g id="line2d_20">
      <g>
       <use xlink:href="#m86db8d7a8a" x="350.723539" y="307.584" style="stroke: #000000; stroke-width: 0.6"/>
      </g>
     </g>
    </g>
    <g id="xtick_21">
     <g id="line2d_21">
      <g>
       <use xlink:href="#m86db8d7a8a" x="372.844863" y="307.584" style="stroke: #000000; stroke-width: 0.6"/>
      </g>
     </g>
    </g>
    <g id="xtick_22">
     <g id="line2d_22">
      <g>
       <use xlink:href="#m86db8d7a8a" x="388.540192" y="307.584" style="stroke: #000000; stroke-width: 0.6"/>
      </g>
     </g>
    </g>
    <g id="xtick_23">
     <g id="line2d_23">
      <g>
       <use xlink:href="#m86db8d7a8a" x="400.714435" y="307.584" style="stroke: #000000; stroke-width: 0.6"/>
      </g>
     </g>
    </g>
    <g id="xtick_24">
     <g id="line2d_24">
      <g>
       <use xlink:href="#m86db8d7a8a" x="410.661516" y="307.584" style="stroke: #000000; stroke-width: 0.6"/>
      </g>
     </g>
    </g>
    <g id="text_4">
     <!-- Q/P -->
     <g transform="translate(227.524844 335.860562) scale(0.1 -0.1)">
      <defs>
       <path id="DejaVuSans-51" d="M 2522 4238 
Q 1834 4238 1429 3725 
Q 1025 3213 1025 2328 
Q 1025 1447 1429 934 
Q 1834 422 2522 422 
Q 3209 422 3611 934 
Q 4013 1447 4013 2328 
Q 4013 3213 3611 3725 
Q 3209 4238 2522 4238 
z
M 3406 84 
L 4238 -825 
L 3475 -825 
L 2784 -78 
Q 2681 -84 2626 -87 
Q 2572 -91 2522 -91 
Q 1538 -91 948 567 
Q 359 1225 359 2328 
Q 359 3434 948 4092 
Q 1538 4750 2522 4750 
Q 3503 4750 4090 4092 
Q 4678 3434 4678 2328 
Q 4678 1516 4351 937 
Q 4025 359 3406 84 
z
" transform="scale(0.015625)"/>
       <path id="DejaVuSans-2f" d="M 1625 4666 
L 2156 4666 
L 531 -594 
L 0 -594 
L 1625 4666 
z
" transform="scale(0.015625)"/>
       <path id="DejaVuSans-50" d="M 1259 4147 
L 1259 2394 
L 2053 2394 
Q 2494 2394 2734 2622 
Q 2975 2850 2975 3272 
Q 2975 3691 2734 3919 
Q 2494 4147 2053 4147 
L 1259 4147 
z
M 628 4666 
L 2053 4666 
Q 2838 4666 3239 4311 
Q 3641 3956 3641 3272 
Q 3641 2581 3239 2228 
Q 2838 1875 2053 1875 
L 1259 1875 
L 1259 0 
L 628 0 
L 628 4666 
z
" transform="scale(0.015625)"/>
      </defs>
      <use xlink:href="#DejaVuSans-51"/>
      <use xlink:href="#DejaVuSans-2f" x="78.710938"/>
      <use xlink:href="#DejaVuSans-50" x="112.402344"/>
     </g>
    </g>
   </g>
   <g id="matplotlib.axis_2">
    <g id="ytick_1">
     <g id="line2d_25">
      <defs>
       <path id="m43aab71675" d="M 0 0 
L -3.5 0 
" style="stroke: #000000; stroke-width: 0.8"/>
      </defs>
      <g>
       <use xlink:href="#m43aab71675" x="57.6" y="299.275352" style="stroke: #000000; stroke-width: 0.8"/>
      </g>
     </g>
     <g id="text_5">
      <!-- 0 -->
      <g transform="translate(44.2375 303.074571) scale(0.1 -0.1)">
       <use xlink:href="#DejaVuSans-30"/>
      </g>
     </g>
    </g>
    <g id="ytick_2">
     <g id="line2d_26">
      <g>
       <use xlink:href="#m43aab71675" x="57.6" y="244.384658" style="stroke: #000000; stroke-width: 0.8"/>
      </g>
     </g>
     <g id="text_6">
      <!-- 500 -->
      <g transform="translate(31.5125 248.183876) scale(0.1 -0.1)">
       <defs>
        <path id="DejaVuSans-35" d="M 691 4666 
L 3169 4666 
L 3169 4134 
L 1269 4134 
L 1269 2991 
Q 1406 3038 1543 3061 
Q 1681 3084 1819 3084 
Q 2600 3084 3056 2656 
Q 3513 2228 3513 1497 
Q 3513 744 3044 326 
Q 2575 -91 1722 -91 
Q 1428 -91 1123 -41 
Q 819 9 494 109 
L 494 744 
Q 775 591 1075 516 
Q 1375 441 1709 441 
Q 2250 441 2565 725 
Q 2881 1009 2881 1497 
Q 2881 1984 2565 2268 
Q 2250 2553 1709 2553 
Q 1456 2553 1204 2497 
Q 953 2441 691 2322 
L 691 4666 
z
" transform="scale(0.015625)"/>
       </defs>
       <use xlink:href="#DejaVuSans-35"/>
       <use xlink:href="#DejaVuSans-30" x="63.623047"/>
       <use xlink:href="#DejaVuSans-30" x="127.246094"/>
      </g>
     </g>
    </g>
    <g id="ytick_3">
     <g id="line2d_27">
      <g>
       <use xlink:href="#m43aab71675" x="57.6" y="189.493963" style="stroke: #000000; stroke-width: 0.8"/>
      </g>
     </g>
     <g id="text_7">
      <!-- 1000 -->
      <g transform="translate(25.15 193.293182) scale(0.1 -0.1)">
       <use xlink:href="#DejaVuSans-31"/>
       <use xlink:href="#DejaVuSans-30" x="63.623047"/>
       <use xlink:href="#DejaVuSans-30" x="127.246094"/>
       <use xlink:href="#DejaVuSans-30" x="190.869141"/>
      </g>
     </g>
    </g>
    <g id="ytick_4">
     <g id="line2d_28">
      <g>
       <use xlink:href="#m43aab71675" x="57.6" y="134.603269" style="stroke: #000000; stroke-width: 0.8"/>
      </g>
     </g>
     <g id="text_8">
      <!-- 1500 -->
      <g transform="translate(25.15 138.402488) scale(0.1 -0.1)">
       <use xlink:href="#DejaVuSans-31"/>
       <use xlink:href="#DejaVuSans-35" x="63.623047"/>
       <use xlink:href="#DejaVuSans-30" x="127.246094"/>
       <use xlink:href="#DejaVuSans-30" x="190.869141"/>
      </g>
     </g>
    </g>
    <g id="ytick_5">
     <g id="line2d_29">
      <g>
       <use xlink:href="#m43aab71675" x="57.6" y="79.712575" style="stroke: #000000; stroke-width: 0.8"/>
      </g>
     </g>
     <g id="text_9">
      <!-- 2000 -->
      <g transform="translate(25.15 83.511794) scale(0.1 -0.1)">
       <defs>
        <path id="DejaVuSans-32" d="M 1228 531 
L 3431 531 
L 3431 0 
L 469 0 
L 469 531 
Q 828 903 1448 1529 
Q 2069 2156 2228 2338 
Q 2531 2678 2651 2914 
Q 2772 3150 2772 3378 
Q 2772 3750 2511 3984 
Q 2250 4219 1831 4219 
Q 1534 4219 1204 4116 
Q 875 4013 500 3803 
L 500 4441 
Q 881 4594 1212 4672 
Q 1544 4750 1819 4750 
Q 2544 4750 2975 4387 
Q 3406 4025 3406 3419 
Q 3406 3131 3298 2873 
Q 3191 2616 2906 2266 
Q 2828 2175 2409 1742 
Q 1991 1309 1228 531 
z
" transform="scale(0.015625)"/>
       </defs>
       <use xlink:href="#DejaVuSans-32"/>
       <use xlink:href="#DejaVuSans-30" x="63.623047"/>
       <use xlink:href="#DejaVuSans-30" x="127.246094"/>
       <use xlink:href="#DejaVuSans-30" x="190.869141"/>
      </g>
     </g>
    </g>
    <g id="text_10">
     <!-- GFLOPS -->
     <g transform="translate(19.070312 194.007688) rotate(-90) scale(0.1 -0.1)">
      <defs>
       <path id="DejaVuSans-47" d="M 3809 666 
L 3809 1919 
L 2778 1919 
L 2778 2438 
L 4434 2438 
L 4434 434 
Q 4069 175 3628 42 
Q 3188 -91 2688 -91 
Q 1594 -91 976 548 
Q 359 1188 359 2328 
Q 359 3472 976 4111 
Q 1594 4750 2688 4750 
Q 3144 4750 3555 4637 
Q 3966 4525 4313 4306 
L 4313 3634 
Q 3963 3931 3569 4081 
Q 3175 4231 2741 4231 
Q 1884 4231 1454 3753 
Q 1025 3275 1025 2328 
Q 1025 1384 1454 906 
Q 1884 428 2741 428 
Q 3075 428 3337 486 
Q 3600 544 3809 666 
z
" transform="scale(0.015625)"/>
       <path id="DejaVuSans-46" d="M 628 4666 
L 3309 4666 
L 3309 4134 
L 1259 4134 
L 1259 2759 
L 3109 2759 
L 3109 2228 
L 1259 2228 
L 1259 0 
L 628 0 
L 628 4666 
z
" transform="scale(0.015625)"/>
       <path id="DejaVuSans-4c" d="M 628 4666 
L 1259 4666 
L 1259 531 
L 3531 531 
L 3531 0 
L 628 0 
L 628 4666 
z
" transform="scale(0.015625)"/>
       <path id="DejaVuSans-4f" d="M 2522 4238 
Q 1834 4238 1429 3725 
Q 1025 3213 1025 2328 
Q 1025 1447 1429 934 
Q 1834 422 2522 422 
Q 3209 422 3611 934 
Q 4013 1447 4013 2328 
Q 4013 3213 3611 3725 
Q 3209 4238 2522 4238 
z
M 2522 4750 
Q 3503 4750 4090 4092 
Q 4678 3434 4678 2328 
Q 4678 1225 4090 567 
Q 3503 -91 2522 -91 
Q 1538 -91 948 565 
Q 359 1222 359 2328 
Q 359 3434 948 4092 
Q 1538 4750 2522 4750 
z
" transform="scale(0.015625)"/>
       <path id="DejaVuSans-53" d="M 3425 4513 
L 3425 3897 
Q 3066 4069 2747 4153 
Q 2428 4238 2131 4238 
Q 1616 4238 1336 4038 
Q 1056 3838 1056 3469 
Q 1056 3159 1242 3001 
Q 1428 2844 1947 2747 
L 2328 2669 
Q 3034 2534 3370 2195 
Q 3706 1856 3706 1288 
Q 3706 609 3251 259 
Q 2797 -91 1919 -91 
Q 1588 -91 1214 -16 
Q 841 59 441 206 
L 441 856 
Q 825 641 1194 531 
Q 1563 422 1919 422 
Q 2459 422 2753 634 
Q 3047 847 3047 1241 
Q 3047 1584 2836 1778 
Q 2625 1972 2144 2069 
L 1759 2144 
Q 1053 2284 737 2584 
Q 422 2884 422 3419 
Q 422 4038 858 4394 
Q 1294 4750 2059 4750 
Q 2388 4750 2728 4690 
Q 3069 4631 3425 4513 
z
" transform="scale(0.015625)"/>
      </defs>
      <use xlink:href="#DejaVuSans-47"/>
      <use xlink:href="#DejaVuSans-46" x="77.490234"/>
      <use xlink:href="#DejaVuSans-4c" x="135.009766"/>
      <use xlink:href="#DejaVuSans-4f" x="187.097656"/>
      <use xlink:href="#DejaVuSans-50" x="265.808594"/>
      <use xlink:href="#DejaVuSans-53" x="326.111328"/>
     </g>
    </g>
   </g>
   <g id="line2d_30">
    <path d="M 111.64938 284.7443 
L 149.466033 282.161715 
L 187.282685 282.383315 
L 225.099338 277.805126 
L 262.915991 277.477357 
L 300.732644 272.696657 
" clip-path="url(#p57fb89b458)" style="fill: none; stroke: #1f77b4; stroke-width: 1.5; stroke-linecap: square"/>
   </g>
   <g id="line2d_31">
    <path d="M 73.832727 292.302677 
L 111.64938 295.2753 
L 149.466033 276.168732 
L 171.587356 249.29184 
L 187.282685 278.481679 
L 209.404009 77.714782 
L 225.099338 260.050789 
L 247.220662 249.910687 
L 262.915991 246.548644 
L 285.037315 76.374221 
L 300.732644 270.55741 
L 322.853967 251.324328 
L 338.549296 285.898829 
L 376.365949 277.564049 
L 398.487273 256.822254 
" clip-path="url(#p57fb89b458)" style="fill: none; stroke: #ff7f0e; stroke-width: 1.5; stroke-linecap: square"/>
   </g>
   <g id="line2d_32"/>
   <g id="line2d_33"/>
   <g id="patch_3">
    <path d="M 57.6 307.584 
L 57.6 41.472 
" style="fill: none; stroke: #000000; stroke-width: 0.8; stroke-linejoin: miter; stroke-linecap: square"/>
   </g>
   <g id="patch_4">
    <path d="M 414.72 307.584 
L 414.72 41.472 
" style="fill: none; stroke: #000000; stroke-width: 0.8; stroke-linejoin: miter; stroke-linecap: square"/>
   </g>
   <g id="patch_5">
    <path d="M 57.6 307.584 
L 414.72 307.584 
" style="fill: none; stroke: #000000; stroke-width: 0.8; stroke-linejoin: miter; stroke-linecap: square"/>
   </g>
   <g id="patch_6">
    <path d="M 57.6 41.472 
L 414.72 41.472 
" style="fill: none; stroke: #000000; stroke-width: 0.8; stroke-linejoin: miter; stroke-linecap: square"/>
   </g>
   <g id="text_11">
    <path d="M 174.765481 242.651215 
Q 174.004544 242.651215 173.620169 243.401215 
Q 173.237356 244.149652 173.237356 245.65434 
Q 173.237356 247.152777 173.620169 247.902777 
Q 174.004544 248.652777 174.765481 248.652777 
Q 175.532669 248.652777 175.915481 247.902777 
Q 176.299856 247.152777 176.299856 245.65434 
Q 176.299856 244.149652 175.915481 243.401215 
Q 175.532669 242.651215 174.765481 242.651215 
z
M 174.765481 241.869965 
Q 175.992044 241.869965 176.638919 242.840277 
Q 177.285794 243.809027 177.285794 245.65434 
Q 177.285794 247.494965 176.638919 248.465277 
Q 175.992044 249.434027 174.765481 249.434027 
Q 173.540481 249.434027 172.893606 248.465277 
Q 172.246731 247.494965 172.246731 245.65434 
Q 172.246731 243.809027 172.893606 242.840277 
Q 173.540481 241.869965 174.765481 241.869965 
z
M 179.018411 248.051215 
L 180.049661 248.051215 
L 180.049661 249.29184 
L 179.018411 249.29184 
L 179.018411 248.051215 
z
M 181.948685 242.001215 
L 186.636185 242.001215 
L 186.636185 242.421527 
L 183.98931 249.29184 
L 182.959622 249.29184 
L 185.450247 242.832465 
L 181.948685 242.832465 
L 181.948685 242.001215 
z
M 188.570364 242.001215 
L 192.442239 242.001215 
L 192.442239 242.832465 
L 189.473489 242.832465 
L 189.473489 244.618402 
Q 189.687552 244.544965 189.901614 244.509027 
Q 190.117239 244.47309 190.332864 244.47309 
Q 191.553177 244.47309 192.265677 245.14184 
Q 192.979739 245.81059 192.979739 246.952777 
Q 192.979739 248.12934 192.246927 248.782465 
Q 191.514114 249.434027 190.181302 249.434027 
Q 189.721927 249.434027 189.245364 249.355902 
Q 188.770364 249.277777 188.262552 249.121527 
L 188.262552 248.12934 
Q 188.701614 248.368402 189.170364 248.48559 
Q 189.639114 248.602777 190.160989 248.602777 
Q 191.006302 248.602777 191.498489 248.159027 
Q 191.992239 247.715277 191.992239 246.952777 
Q 191.992239 246.19184 191.498489 245.74809 
Q 191.006302 245.302777 190.160989 245.302777 
Q 189.765677 245.302777 189.371927 245.390277 
Q 188.979739 245.477777 188.570364 245.663715 
L 188.570364 242.001215 
z
" style="stroke: #ffffff; stroke-width: 4"/>
    <path d="M 174.765481 242.651215 
Q 174.004544 242.651215 173.620169 243.401215 
Q 173.237356 244.149652 173.237356 245.65434 
Q 173.237356 247.152777 173.620169 247.902777 
Q 174.004544 248.652777 174.765481 248.652777 
Q 175.532669 248.652777 175.915481 247.902777 
Q 176.299856 247.152777 176.299856 245.65434 
Q 176.299856 244.149652 175.915481 243.401215 
Q 175.532669 242.651215 174.765481 242.651215 
z
M 174.765481 241.869965 
Q 175.992044 241.869965 176.638919 242.840277 
Q 177.285794 243.809027 177.285794 245.65434 
Q 177.285794 247.494965 176.638919 248.465277 
Q 175.992044 249.434027 174.765481 249.434027 
Q 173.540481 249.434027 172.893606 248.465277 
Q 172.246731 247.494965 172.246731 245.65434 
Q 172.246731 243.809027 172.893606 242.840277 
Q 173.540481 241.869965 174.765481 241.869965 
z
M 179.018411 248.051215 
L 180.049661 248.051215 
L 180.049661 249.29184 
L 179.018411 249.29184 
L 179.018411 248.051215 
z
M 181.948685 242.001215 
L 186.636185 242.001215 
L 186.636185 242.421527 
L 183.98931 249.29184 
L 182.959622 249.29184 
L 185.450247 242.832465 
L 181.948685 242.832465 
L 181.948685 242.001215 
z
M 188.570364 242.001215 
L 192.442239 242.001215 
L 192.442239 242.832465 
L 189.473489 242.832465 
L 189.473489 244.618402 
Q 189.687552 244.544965 189.901614 244.509027 
Q 190.117239 244.47309 190.332864 244.47309 
Q 191.553177 244.47309 192.265677 245.14184 
Q 192.979739 245.81059 192.979739 246.952777 
Q 192.979739 248.12934 192.246927 248.782465 
Q 191.514114 249.434027 190.181302 249.434027 
Q 189.721927 249.434027 189.245364 249.355902 
Q 188.770364 249.277777 188.262552 249.121527 
L 188.262552 248.12934 
Q 188.701614 248.368402 189.170364 248.48559 
Q 189.639114 248.602777 190.160989 248.602777 
Q 191.006302 248.602777 191.498489 248.159027 
Q 191.992239 247.715277 191.992239 246.952777 
Q 191.992239 246.19184 191.498489 245.74809 
Q 191.006302 245.302777 190.160989 245.302777 
Q 189.765677 245.302777 189.371927 245.390277 
Q 188.979739 245.477777 188.570364 245.663715 
L 188.570364 242.001215 
z
"/>
   </g>
   <g id="text_12">
    <path d="M 210.644634 76.885095 
L 212.255572 76.885095 
L 212.255572 71.322595 
L 210.502447 71.674157 
L 210.502447 70.77572 
L 212.246197 70.424157 
L 213.232134 70.424157 
L 213.232134 76.885095 
L 214.843072 76.885095 
L 214.843072 77.714782 
L 210.644634 77.714782 
L 210.644634 76.885095 
z
M 216.835064 76.474157 
L 217.866314 76.474157 
L 217.866314 77.714782 
L 216.835064 77.714782 
L 216.835064 76.474157 
z
M 220.024712 70.424157 
L 223.896587 70.424157 
L 223.896587 71.255407 
L 220.927837 71.255407 
L 220.927837 73.041345 
Q 221.1419 72.967907 221.355962 72.93197 
Q 221.571587 72.896032 221.787212 72.896032 
Q 223.007525 72.896032 223.720025 73.564782 
Q 224.434087 74.233532 224.434087 75.37572 
Q 224.434087 76.552282 223.701275 77.205407 
Q 222.968462 77.85697 221.63565 77.85697 
Q 221.176275 77.85697 220.699712 77.778845 
Q 220.224712 77.70072 219.7169 77.54447 
L 219.7169 76.552282 
Q 220.155962 76.791345 220.624712 76.908532 
Q 221.093462 77.02572 221.615337 77.02572 
Q 222.46065 77.02572 222.952837 76.58197 
Q 223.446587 76.13822 223.446587 75.37572 
Q 223.446587 74.614782 222.952837 74.171032 
Q 222.46065 73.72572 221.615337 73.72572 
Q 221.220025 73.72572 220.826275 73.81322 
Q 220.434087 73.90072 220.024712 74.086657 
L 220.024712 70.424157 
z
" style="stroke: #ffffff; stroke-width: 4"/>
    <path d="M 210.644634 76.885095 
L 212.255572 76.885095 
L 212.255572 71.322595 
L 210.502447 71.674157 
L 210.502447 70.77572 
L 212.246197 70.424157 
L 213.232134 70.424157 
L 213.232134 76.885095 
L 214.843072 76.885095 
L 214.843072 77.714782 
L 210.644634 77.714782 
L 210.644634 76.885095 
z
M 216.835064 76.474157 
L 217.866314 76.474157 
L 217.866314 77.714782 
L 216.835064 77.714782 
L 216.835064 76.474157 
z
M 220.024712 70.424157 
L 223.896587 70.424157 
L 223.896587 71.255407 
L 220.927837 71.255407 
L 220.927837 73.041345 
Q 221.1419 72.967907 221.355962 72.93197 
Q 221.571587 72.896032 221.787212 72.896032 
Q 223.007525 72.896032 223.720025 73.564782 
Q 224.434087 74.233532 224.434087 75.37572 
Q 224.434087 76.552282 223.701275 77.205407 
Q 222.968462 77.85697 221.63565 77.85697 
Q 221.176275 77.85697 220.699712 77.778845 
Q 220.224712 77.70072 219.7169 77.54447 
L 219.7169 76.552282 
Q 220.155962 76.791345 220.624712 76.908532 
Q 221.093462 77.02572 221.615337 77.02572 
Q 222.46065 77.02572 222.952837 76.58197 
Q 223.446587 76.13822 223.446587 75.37572 
Q 223.446587 74.614782 222.952837 74.171032 
Q 222.46065 73.72572 221.615337 73.72572 
Q 221.220025 73.72572 220.826275 73.81322 
Q 220.434087 73.90072 220.024712 74.086657 
L 220.024712 70.424157 
z
"/>
   </g>
   <g id="text_13">
    <path d="M 288.338877 72.336721 
Q 287.674815 72.336721 287.285752 72.791408 
Q 286.898252 73.244533 286.898252 74.035158 
Q 286.898252 74.821096 287.285752 75.278908 
Q 287.674815 75.735158 288.338877 75.735158 
Q 289.00294 75.735158 289.39044 75.278908 
Q 289.77794 74.821096 289.77794 74.035158 
Q 289.77794 73.244533 289.39044 72.791408 
Q 289.00294 72.336721 288.338877 72.336721 
z
M 290.29669 69.244533 
L 290.29669 70.142971 
Q 289.924815 69.967971 289.54669 69.875783 
Q 289.168565 69.782033 288.79669 69.782033 
Q 287.820127 69.782033 287.304502 70.441408 
Q 286.79044 71.100783 286.717002 72.433596 
Q 287.004502 72.008596 287.438877 71.782033 
Q 287.874815 71.555471 288.39669 71.555471 
Q 289.495127 71.555471 290.132627 72.222658 
Q 290.770127 72.888283 290.770127 74.035158 
Q 290.770127 75.158596 290.106065 75.838283 
Q 289.442002 76.516408 288.338877 76.516408 
Q 287.073252 76.516408 286.404502 75.547658 
Q 285.735752 74.577346 285.735752 72.736721 
Q 285.735752 71.008596 286.556065 69.980471 
Q 287.376377 68.952346 288.757627 68.952346 
Q 289.129502 68.952346 289.507627 69.025783 
Q 289.885752 69.099221 290.29669 69.244533 
z
M 292.468369 75.133596 
L 293.499619 75.133596 
L 293.499619 76.374221 
L 292.468369 76.374221 
L 292.468369 75.133596 
z
M 297.756455 69.733596 
Q 296.995518 69.733596 296.611143 70.483596 
Q 296.22833 71.232033 296.22833 72.736721 
Q 296.22833 74.235158 296.611143 74.985158 
Q 296.995518 75.735158 297.756455 75.735158 
Q 298.523643 75.735158 298.906455 74.985158 
Q 299.29083 74.235158 299.29083 72.736721 
Q 299.29083 71.232033 298.906455 70.483596 
Q 298.523643 69.733596 297.756455 69.733596 
z
M 297.756455 68.952346 
Q 298.983018 68.952346 299.629893 69.922658 
Q 300.276768 70.891408 300.276768 72.736721 
Q 300.276768 74.577346 299.629893 75.547658 
Q 298.983018 76.516408 297.756455 76.516408 
Q 296.531455 76.516408 295.88458 75.547658 
Q 295.237705 74.577346 295.237705 72.736721 
Q 295.237705 70.891408 295.88458 69.922658 
Q 296.531455 68.952346 297.756455 68.952346 
z
" style="stroke: #ffffff; stroke-width: 4"/>
    <path d="M 288.338877 72.336721 
Q 287.674815 72.336721 287.285752 72.791408 
Q 286.898252 73.244533 286.898252 74.035158 
Q 286.898252 74.821096 287.285752 75.278908 
Q 287.674815 75.735158 288.338877 75.735158 
Q 289.00294 75.735158 289.39044 75.278908 
Q 289.77794 74.821096 289.77794 74.035158 
Q 289.77794 73.244533 289.39044 72.791408 
Q 289.00294 72.336721 288.338877 72.336721 
z
M 290.29669 69.244533 
L 290.29669 70.142971 
Q 289.924815 69.967971 289.54669 69.875783 
Q 289.168565 69.782033 288.79669 69.782033 
Q 287.820127 69.782033 287.304502 70.441408 
Q 286.79044 71.100783 286.717002 72.433596 
Q 287.004502 72.008596 287.438877 71.782033 
Q 287.874815 71.555471 288.39669 71.555471 
Q 289.495127 71.555471 290.132627 72.222658 
Q 290.770127 72.888283 290.770127 74.035158 
Q 290.770127 75.158596 290.106065 75.838283 
Q 289.442002 76.516408 288.338877 76.516408 
Q 287.073252 76.516408 286.404502 75.547658 
Q 285.735752 74.577346 285.735752 72.736721 
Q 285.735752 71.008596 286.556065 69.980471 
Q 287.376377 68.952346 288.757627 68.952346 
Q 289.129502 68.952346 289.507627 69.025783 
Q 289.885752 69.099221 290.29669 69.244533 
z
M 292.468369 75.133596 
L 293.499619 75.133596 
L 293.499619 76.374221 
L 292.468369 76.374221 
L 292.468369 75.133596 
z
M 297.756455 69.733596 
Q 296.995518 69.733596 296.611143 70.483596 
Q 296.22833 71.232033 296.22833 72.736721 
Q 296.22833 74.235158 296.611143 74.985158 
Q 296.995518 75.735158 297.756455 75.735158 
Q 298.523643 75.735158 298.906455 74.985158 
Q 299.29083 74.235158 299.29083 72.736721 
Q 299.29083 71.232033 298.906455 70.483596 
Q 298.523643 69.733596 297.756455 69.733596 
z
M 297.756455 68.952346 
Q 298.983018 68.952346 299.629893 69.922658 
Q 300.276768 70.891408 300.276768 72.736721 
Q 300.276768 74.577346 299.629893 75.547658 
Q 298.983018 76.516408 297.756455 76.516408 
Q 296.531455 76.516408 295.88458 75.547658 
Q 295.237705 74.577346 295.237705 72.736721 
Q 295.237705 70.891408 295.88458 69.922658 
Q 296.531455 68.952346 297.756455 68.952346 
z
"/>
   </g>
   <g id="text_14">
    <path d="M 324.094592 250.49464 
L 325.70553 250.49464 
L 325.70553 244.93214 
L 323.952405 245.283703 
L 323.952405 244.385265 
L 325.696155 244.033703 
L 326.682092 244.033703 
L 326.682092 250.49464 
L 328.29303 250.49464 
L 328.29303 251.324328 
L 324.094592 251.324328 
L 324.094592 250.49464 
z
M 331.135022 250.49464 
L 334.577209 250.49464 
L 334.577209 251.324328 
L 329.949084 251.324328 
L 329.949084 250.49464 
Q 330.510022 249.91339 331.478772 248.935265 
Q 332.449084 247.955578 332.697522 247.671203 
Q 333.170959 247.139953 333.358459 246.771203 
Q 333.547522 246.402453 333.547522 246.046203 
Q 333.547522 245.464953 333.139709 245.099328 
Q 332.731897 244.73214 332.077209 244.73214 
Q 331.613147 244.73214 331.097522 244.893078 
Q 330.583459 245.054015 329.997522 245.38214 
L 329.997522 244.385265 
Q 330.592834 244.146203 331.110022 244.024328 
Q 331.628772 243.902453 332.058459 243.902453 
Q 333.191272 243.902453 333.864709 244.46964 
Q 334.538147 245.035265 334.538147 245.98214 
Q 334.538147 246.43214 334.369397 246.835265 
Q 334.202209 247.236828 333.756897 247.783703 
Q 333.635022 247.92589 332.980334 248.602453 
Q 332.327209 249.279015 331.135022 250.49464 
z
M 336.647327 250.083703 
L 337.678577 250.083703 
L 337.678577 251.324328 
L 336.647327 251.324328 
L 336.647327 250.083703 
z
M 341.935413 244.683703 
Q 341.174475 244.683703 340.7901 245.433703 
Q 340.407288 246.18214 340.407288 247.686828 
Q 340.407288 249.185265 340.7901 249.935265 
Q 341.174475 250.685265 341.935413 250.685265 
Q 342.7026 250.685265 343.085413 249.935265 
Q 343.469788 249.185265 343.469788 247.686828 
Q 343.469788 246.18214 343.085413 245.433703 
Q 342.7026 244.683703 341.935413 244.683703 
z
M 341.935413 243.902453 
Q 343.161975 243.902453 343.80885 244.872765 
Q 344.455725 245.841515 344.455725 247.686828 
Q 344.455725 249.527453 343.80885 250.497765 
Q 343.161975 251.466515 341.935413 251.466515 
Q 340.710413 251.466515 340.063538 250.497765 
Q 339.416663 249.527453 339.416663 247.686828 
Q 339.416663 245.841515 340.063538 244.872765 
Q 340.710413 243.902453 341.935413 243.902453 
z
" style="stroke: #ffffff; stroke-width: 4"/>
    <path d="M 324.094592 250.49464 
L 325.70553 250.49464 
L 325.70553 244.93214 
L 323.952405 245.283703 
L 323.952405 244.385265 
L 325.696155 244.033703 
L 326.682092 244.033703 
L 326.682092 250.49464 
L 328.29303 250.49464 
L 328.29303 251.324328 
L 324.094592 251.324328 
L 324.094592 250.49464 
z
M 331.135022 250.49464 
L 334.577209 250.49464 
L 334.577209 251.324328 
L 329.949084 251.324328 
L 329.949084 250.49464 
Q 330.510022 249.91339 331.478772 248.935265 
Q 332.449084 247.955578 332.697522 247.671203 
Q 333.170959 247.139953 333.358459 246.771203 
Q 333.547522 246.402453 333.547522 246.046203 
Q 333.547522 245.464953 333.139709 245.099328 
Q 332.731897 244.73214 332.077209 244.73214 
Q 331.613147 244.73214 331.097522 244.893078 
Q 330.583459 245.054015 329.997522 245.38214 
L 329.997522 244.385265 
Q 330.592834 244.146203 331.110022 244.024328 
Q 331.628772 243.902453 332.058459 243.902453 
Q 333.191272 243.902453 333.864709 244.46964 
Q 334.538147 245.035265 334.538147 245.98214 
Q 334.538147 246.43214 334.369397 246.835265 
Q 334.202209 247.236828 333.756897 247.783703 
Q 333.635022 247.92589 332.980334 248.602453 
Q 332.327209 249.279015 331.135022 250.49464 
z
M 336.647327 250.083703 
L 337.678577 250.083703 
L 337.678577 251.324328 
L 336.647327 251.324328 
L 336.647327 250.083703 
z
M 341.935413 244.683703 
Q 341.174475 244.683703 340.7901 245.433703 
Q 340.407288 246.18214 340.407288 247.686828 
Q 340.407288 249.185265 340.7901 249.935265 
Q 341.174475 250.685265 341.935413 250.685265 
Q 342.7026 250.685265 343.085413 249.935265 
Q 343.469788 249.185265 343.469788 247.686828 
Q 343.469788 246.18214 343.085413 245.433703 
Q 342.7026 244.683703 341.935413 244.683703 
z
M 341.935413 243.902453 
Q 343.161975 243.902453 343.80885 244.872765 
Q 344.455725 245.841515 344.455725 247.686828 
Q 344.455725 249.527453 343.80885 250.497765 
Q 343.161975 251.466515 341.935413 251.466515 
Q 340.710413 251.466515 340.063538 250.497765 
Q 339.416663 249.527453 339.416663 247.686828 
Q 339.416663 245.841515 340.063538 244.872765 
Q 340.710413 243.902453 341.935413 243.902453 
z
"/>
   </g>
   <g id="text_15">
    <!-- Performance vs Q/P Ratio -->
    <g transform="translate(159.980625 35.472) scale(0.12 -0.12)">
     <defs>
      <path id="DejaVuSans-65" d="M 3597 1894 
L 3597 1613 
L 953 1613 
Q 991 1019 1311 708 
Q 1631 397 2203 397 
Q 2534 397 2845 478 
Q 3156 559 3463 722 
L 3463 178 
Q 3153 47 2828 -22 
Q 2503 -91 2169 -91 
Q 1331 -91 842 396 
Q 353 884 353 1716 
Q 353 2575 817 3079 
Q 1281 3584 2069 3584 
Q 2775 3584 3186 3129 
Q 3597 2675 3597 1894 
z
M 3022 2063 
Q 3016 2534 2758 2815 
Q 2500 3097 2075 3097 
Q 1594 3097 1305 2825 
Q 1016 2553 972 2059 
L 3022 2063 
z
" transform="scale(0.015625)"/>
      <path id="DejaVuSans-72" d="M 2631 2963 
Q 2534 3019 2420 3045 
Q 2306 3072 2169 3072 
Q 1681 3072 1420 2755 
Q 1159 2438 1159 1844 
L 1159 0 
L 581 0 
L 581 3500 
L 1159 3500 
L 1159 2956 
Q 1341 3275 1631 3429 
Q 1922 3584 2338 3584 
Q 2397 3584 2469 3576 
Q 2541 3569 2628 3553 
L 2631 2963 
z
" transform="scale(0.015625)"/>
      <path id="DejaVuSans-66" d="M 2375 4863 
L 2375 4384 
L 1825 4384 
Q 1516 4384 1395 4259 
Q 1275 4134 1275 3809 
L 1275 3500 
L 2222 3500 
L 2222 3053 
L 1275 3053 
L 1275 0 
L 697 0 
L 697 3053 
L 147 3053 
L 147 3500 
L 697 3500 
L 697 3744 
Q 697 4328 969 4595 
Q 1241 4863 1831 4863 
L 2375 4863 
z
" transform="scale(0.015625)"/>
      <path id="DejaVuSans-6f" d="M 1959 3097 
Q 1497 3097 1228 2736 
Q 959 2375 959 1747 
Q 959 1119 1226 758 
Q 1494 397 1959 397 
Q 2419 397 2687 759 
Q 2956 1122 2956 1747 
Q 2956 2369 2687 2733 
Q 2419 3097 1959 3097 
z
M 1959 3584 
Q 2709 3584 3137 3096 
Q 3566 2609 3566 1747 
Q 3566 888 3137 398 
Q 2709 -91 1959 -91 
Q 1206 -91 779 398 
Q 353 888 353 1747 
Q 353 2609 779 3096 
Q 1206 3584 1959 3584 
z
" transform="scale(0.015625)"/>
      <path id="DejaVuSans-6d" d="M 3328 2828 
Q 3544 3216 3844 3400 
Q 4144 3584 4550 3584 
Q 5097 3584 5394 3201 
Q 5691 2819 5691 2113 
L 5691 0 
L 5113 0 
L 5113 2094 
Q 5113 2597 4934 2840 
Q 4756 3084 4391 3084 
Q 3944 3084 3684 2787 
Q 3425 2491 3425 1978 
L 3425 0 
L 2847 0 
L 2847 2094 
Q 2847 2600 2669 2842 
Q 2491 3084 2119 3084 
Q 1678 3084 1418 2786 
Q 1159 2488 1159 1978 
L 1159 0 
L 581 0 
L 581 3500 
L 1159 3500 
L 1159 2956 
Q 1356 3278 1631 3431 
Q 1906 3584 2284 3584 
Q 2666 3584 2933 3390 
Q 3200 3197 3328 2828 
z
" transform="scale(0.015625)"/>
      <path id="DejaVuSans-61" d="M 2194 1759 
Q 1497 1759 1228 1600 
Q 959 1441 959 1056 
Q 959 750 1161 570 
Q 1363 391 1709 391 
Q 2188 391 2477 730 
Q 2766 1069 2766 1631 
L 2766 1759 
L 2194 1759 
z
M 3341 1997 
L 3341 0 
L 2766 0 
L 2766 531 
Q 2569 213 2275 61 
Q 1981 -91 1556 -91 
Q 1019 -91 701 211 
Q 384 513 384 1019 
Q 384 1609 779 1909 
Q 1175 2209 1959 2209 
L 2766 2209 
L 2766 2266 
Q 2766 2663 2505 2880 
Q 2244 3097 1772 3097 
Q 1472 3097 1187 3025 
Q 903 2953 641 2809 
L 641 3341 
Q 956 3463 1253 3523 
Q 1550 3584 1831 3584 
Q 2591 3584 2966 3190 
Q 3341 2797 3341 1997 
z
" transform="scale(0.015625)"/>
      <path id="DejaVuSans-6e" d="M 3513 2113 
L 3513 0 
L 2938 0 
L 2938 2094 
Q 2938 2591 2744 2837 
Q 2550 3084 2163 3084 
Q 1697 3084 1428 2787 
Q 1159 2491 1159 1978 
L 1159 0 
L 581 0 
L 581 3500 
L 1159 3500 
L 1159 2956 
Q 1366 3272 1645 3428 
Q 1925 3584 2291 3584 
Q 2894 3584 3203 3211 
Q 3513 2838 3513 2113 
z
" transform="scale(0.015625)"/>
      <path id="DejaVuSans-63" d="M 3122 3366 
L 3122 2828 
Q 2878 2963 2633 3030 
Q 2388 3097 2138 3097 
Q 1578 3097 1268 2742 
Q 959 2388 959 1747 
Q 959 1106 1268 751 
Q 1578 397 2138 397 
Q 2388 397 2633 464 
Q 2878 531 3122 666 
L 3122 134 
Q 2881 22 2623 -34 
Q 2366 -91 2075 -91 
Q 1284 -91 818 406 
Q 353 903 353 1747 
Q 353 2603 823 3093 
Q 1294 3584 2113 3584 
Q 2378 3584 2631 3529 
Q 2884 3475 3122 3366 
z
" transform="scale(0.015625)"/>
      <path id="DejaVuSans-20" transform="scale(0.015625)"/>
      <path id="DejaVuSans-76" d="M 191 3500 
L 800 3500 
L 1894 563 
L 2988 3500 
L 3597 3500 
L 2284 0 
L 1503 0 
L 191 3500 
z
" transform="scale(0.015625)"/>
      <path id="DejaVuSans-73" d="M 2834 3397 
L 2834 2853 
Q 2591 2978 2328 3040 
Q 2066 3103 1784 3103 
Q 1356 3103 1142 2972 
Q 928 2841 928 2578 
Q 928 2378 1081 2264 
Q 1234 2150 1697 2047 
L 1894 2003 
Q 2506 1872 2764 1633 
Q 3022 1394 3022 966 
Q 3022 478 2636 193 
Q 2250 -91 1575 -91 
Q 1294 -91 989 -36 
Q 684 19 347 128 
L 347 722 
Q 666 556 975 473 
Q 1284 391 1588 391 
Q 1994 391 2212 530 
Q 2431 669 2431 922 
Q 2431 1156 2273 1281 
Q 2116 1406 1581 1522 
L 1381 1569 
Q 847 1681 609 1914 
Q 372 2147 372 2553 
Q 372 3047 722 3315 
Q 1072 3584 1716 3584 
Q 2034 3584 2315 3537 
Q 2597 3491 2834 3397 
z
" transform="scale(0.015625)"/>
      <path id="DejaVuSans-52" d="M 2841 2188 
Q 3044 2119 3236 1894 
Q 3428 1669 3622 1275 
L 4263 0 
L 3584 0 
L 2988 1197 
Q 2756 1666 2539 1819 
Q 2322 1972 1947 1972 
L 1259 1972 
L 1259 0 
L 628 0 
L 628 4666 
L 2053 4666 
Q 2853 4666 3247 4331 
Q 3641 3997 3641 3322 
Q 3641 2881 3436 2590 
Q 3231 2300 2841 2188 
z
M 1259 4147 
L 1259 2491 
L 2053 2491 
Q 2509 2491 2742 2702 
Q 2975 2913 2975 3322 
Q 2975 3731 2742 3939 
Q 2509 4147 2053 4147 
L 1259 4147 
z
" transform="scale(0.015625)"/>
      <path id="DejaVuSans-74" d="M 1172 4494 
L 1172 3500 
L 2356 3500 
L 2356 3053 
L 1172 3053 
L 1172 1153 
Q 1172 725 1289 603 
Q 1406 481 1766 481 
L 2356 481 
L 2356 0 
L 1766 0 
Q 1100 0 847 248 
Q 594 497 594 1153 
L 594 3053 
L 172 3053 
L 172 3500 
L 594 3500 
L 594 4494 
L 1172 4494 
z
" transform="scale(0.015625)"/>
      <path id="DejaVuSans-69" d="M 603 3500 
L 1178 3500 
L 1178 0 
L 603 0 
L 603 3500 
z
M 603 4863 
L 1178 4863 
L 1178 4134 
L 603 4134 
L 603 4863 
z
" transform="scale(0.015625)"/>
     </defs>
     <use xlink:href="#DejaVuSans-50"/>
     <use xlink:href="#DejaVuSans-65" x="56.677734"/>
     <use xlink:href="#DejaVuSans-72" x="118.201172"/>
     <use xlink:href="#DejaVuSans-66" x="159.314453"/>
     <use xlink:href="#DejaVuSans-6f" x="194.519531"/>
     <use xlink:href="#DejaVuSans-72" x="255.701172"/>
     <use xlink:href="#DejaVuSans-6d" x="295.064453"/>
     <use xlink:href="#DejaVuSans-61" x="392.476562"/>
     <use xlink:href="#DejaVuSans-6e" x="453.755859"/>
     <use xlink:href="#DejaVuSans-63" x="517.134766"/>
     <use xlink:href="#DejaVuSans-65" x="572.115234"/>
     <use xlink:href="#DejaVuSans-20" x="633.638672"/>
     <use xlink:href="#DejaVuSans-76" x="665.425781"/>
     <use xlink:href="#DejaVuSans-73" x="724.605469"/>
     <use xlink:href="#DejaVuSans-20" x="776.705078"/>
     <use xlink:href="#DejaVuSans-51" x="808.492188"/>
     <use xlink:href="#DejaVuSans-2f" x="887.203125"/>
     <use xlink:href="#DejaVuSans-50" x="920.894531"/>
     <use xlink:href="#DejaVuSans-20" x="981.197266"/>
     <use xlink:href="#DejaVuSans-52" x="1012.984375"/>
     <use xlink:href="#DejaVuSans-61" x="1080.216797"/>
     <use xlink:href="#DejaVuSans-74" x="1141.496094"/>
     <use xlink:href="#DejaVuSans-69" x="1180.705078"/>
     <use xlink:href="#DejaVuSans-6f" x="1208.488281"/>
    </g>
   </g>
   <g id="legend_1">
    <g id="patch_7">
     <path d="M 334.146563 93.506375 
L 407.72 93.506375 
Q 409.72 93.506375 409.72 91.506375 
L 409.72 48.472 
Q 409.72 46.472 407.72 46.472 
L 334.146563 46.472 
Q 332.146563 46.472 332.146563 48.472 
L 332.146563 91.506375 
Q 332.146563 93.506375 334.146563 93.506375 
z
" style="fill: #ffffff; opacity: 0.8; stroke: #cccccc; stroke-linejoin: miter"/>
    </g>
    <g id="text_16">
     <!-- Cluster -->
     <g transform="translate(353.187188 58.070438) scale(0.1 -0.1)">
      <defs>
       <path id="DejaVuSans-43" d="M 4122 4306 
L 4122 3641 
Q 3803 3938 3442 4084 
Q 3081 4231 2675 4231 
Q 1875 4231 1450 3742 
Q 1025 3253 1025 2328 
Q 1025 1406 1450 917 
Q 1875 428 2675 428 
Q 3081 428 3442 575 
Q 3803 722 4122 1019 
L 4122 359 
Q 3791 134 3420 21 
Q 3050 -91 2638 -91 
Q 1578 -91 968 557 
Q 359 1206 359 2328 
Q 359 3453 968 4101 
Q 1578 4750 2638 4750 
Q 3056 4750 3426 4639 
Q 3797 4528 4122 4306 
z
" transform="scale(0.015625)"/>
       <path id="DejaVuSans-6c" d="M 603 4863 
L 1178 4863 
L 1178 0 
L 603 0 
L 603 4863 
z
" transform="scale(0.015625)"/>
       <path id="DejaVuSans-75" d="M 544 1381 
L 544 3500 
L 1119 3500 
L 1119 1403 
Q 1119 906 1312 657 
Q 1506 409 1894 409 
Q 2359 409 2629 706 
Q 2900 1003 2900 1516 
L 2900 3500 
L 3475 3500 
L 3475 0 
L 2900 0 
L 2900 538 
Q 2691 219 2414 64 
Q 2138 -91 1772 -91 
Q 1169 -91 856 284 
Q 544 659 544 1381 
z
M 1991 3584 
L 1991 3584 
z
" transform="scale(0.015625)"/>
      </defs>
      <use xlink:href="#DejaVuSans-43"/>
      <use xlink:href="#DejaVuSans-6c" x="69.824219"/>
      <use xlink:href="#DejaVuSans-75" x="97.607422"/>
      <use xlink:href="#DejaVuSans-73" x="160.986328"/>
      <use xlink:href="#DejaVuSans-74" x="213.085938"/>
      <use xlink:href="#DejaVuSans-65" x="252.294922"/>
      <use xlink:href="#DejaVuSans-72" x="313.818359"/>
     </g>
    </g>
    <g id="line2d_34">
     <path d="M 336.146563 69.248563 
L 346.146563 69.248563 
L 356.146563 69.248563 
" style="fill: none; stroke: #1f77b4; stroke-width: 1.5; stroke-linecap: square"/>
    </g>
    <g id="text_17">
     <!-- Hopper -->
     <g transform="translate(364.146563 72.748563) scale(0.1 -0.1)">
      <defs>
       <path id="DejaVuSans-48" d="M 628 4666 
L 1259 4666 
L 1259 2753 
L 3553 2753 
L 3553 4666 
L 4184 4666 
L 4184 0 
L 3553 0 
L 3553 2222 
L 1259 2222 
L 1259 0 
L 628 0 
L 628 4666 
z
" transform="scale(0.015625)"/>
       <path id="DejaVuSans-70" d="M 1159 525 
L 1159 -1331 
L 581 -1331 
L 581 3500 
L 1159 3500 
L 1159 2969 
Q 1341 3281 1617 3432 
Q 1894 3584 2278 3584 
Q 2916 3584 3314 3078 
Q 3713 2572 3713 1747 
Q 3713 922 3314 415 
Q 2916 -91 2278 -91 
Q 1894 -91 1617 61 
Q 1341 213 1159 525 
z
M 3116 1747 
Q 3116 2381 2855 2742 
Q 2594 3103 2138 3103 
Q 1681 3103 1420 2742 
Q 1159 2381 1159 1747 
Q 1159 1113 1420 752 
Q 1681 391 2138 391 
Q 2594 391 2855 752 
Q 3116 1113 3116 1747 
z
" transform="scale(0.015625)"/>
      </defs>
      <use xlink:href="#DejaVuSans-48"/>
      <use xlink:href="#DejaVuSans-6f" x="75.195312"/>
      <use xlink:href="#DejaVuSans-70" x="136.376953"/>
      <use xlink:href="#DejaVuSans-70" x="199.853516"/>
      <use xlink:href="#DejaVuSans-65" x="263.330078"/>
      <use xlink:href="#DejaVuSans-72" x="324.853516"/>
     </g>
    </g>
    <g id="line2d_35">
     <path d="M 336.146563 83.926688 
L 346.146563 83.926688 
L 356.146563 83.926688 
" style="fill: none; stroke: #ff7f0e; stroke-width: 1.5; stroke-linecap: square"/>
    </g>
    <g id="text_18">
     <!-- Wheeler -->
     <g transform="translate(364.146563 87.426688) scale(0.1 -0.1)">
      <defs>
       <path id="DejaVuSans-57" d="M 213 4666 
L 850 4666 
L 1831 722 
L 2809 4666 
L 3519 4666 
L 4500 722 
L 5478 4666 
L 6119 4666 
L 4947 0 
L 4153 0 
L 3169 4050 
L 2175 0 
L 1381 0 
L 213 4666 
z
" transform="scale(0.015625)"/>
       <path id="DejaVuSans-68" d="M 3513 2113 
L 3513 0 
L 2938 0 
L 2938 2094 
Q 2938 2591 2744 2837 
Q 2550 3084 2163 3084 
Q 1697 3084 1428 2787 
Q 1159 2491 1159 1978 
L 1159 0 
L 581 0 
L 581 4863 
L 1159 4863 
L 1159 2956 
Q 1366 3272 1645 3428 
Q 1925 3584 2291 3584 
Q 2894 3584 3203 3211 
Q 3513 2838 3513 2113 
z
" transform="scale(0.015625)"/>
      </defs>
      <use xlink:href="#DejaVuSans-57"/>
      <use xlink:href="#DejaVuSans-68" x="98.876953"/>
      <use xlink:href="#DejaVuSans-65" x="162.255859"/>
      <use xlink:href="#DejaVuSans-65" x="223.779297"/>
      <use xlink:href="#DejaVuSans-6c" x="285.302734"/>
      <use xlink:href="#DejaVuSans-65" x="313.085938"/>
      <use xlink:href="#DejaVuSans-72" x="374.609375"/>
     </g>
    </g>
   </g>
  </g>
 </g>
 <defs>
  <clipPath id="p57fb89b458">
   <rect x="57.6" y="41.472" width="357.12" height="266.112"/>
  </clipPath>
 </defs>
</svg>
